<svg width="49" height="31" viewBox="0 0 49 31" fill="none" xmlns="http://www.w3.org/2000/svg">
<path d="M11.7642 30.6392C9.32102 30.6297 7.21875 30.0284 5.45739 28.8352C3.70549 27.642 2.35606 25.9138 1.40909 23.6506C0.471591 21.3873 0.00757578 18.6648 0.0170455 15.483C0.0170455 12.3106 0.485796 9.60701 1.4233 7.37216C2.37027 5.13731 3.7197 3.4375 5.47159 2.27273C7.23295 1.09848 9.33049 0.511363 11.7642 0.511363C14.1979 0.511363 16.2907 1.09848 18.0426 2.27273C19.804 3.44697 21.1581 5.15151 22.1051 7.38636C23.0521 9.61174 23.5208 12.3106 23.5114 15.483C23.5114 18.6742 23.0379 21.4015 22.0909 23.6648C21.1534 25.928 19.8087 27.6562 18.0568 28.8494C16.3049 30.0426 14.2074 30.6392 11.7642 30.6392ZM11.7642 25.5398C13.4309 25.5398 14.7614 24.7017 15.7557 23.0256C16.75 21.3494 17.2424 18.8352 17.233 15.483C17.233 13.2765 17.0057 11.4394 16.5511 9.97159C16.1061 8.50379 15.4716 7.40057 14.6477 6.66193C13.8333 5.9233 12.8722 5.55398 11.7642 5.55398C10.107 5.55398 8.78125 6.38258 7.78693 8.03977C6.79261 9.69697 6.29072 12.178 6.28125 15.483C6.28125 17.7178 6.50379 19.5833 6.94886 21.0795C7.40341 22.5663 8.04261 23.6837 8.86648 24.4318C9.69034 25.1705 10.6562 25.5398 11.7642 25.5398ZM27.297 30V25.5682L37.6521 15.9801C38.5328 15.1278 39.2714 14.3608 39.868 13.679C40.4741 12.9972 40.9334 12.3295 41.2459 11.6761C41.5584 11.0133 41.7146 10.2983 41.7146 9.53125C41.7146 8.67898 41.5205 7.94508 41.1322 7.32955C40.744 6.70455 40.2137 6.22633 39.5413 5.89489C38.869 5.55398 38.1067 5.38352 37.2544 5.38352C36.3643 5.38352 35.5877 5.56345 34.9249 5.9233C34.262 6.28314 33.7506 6.79924 33.3908 7.47159C33.0309 8.14394 32.851 8.94413 32.851 9.87216H27.0129C27.0129 7.96875 27.4438 6.31629 28.3055 4.91477C29.1673 3.51326 30.3747 2.42898 31.9277 1.66193C33.4807 0.894885 35.2705 0.511363 37.297 0.511363C39.3804 0.511363 41.1938 0.880681 42.7374 1.61932C44.2904 2.34848 45.4978 3.36174 46.3595 4.65909C47.2213 5.95644 47.6521 7.44318 47.6521 9.11932C47.6521 10.2178 47.4343 11.3021 46.9987 12.3722C46.5726 13.4422 45.8103 14.6307 44.7118 15.9375C43.6133 17.2348 42.065 18.7926 40.0669 20.6108L35.8197 24.7727V24.9716H48.0357V30H27.297Z" fill="#A9B1F4"/>
</svg>
