<svg width="1440" height="564" viewBox="0 0 1440 564" fill="none" xmlns="http://www.w3.org/2000/svg">
<path d="M103.229 130.917C19.4038 136.79 -1.49234 174.148 0.0809627 192.093L0.0809627 564L1439.91 564V192.093C1441.48 174.148 1423.67 136.79 1339.84 130.917C1235.06 123.576 1237.9 97.8817 1221.85 77.0818C1205.8 56.282 1180.31 35.4822 1090.63 51.9998C1000.96 68.5173 913.165 74.0231 846.143 34.8704C792.524 3.54822 740.621 6.10352e-05 721.537 6.10352e-05C702.453 6.10352e-05 650.55 3.54822 596.932 34.8704C529.909 74.0231 442.119 68.5173 352.44 51.9998C262.762 35.4822 237.275 56.282 221.227 77.0818C205.179 97.8817 208.011 123.576 103.229 130.917Z" fill="#A9B1F4"/>
</svg>
