<svg width="224" height="206" viewBox="0 0 224 206" fill="none" xmlns="http://www.w3.org/2000/svg">
<path d="M111 0.271484H10.457V90.2257H111V0.271484Z" fill="#FAFAFA"/>
<path d="M111 90.2207C111 90.2207 111 89.644 110.976 88.5536C110.951 87.4633 110.976 85.8349 110.976 83.7317C110.976 79.5107 110.942 73.3367 110.913 65.4714C110.888 49.7554 110.845 27.2983 110.796 0.271383L111.024 0.499153L10.4569 0.537923L10.7235 0.271383C10.7235 32.9974 10.7235 63.7898 10.6944 90.2207L10.4569 89.9881L83.1782 90.1044L103.687 90.1674L109.12 90.1965H110.52H111.005C111.005 90.1965 110.854 90.1965 110.549 90.1965H109.178L103.794 90.2256L83.3333 90.2886L10.4569 90.4582H10.2195V90.2207C10.2195 63.7898 10.2195 32.9974 10.1855 0.271383V0H10.4569L110.99 0.0387682H111.218V0.271383C111.17 27.3565 111.131 49.8668 111.102 65.6168C111.102 73.4579 111.058 79.6173 111.044 83.8286C111.044 85.9076 111.043 87.5069 111.019 88.6021C110.995 89.6973 111 90.2207 111 90.2207Z" fill="#E0E0E0"/>
<path d="M49.0086 16.2541C49.0086 16.3994 43.7166 16.5206 37.1889 16.5206C30.6611 16.5206 25.3691 16.3994 25.3691 16.2541C25.3691 16.1087 30.6611 15.9827 37.1889 15.9827C43.7166 15.9827 49.0086 16.1038 49.0086 16.2541Z" fill="#E0E0E0"/>
<path d="M91.6102 23.0046C91.6102 23.1548 77.0718 23.276 59.141 23.276C41.2103 23.276 26.6719 23.1548 26.6719 23.0046C26.6719 22.8543 41.2103 22.738 59.141 22.738C77.0718 22.738 91.6102 22.8592 91.6102 23.0046Z" fill="#E0E0E0"/>
<path d="M29.7785 34.4463H25.543V38.6818H29.7785V34.4463Z" fill="#E0E0E0"/>
<path d="M40.2023 34.4463H35.9668V38.6818H40.2023V34.4463Z" fill="#E0E0E0"/>
<path d="M50.8254 34.2524H46.5898V38.488H50.8254V34.2524Z" fill="#E0E0E0"/>
<path d="M61.0598 34.4463H56.8242V38.6818H61.0598V34.4463Z" fill="#E0E0E0"/>
<path d="M71.4836 34.4463H67.248V38.6818H71.4836V34.4463Z" fill="#E0E0E0"/>
<path d="M81.9133 34.4463H77.6777V38.6818H81.9133V34.4463Z" fill="#E0E0E0"/>
<path d="M92.3371 34.4463H88.1016V38.6818H92.3371V34.4463Z" fill="#EBEBEB"/>
<path d="M29.7785 43.4504H25.543V47.686H29.7785V43.4504Z" fill="#EBEBEB"/>
<path d="M40.2023 43.4504H35.9668V47.686H40.2023V43.4504Z" fill="#E0E0E0"/>
<path d="M50.632 43.4504H46.3965V47.686H50.632V43.4504Z" fill="#EBEBEB"/>
<path d="M61.0598 43.4504H56.8242V47.686H61.0598V43.4504Z" fill="#E0E0E0"/>
<path d="M71.4836 43.4504H67.248V47.686H71.4836V43.4504Z" fill="#E0E0E0"/>
<path d="M82.1066 43.2615H77.8711V47.497H82.1066V43.2615Z" fill="#E0E0E0"/>
<path d="M92.3371 43.4504H88.1016V47.686H92.3371V43.4504Z" fill="#E0E0E0"/>
<path d="M29.7785 52.4595H25.543V56.695H29.7785V52.4595Z" fill="#E0E0E0"/>
<path d="M40.3957 52.2656H36.1602V56.5012H40.3957V52.2656Z" fill="#E0E0E0"/>
<path d="M50.632 52.4595H46.3965V56.695H50.632V52.4595Z" fill="#E0E0E0"/>
<path d="M61.0598 52.4595H56.8242V56.695H61.0598V52.4595Z" fill="#EBEBEB"/>
<path d="M71.4836 52.4595H67.248V56.695H71.4836V52.4595Z" fill="#E0E0E0"/>
<path d="M81.9133 52.4595H77.6777V56.695H81.9133V52.4595Z" fill="#E0E0E0"/>
<path d="M92.3371 52.4595H88.1016V56.695H92.3371V52.4595Z" fill="#E0E0E0"/>
<path d="M29.7785 61.4636H25.543V65.6992H29.7785V61.4636Z" fill="#E0E0E0"/>
<path d="M40.2023 61.4636H35.9668V65.6992H40.2023V61.4636Z" fill="#E0E0E0"/>
<path d="M50.632 61.4636H46.3965V65.6992H50.632V61.4636Z" fill="#E0E0E0"/>
<path d="M61.2492 61.2698H57.0137V65.5053H61.2492V61.2698Z" fill="#E0E0E0"/>
<path d="M71.4836 61.4636H67.248V65.6992H71.4836V61.4636Z" fill="#E0E0E0"/>
<path d="M81.9133 61.4636H77.6777V65.6992H81.9133V61.4636Z" fill="#EBEBEB"/>
<path d="M92.3371 61.4636H88.1016V65.6992H92.3371V61.4636Z" fill="#E0E0E0"/>
<path d="M29.7785 70.4678H25.543V74.7033H29.7785V70.4678Z" fill="#E0E0E0"/>
<path d="M40.2023 70.4678H35.9668V74.7033H40.2023V70.4678Z" fill="#EBEBEB"/>
<path d="M50.632 70.4678H46.3965V74.7033H50.632V70.4678Z" fill="#E0E0E0"/>
<path d="M61.0598 70.4678H56.8242V74.7033H61.0598V70.4678Z" fill="#E0E0E0"/>
<path d="M71.4836 70.4678H67.248V74.7033H71.4836V70.4678Z" fill="#E0E0E0"/>
<path d="M82.1066 70.2739H77.8711V74.5095H82.1066V70.2739Z" fill="#E0E0E0"/>
<path d="M92.3371 70.4678H88.1016V74.7033H92.3371V70.4678Z" fill="#E0E0E0"/>
<path d="M199.544 121.183C204.027 118.871 209.299 118.571 214.276 119.395C216.947 119.836 219.733 120.635 221.546 122.641C223.358 124.648 223.707 128.181 221.623 129.911C220.378 130.938 218.643 131.093 217.034 131.074C213.157 131.03 208.82 130.342 205.708 132.688C203.935 134.02 202.752 136.245 200.63 136.904C198.507 137.563 196.21 136.322 195.11 134.447C194.01 132.571 193.976 130.231 194.485 128.118C194.739 126.651 195.327 125.262 196.205 124.06C197.082 122.857 198.225 121.873 199.544 121.183Z" fill="#EBEBEB"/>
<path d="M189.279 101.367C192.017 105.283 197.343 103.984 199.815 101.599C202.286 99.2152 203.323 95.7453 204.273 92.4451C206.444 84.9045 208.635 76.9907 207.021 69.3144C206.536 67.0174 205.679 64.7251 204.065 63.0144C202.451 61.3038 199.97 60.2958 197.702 60.8967C195.017 61.6042 193.34 64.2357 192.143 66.7121C188.59 74.0966 186.727 82.1807 186.691 90.3758C186.691 94.1897 187.128 98.1878 189.279 101.333" fill="#EBEBEB"/>
<path d="M181.759 106.993C184.734 103.46 185.296 98.3139 183.973 93.9087C182.65 89.5036 179.66 85.7236 176.22 82.656C172.165 79.0433 167.444 76.2579 162.321 74.4563C160.315 73.7487 158.192 73.1914 156.074 73.395C153.956 73.5985 151.819 74.6792 150.831 76.5644C149.377 79.3557 150.768 82.7383 152.284 85.4958C154.956 90.3613 158.008 95.0086 161.41 99.3946C164.148 102.923 167.278 106.402 171.451 107.996C175.623 109.591 179.951 109.402 182.161 106.509" fill="#EBEBEB"/>
<path d="M189.095 160.393C189.238 159.81 189.32 159.214 189.342 158.614C189.468 157.32 189.628 155.707 189.826 153.768C190.07 151.38 190.436 149.005 190.922 146.654C191.556 143.79 192.42 140.981 193.505 138.256C194.569 135.531 196.015 132.971 197.798 130.652C199.248 128.765 201.101 127.225 203.221 126.145C204.658 125.433 206.199 124.952 207.786 124.72C208.383 124.696 208.975 124.611 209.555 124.468C208.957 124.389 208.352 124.38 207.752 124.439C206.104 124.565 204.493 124.985 202.993 125.68C200.759 126.732 198.8 128.288 197.27 130.226C195.413 132.576 193.916 135.189 192.826 137.979C191.724 140.746 190.864 143.603 190.258 146.518C189.786 148.895 189.459 151.298 189.279 153.715C189.124 155.775 189.065 157.442 189.036 158.595C188.993 159.195 189.012 159.797 189.095 160.393Z" fill="#E0E0E0"/>
<path d="M189.43 156.656C189.476 156.384 189.492 156.108 189.478 155.833C189.478 155.212 189.478 154.432 189.478 153.473C189.478 151.427 189.478 148.462 189.585 144.803C189.764 137.485 190.394 129.61 191.615 118.508C192.764 108.069 194.315 95.9197 195.943 88.0205C196.297 86.2226 196.646 84.6282 196.98 83.1743C197.314 81.7205 197.566 80.5332 197.828 79.5397C198.09 78.5463 198.23 77.8484 198.376 77.2475C198.457 76.9831 198.506 76.7096 198.521 76.4333C198.397 76.6802 198.301 76.9403 198.235 77.2087L197.552 79.467C197.247 80.4363 196.936 81.6623 196.583 83.0774C196.229 84.4925 195.827 86.1014 195.444 87.8945C193.42 97.2368 191.9 106.681 190.888 116.186C189.667 127.308 189.12 137.441 189.071 144.779C189.027 148.447 189.105 151.418 189.197 153.468C189.26 154.437 189.304 155.203 189.342 155.823C189.34 156.103 189.369 156.383 189.43 156.656Z" fill="#E0E0E0"/>
<path d="M189.478 137.122C189.543 136.301 189.543 135.476 189.478 134.655C189.34 132.418 189.089 130.189 188.727 127.977C188.186 124.697 187.461 121.45 186.556 118.251C185.496 114.316 184.135 110.468 182.485 106.741C179.093 98.7355 174.528 92.2029 170.54 88.137C169.659 87.2078 168.72 86.3354 167.729 85.5249C167.298 85.1614 166.92 84.798 166.532 84.5121L165.442 83.7609C164.784 83.2634 164.089 82.8178 163.363 82.4282C163.246 82.5881 166.304 84.3909 170.147 88.4956C173.99 92.6003 178.449 99.0941 181.778 107.032C183.4 110.737 184.773 114.547 185.887 118.435C186.821 121.605 187.593 124.821 188.199 128.069C188.708 130.841 189.004 133.109 189.168 134.679C189.21 135.5 189.314 136.317 189.478 137.122Z" fill="#E0E0E0"/>
<path d="M170.594 171.583L172.552 198.406H207.008L208.966 171.583H170.594Z" fill="#E0E0E0"/>
<path d="M213.074 161.013H167.264V171.587H213.074V161.013Z" fill="#E0E0E0"/>
<path d="M167.264 197.379V200.311H169.415H212.323V197.379H167.264Z" fill="#EBEBEB"/>
<path d="M171.529 205.467L169.416 200.311H210.681L208.219 205.467H171.529Z" fill="#E0E0E0"/>
<path d="M208.325 180.349C208.325 180.349 208.282 180.441 208.166 180.596L207.652 181.28L205.646 183.848L205.553 183.964L205.466 183.843L200.538 177.025H200.819L195.973 183.897L195.818 184.115L195.648 183.911L189.891 177.059H190.22L189.905 177.456C188.117 179.695 186.392 181.866 184.754 183.911L184.584 184.129L184.424 183.906C182.68 181.43 181.032 179.118 179.578 177.03H179.859L173.879 183.848L173.772 183.969L173.69 183.829C172.9 182.506 172.275 181.449 171.819 180.684L171.335 179.845C171.274 179.752 171.225 179.651 171.189 179.545C171.267 179.626 171.335 179.715 171.393 179.811C171.529 180.025 171.708 180.296 171.921 180.621L173.889 183.708H173.7L179.588 176.802L179.738 176.632L179.869 176.816L184.773 183.659H184.444L189.581 177.194L189.896 176.797L190.06 176.594L190.23 176.792L195.968 183.659H195.648L200.552 176.821L200.693 176.623L200.833 176.821L205.679 183.717H205.5L207.589 181.212L208.151 180.563C208.202 180.486 208.261 180.415 208.325 180.349Z" fill="#F5F5F5"/>
<path d="M209.445 171.408C209.445 171.525 200.814 171.622 190.162 171.622C179.51 171.622 170.879 171.525 170.879 171.408C170.879 171.292 179.515 171.195 190.162 171.195C200.809 171.195 209.445 171.287 209.445 171.408Z" fill="#F5F5F5"/>
<path d="M211.185 200.601C211.185 200.718 201.803 200.815 190.23 200.815C178.658 200.815 169.275 200.718 169.275 200.601C169.275 200.485 178.658 200.383 190.23 200.383C201.803 200.383 211.185 200.48 211.185 200.601Z" fill="#F5F5F5"/>
<path d="M86.9096 98.8225L83.0327 100.902L74.4502 107.507C74.4502 107.507 48.1695 110.996 47.1615 111.752C46.1535 112.508 33.1077 118.716 31.3146 127.046C29.5215 135.377 25.916 189.707 25.916 189.707L30.6846 205.758L126.401 205.908L148.848 205.588C148.848 205.588 157.469 185.443 157.469 179.903C157.469 174.364 154.949 132.716 154.949 132.716L128.029 113.734L86.9096 98.8225Z" fill="#ED1C24"/>
<path d="M74.2085 107.114C74.1734 107.193 74.1295 107.268 74.0777 107.337C73.9614 107.502 73.8257 107.705 73.6561 107.953C73.2781 108.476 72.7644 109.261 72.1683 110.245C71.8775 110.729 71.548 111.282 71.2427 111.888C70.9374 112.493 70.6078 113.138 70.2735 113.826C69.5966 115.336 69.0155 116.886 68.5337 118.469C67.7035 121.357 67.0816 124.302 66.6728 127.279C66.508 128.394 66.3772 129.31 66.2802 129.988C66.2366 130.284 66.2027 130.526 66.1736 130.725C66.1667 130.811 66.1471 130.896 66.1155 130.977C66.1047 130.891 66.1047 130.805 66.1155 130.72C66.1155 130.521 66.1542 130.274 66.1785 129.974C66.2366 129.329 66.3432 128.399 66.4886 127.255C66.8575 124.256 67.4668 121.292 68.3108 118.391C68.7968 116.801 69.3877 115.246 70.0796 113.734C70.4092 113.036 70.729 112.382 71.0489 111.796C71.3687 111.209 71.7031 110.652 72.0181 110.158C72.6432 109.188 73.1763 108.408 73.5785 107.899L74.0389 107.313C74.0877 107.24 74.1446 107.174 74.2085 107.114Z" fill="#263238"/>
<g opacity="0.3">
<path d="M74.8035 123.087C74.6436 122.574 74.4401 121.997 73.9409 121.798C73.5532 121.638 73.7083 121.89 73.3206 122.055C69.686 123.552 67.9317 126.901 66.3906 130.701L66.4779 130.608C66.3682 130.926 66.3673 131.272 66.4752 131.59C66.583 131.908 66.7937 132.182 67.0739 132.368C67.8929 132.852 68.9445 132.586 69.7878 132.15C70.631 131.713 71.4015 131.108 72.3223 130.875C74.3092 130.361 76.2913 131.723 77.6967 133.225C79.1021 134.728 80.3621 136.511 82.2811 137.253C78.9467 133.026 76.4126 128.225 74.8035 123.087Z" fill="black"/>
</g>
<path d="M66.1055 130.977C66.5426 129.913 67.0577 128.882 67.6465 127.894C68.3172 126.724 69.0891 125.615 69.9533 124.58C70.5003 123.934 71.1071 123.342 71.7658 122.811C72.509 122.204 73.3862 121.784 74.3245 121.585H74.3972L74.4263 121.657C75.0321 123.242 75.6718 124.972 76.4132 126.794C77.17 128.732 78.0757 130.608 79.1222 132.406C80.2796 134.37 81.6798 136.181 83.2899 137.795C85.0245 139.503 86.9367 141.02 88.9938 142.321C89.6965 142.733 90.375 143.174 91.0777 143.562L93.176 144.681H93.05L96.5489 142.258L98.2451 141.09C98.8072 140.708 99.3549 140.325 99.8734 139.918C101.827 138.378 103.644 136.67 105.301 134.815C107.28 133.317 108.97 131.471 110.288 129.368C111.298 127.753 112.055 125.993 112.532 124.148C112.837 122.964 113.028 121.754 113.103 120.533C113.132 120.107 113.103 119.782 113.137 119.564C113.171 119.346 113.137 119.234 113.137 119.234C113.137 119.234 113.137 119.346 113.137 119.564C113.137 119.782 113.137 120.112 113.137 120.533C113.092 121.762 112.92 122.984 112.624 124.177C112.162 126.042 111.415 127.824 110.409 129.46C109.101 131.583 107.418 133.45 105.442 134.97C103.78 136.842 101.957 138.566 99.9946 140.121C99.4712 140.533 98.9236 140.921 98.3614 141.304L96.6653 142.476L93.1663 144.9L93.1082 144.943L93.0403 144.909L90.9323 143.785C90.2247 143.397 89.5414 142.956 88.8387 142.539C86.7612 141.231 84.8324 139.7 83.0864 137.974C81.4651 136.344 80.0566 134.516 78.8944 132.532C77.8552 130.715 76.9592 128.819 76.2145 126.862C75.4779 125.03 74.8479 123.295 74.2518 121.711L74.3536 121.769C73.4436 121.96 72.5916 122.363 71.8675 122.947C71.214 123.466 70.6105 124.045 70.0648 124.677C69.1979 125.7 68.4182 126.794 67.7338 127.948C67.1668 128.917 66.7645 129.663 66.5077 130.182L66.2121 130.778C66.1857 130.849 66.1498 130.915 66.1055 130.977Z" fill="#263238"/>
<path d="M120.27 119.045C120.344 121.514 120.227 123.985 119.921 126.436C119.618 129.112 119.124 131.763 118.443 134.369C117.606 137.574 116.534 140.713 115.235 143.761L115.051 144.197L114.993 143.712C114.959 143.431 114.934 143.126 114.886 142.816C114.658 141.077 114.254 139.365 113.679 137.708C113.403 136.903 113.088 136.128 112.749 135.382C112.579 135.009 112.4 134.645 112.216 134.287C112.049 133.934 111.851 133.596 111.624 133.279C111.412 132.97 111.116 132.728 110.772 132.581C110.608 132.522 110.432 132.508 110.262 132.54C110.091 132.573 109.933 132.65 109.802 132.765C109.537 133.008 109.291 133.27 109.066 133.55L108.363 134.35L105.799 137.257L102.073 141.478L101.079 142.641L100.808 142.932L100.711 143.024C100.733 142.985 100.759 142.947 100.788 142.913L101.04 142.607L102.01 141.435L105.673 137.16L108.213 134.214C108.445 133.947 108.697 133.681 108.911 133.405C109.145 133.114 109.401 132.842 109.676 132.59C109.834 132.453 110.025 132.361 110.23 132.321C110.435 132.282 110.647 132.298 110.844 132.367C111.224 132.53 111.55 132.798 111.784 133.138C112.021 133.466 112.229 133.815 112.405 134.18C112.589 134.539 112.773 134.907 112.943 135.28C113.287 136.031 113.607 136.816 113.912 137.626C114.492 139.302 114.901 141.033 115.133 142.792C115.182 143.102 115.206 143.412 115.24 143.698L114.997 143.664C116.292 140.627 117.367 137.501 118.215 134.311C118.903 131.717 119.413 129.079 119.742 126.416C120.023 124.148 120.139 122.302 120.188 121.027C120.222 120.388 120.222 119.893 120.236 119.574C120.236 119.419 120.236 119.293 120.236 119.191C120.236 119.089 120.27 119.045 120.27 119.045Z" fill="#263238"/>
<path d="M84.1184 105.656C84.1184 105.656 84.1184 105.694 84.0457 105.752L83.8131 106.014C83.5999 106.237 83.3285 106.591 82.965 107.051C82.0054 108.399 81.2236 109.865 80.6389 111.413C79.7515 113.688 79.1665 116.07 78.8991 118.498C78.5587 121.469 78.6896 124.475 79.2868 127.405C79.5933 128.921 80.0477 130.403 80.6437 131.83C81.1974 133.158 81.874 134.431 82.6646 135.634C84.0008 137.677 85.6341 139.51 87.5107 141.071C88.2909 141.759 89.0857 142.273 89.7496 142.767C90.4136 143.262 91.0533 143.601 91.5573 143.887L92.7349 144.536L93.0402 144.711C93.0772 144.728 93.1115 144.751 93.1419 144.778C93.1419 144.778 93.1032 144.778 93.0305 144.735L92.7155 144.58L91.5088 143.974C90.9951 143.698 90.3893 143.31 89.6721 142.884C88.9549 142.457 88.2183 141.914 87.3993 141.207C85.488 139.652 83.8245 137.815 82.4659 135.76C81.6716 134.534 80.9949 133.236 80.445 131.883C79.8411 130.444 79.3801 128.949 79.0687 127.42C78.4655 124.462 78.3411 121.427 78.7004 118.43C78.9814 115.986 79.5877 113.59 80.5032 111.306C81.1116 109.759 81.9267 108.302 82.9263 106.974C83.2023 106.617 83.5018 106.278 83.8228 105.961L84.07 105.714L84.1184 105.656Z" fill="#263238"/>
<path d="M42.8968 152.222C42.8968 152.222 42.9355 152.261 42.9937 152.358L43.2505 152.808H43.1778C42.8338 151.18 41.8936 146.189 40.8226 140.281C40.1829 136.647 39.6014 133.356 39.1701 130.928C38.9762 129.755 38.8163 128.796 38.6855 128.088C38.6418 127.773 38.6031 127.521 38.574 127.313C38.554 127.224 38.5459 127.133 38.5498 127.042C38.5831 127.128 38.6075 127.217 38.6225 127.308C38.6661 127.507 38.7194 127.764 38.7824 128.074C38.9229 128.772 39.1071 129.731 39.3348 130.899C39.7855 133.322 40.3913 136.603 41.0649 140.238C42.1311 146.14 43.0034 151.151 43.2457 152.794L43.2845 153.041L43.173 152.818L42.9452 152.334C42.9259 152.298 42.9097 152.261 42.8968 152.222Z" fill="#263238"/>
<path d="M41.7286 151.224C41.6656 151.253 40.4444 148.801 39.0003 145.743C37.5561 142.685 36.4415 140.179 36.5045 140.15C36.5675 140.121 37.7887 142.573 39.2329 145.631C40.677 148.689 41.7916 151.195 41.7286 151.224Z" fill="#263238"/>
<g opacity="0.3">
<path d="M41.2305 204.507C44.269 206.034 51.3153 203.339 53.8741 199.981C56.4328 196.622 57.1743 192.251 57.751 188.064C58.5877 181.754 59.1854 175.42 59.544 169.062C64.816 172.895 71.2292 174.832 77.7413 174.558C81.8508 174.369 86.5371 172.736 87.8116 168.825C89.0861 164.914 86.3578 160.969 83.547 158.028C80.8688 155.225 77.95 152.663 74.8239 150.371C72.774 148.868 70.5254 147.463 67.9957 147.167C65.2673 146.872 62.5099 147.986 60.4357 149.784C58.3616 151.582 56.9126 154.005 55.8513 156.535C52.6092 164.265 52.7837 172.915 52.1198 181.25C51.4558 189.586 50.5738 198.256 43.1738 203.693" fill="black"/>
</g>
<path d="M41.4297 204.536C41.496 204.497 41.5657 204.465 41.6381 204.439L42.2487 204.173C42.9918 203.778 43.6877 203.3 44.3228 202.748C46.5395 200.726 48.4278 198.372 49.9201 195.769V195.808C50.3611 192.489 50.8894 188.612 51.4273 184.492C52.319 177.96 53.104 172.048 53.7389 167.773C54.1314 165.665 54.4464 163.954 54.6742 162.743C54.7857 162.166 54.8729 161.711 54.9407 161.376L55.0134 161.023C55.0198 160.983 55.0312 160.943 55.0473 160.906C55.0547 160.946 55.0547 160.987 55.0473 161.027C55.0473 161.124 55.0134 161.241 54.994 161.386L54.776 162.762C54.5676 163.974 54.2913 165.67 53.9182 167.802C53.3464 172.101 52.5564 177.979 51.6841 184.526C51.122 188.646 50.5937 192.518 50.1431 195.837V195.862C48.6252 198.476 46.6978 200.831 44.4343 202.835C43.7849 203.383 43.0703 203.848 42.3068 204.221C42.0355 204.333 41.8222 204.405 41.6768 204.454C41.6002 204.496 41.5164 204.524 41.4297 204.536Z" fill="#263238"/>
<path d="M88.0779 205.588C88.0555 205.54 88.0392 205.489 88.0294 205.437C88.0003 205.321 87.9664 205.171 87.9228 204.982C87.8356 204.58 87.6757 204.013 87.5497 203.228C87.1618 201.054 86.9383 198.854 86.8809 196.647C86.804 193.378 86.979 190.109 87.4043 186.867C87.8501 183.203 88.5916 179.215 89.4542 175.047C90.3168 170.88 91.32 166.949 92.1632 163.368C92.9636 160.209 93.4841 156.985 93.7188 153.734C93.8441 151.541 93.763 149.341 93.4765 147.163C93.3941 146.387 93.2633 145.796 93.2051 145.389L93.1373 144.928C93.1309 144.875 93.1309 144.822 93.1373 144.769C93.1568 144.818 93.1698 144.87 93.176 144.924C93.2003 145.04 93.2342 145.19 93.2729 145.379C93.3408 145.781 93.491 146.348 93.5879 147.148C93.9121 149.331 94.0209 151.54 93.9126 153.744C93.7029 157.013 93.1984 160.257 92.4055 163.436C91.572 167.027 90.5397 170.943 89.7159 175.115C88.892 179.288 88.107 183.257 87.6466 186.911C87.208 190.137 87.012 193.391 87.0602 196.647C87.101 198.843 87.297 201.034 87.6466 203.203C87.758 203.974 87.9034 204.56 87.9713 204.967C88.0052 205.156 88.0343 205.311 88.0536 205.428C88.073 205.544 88.0779 205.588 88.0779 205.588Z" fill="#263238"/>
<path d="M96.2333 150.943C96.1752 150.904 97.0087 149.571 97.9392 147.87C98.8696 146.169 99.5433 144.749 99.6111 144.779C99.5405 145.116 99.423 145.442 99.2622 145.748C99.0102 146.334 98.6273 147.129 98.1621 147.987C97.6969 148.844 97.2268 149.591 96.8682 150.119C96.6955 150.421 96.4819 150.699 96.2333 150.943Z" fill="#263238"/>
<g opacity="0.3">
<path d="M97.7947 148.931C100.321 145.975 103.056 143.204 105.98 140.64C106.78 139.937 107.647 139.225 108.699 139.05C109.978 138.837 111.282 139.496 112.168 140.446C113.004 141.442 113.672 142.569 114.146 143.78C115.415 140.659 114.097 137.141 112.789 134.034C112.362 133.022 111.626 131.82 110.54 131.984C109.972 132.143 109.478 132.496 109.144 132.983C104.944 137.859 101.059 142.998 97.5137 148.369" fill="black"/>
</g>
<g opacity="0.3">
<path d="M140.402 125.849L140.581 124.313C138.735 124.487 136.467 124.706 134.994 125.83C133.274 127.143 132.571 129.377 132.018 131.461C130.7 136.201 134.441 160.601 134.248 165.52C135.881 164.827 137.034 154.374 137.325 152.6C138.042 148.33 136.593 145.665 137.034 144.473C137.475 143.281 137.461 141.987 137.494 140.722C137.654 135.057 138.217 131.073 140.402 125.849Z" fill="black"/>
</g>
<path d="M116.311 47.5356C113.965 44.6279 114.736 39.9805 117.42 37.3587C120.105 34.7369 124.205 34.01 127.873 34.6303C130.547 35.1059 133.07 36.208 135.236 37.8464C137.401 39.4847 139.148 41.6127 140.333 44.0561C141.593 46.6972 142.271 49.8181 144.583 51.6112C146.609 53.1911 149.4 53.3268 151.707 54.4608C154.799 55.9727 156.795 59.2148 157.522 62.5829C158.249 65.951 157.803 69.4596 157.091 72.8325C156.437 75.9243 155.564 79.2682 156.892 82.1322C158.22 84.9963 161.21 86.455 163.192 88.8102C166.943 93.2348 166.1 100.766 161.452 104.245C159.974 105.355 158.104 106.184 157.396 107.909C156.752 109.469 157.299 111.238 157.265 112.925C157.183 117.286 152.39 120.848 148.198 119.709C146.085 119.128 144.137 117.567 141.961 117.863C139.785 118.158 138.361 120.155 136.63 121.449C134.86 122.679 132.72 123.263 130.57 123.101C128.421 122.94 126.392 122.043 124.825 120.562C123.556 119.297 122.533 117.577 120.798 117.117C119.063 116.656 117.246 117.65 115.467 117.407C113.146 117.092 111.62 114.786 110.931 112.561C110.243 110.337 110.064 107.89 108.906 105.854C107.379 103.16 104.471 101.662 102.048 99.7722C99.3571 97.6925 97.144 95.0589 95.5589 92.0497C93.9737 89.0404 93.0535 85.7258 92.8605 82.3301C92.6675 78.9343 93.2063 75.5368 94.4403 72.3673C95.6742 69.1978 97.5747 66.3305 100.013 63.9592" fill="#263238"/>
<path d="M83.8089 105.67C81.5074 108.357 79.8775 111.553 79.0535 114.994C78.2294 118.435 78.2349 122.023 79.0694 125.462C80.7994 132.299 86.5179 142.297 93.1232 144.778C97.4072 141.638 102.912 137.252 106.906 133.753C109.489 131.49 110.86 128.18 112.139 124.992C112.876 123.15 113.627 121.163 113.167 119.234C112.823 117.814 111.863 116.632 110.85 115.58C107.56 112.22 103.518 109.691 99.0563 108.203C94.595 106.714 89.8436 106.31 85.1949 107.022" fill="#EF9D78"/>
<path d="M103.421 56.4379C104.613 54.0204 106.599 52.0859 109.047 50.9584C111.496 49.8309 114.257 49.5789 116.869 50.2445L133.399 54.4607C141.662 57.1212 148.131 69.9102 143.261 81.1145C139.413 89.9587 135.473 101.071 131.523 107.177C123.576 119.448 112.711 116.642 112.711 116.642L106.847 129.726L82.873 107.245L103.421 56.4379Z" fill="#EF9D78"/>
<path d="M131.334 84.5698C131.644 84.4535 132.458 86.0237 134.242 86.8621C136.025 87.7005 137.789 87.463 137.876 87.778C137.925 87.9234 137.523 88.2141 136.747 88.3498C135.709 88.5087 134.646 88.3392 133.709 87.8652C132.774 87.4194 132.006 86.6857 131.518 85.7717C131.179 85.1029 131.184 84.6183 131.334 84.5698Z" fill="#263238"/>
<path d="M112.613 76.0454C112.962 75.9776 113.767 77.6979 115.695 78.8949C117.624 80.0919 119.572 80.1259 119.655 80.4602C119.698 80.6153 119.238 80.8431 118.37 80.8528C117.19 80.8295 116.038 80.4825 115.041 79.8496C114.051 79.2447 113.256 78.3684 112.749 77.3248C112.41 76.5639 112.444 76.0696 112.613 76.0454Z" fill="#263238"/>
<path d="M120.548 94.3251C120.587 94.2184 121.803 94.5238 123.741 95.1053C124.226 95.2604 124.711 95.367 124.929 95.0811C125.147 94.7951 125.215 94.2087 125.229 93.5642C125.292 92.2461 125.36 90.8649 125.423 89.4111C125.753 83.523 126.203 78.7495 126.441 78.7738C126.678 78.798 126.61 83.5763 126.286 89.4692C126.195 90.9198 126.108 92.3026 126.024 93.6175C125.966 94.2233 126 94.9599 125.457 95.556C125.316 95.69 125.146 95.7902 124.961 95.8489C124.775 95.9077 124.579 95.9235 124.386 95.8952C124.098 95.8517 123.816 95.7719 123.548 95.6577C121.658 94.9308 120.509 94.4317 120.548 94.3251Z" fill="#263238"/>
<path d="M112.711 116.685C112.711 116.685 103.14 113.099 96.6797 103.906C96.6797 103.906 97.0431 115.13 111.247 119.976L112.711 116.685Z" fill="#D37A57"/>
<path d="M114.115 69.8328C114.416 69.3482 116.311 70.0072 118.656 70.2156C121.002 70.424 122.984 70.1914 123.187 70.7293C123.275 70.9862 122.848 71.4175 121.995 71.7712C120.866 72.1896 119.657 72.3455 118.459 72.2271C117.261 72.1087 116.105 71.7191 115.08 71.0879C114.314 70.5694 113.98 70.0654 114.115 69.8328Z" fill="#263238"/>
<path d="M135.24 75.1636C135.851 75.1636 136.607 76.6707 137.915 78.11C139.224 79.5493 140.576 80.5331 140.489 81.1437C140.43 81.4199 139.922 81.5411 139.117 81.3036C138.054 80.9358 137.108 80.2899 136.379 79.433C135.626 78.6037 135.111 77.5853 134.891 76.4866C134.765 75.6627 134.954 75.183 135.24 75.1636Z" fill="#263238"/>
<path d="M116.346 99.3894C116.346 99.3894 117.47 98.803 116.947 96.6416C116.424 94.4803 113.681 92.5273 111.941 94.3058C111.941 94.3058 110.187 94.4366 110.875 96.4623C111.563 98.488 115.566 101.347 116.312 99.7189" fill="#D37A57"/>
<path d="M115.691 101.042C115.371 100.984 115.855 98.8758 114.402 96.9615C112.948 95.0473 110.651 94.7565 110.704 94.4561C110.704 94.3155 111.3 94.1653 112.255 94.3591C113.492 94.6288 114.594 95.3275 115.366 96.3315C116.111 97.2962 116.45 98.5132 116.311 99.7238C116.19 100.62 115.831 101.086 115.691 101.042Z" fill="#263238"/>
<path d="M89.2838 49.5518C88.0028 50.5515 86.9755 51.8391 86.2851 53.31C85.5947 54.7809 85.2606 56.3938 85.3099 58.018C85.3826 59.8304 85.8236 61.9676 84.4909 63.1985C83.1582 64.4294 80.992 63.7752 79.1602 63.7849C77.5464 63.838 76.0028 64.4577 74.8003 65.5353C73.5978 66.6129 72.8131 68.0795 72.5839 69.6778C72.4531 70.8215 72.5839 72.0573 72.0218 73.0701C71.4596 74.083 70.1948 74.5676 69.1674 75.1927C67.8858 75.9688 66.8306 77.0682 66.1077 78.3806C65.3848 79.6929 65.0195 81.1723 65.0485 82.6703C65.0774 84.1684 65.4996 85.6325 66.2727 86.916C67.0458 88.1994 68.1427 89.2572 69.4533 89.9832C70.6406 90.6374 72.0266 91.0493 72.8941 92.0912C73.8633 93.2882 73.9215 94.9989 74.4109 96.4528C74.8817 97.8795 75.788 99.1227 77.0023 100.007C78.2166 100.892 79.6778 101.374 81.1802 101.384C82.6825 101.395 84.1504 100.934 85.3772 100.067C86.604 99.1998 87.5279 97.9696 88.0189 96.5497" fill="#263238"/>
<path d="M116.103 44.9137C115.615 46.3354 115.446 47.8472 115.609 49.3415C115.771 50.8358 116.261 52.2759 117.044 53.5594C117.826 54.8428 118.882 55.9381 120.135 56.7673C121.389 57.5965 122.81 58.1392 124.297 58.3569C126.594 58.6913 129.337 58.4005 130.82 60.1887C132.381 62.069 131.455 65.0639 132.691 67.1769C134.45 70.1863 137.46 72.59 140.309 74.606C142.514 76.1616 139.994 80.4892 140.954 83.0092C141.913 85.5292 145.863 91.2816 148.557 91.3834C149.148 89.1299 152.502 79.2292 152.56 76.9031C152.618 74.5769 152.076 72.1539 150.651 70.322C149.861 69.3189 148.824 68.5193 148.14 67.4434C146.662 65.1124 147.171 62.1126 146.687 59.3843C146.362 57.6256 145.62 55.9705 144.524 54.5574C143.428 53.1442 142.009 52.0143 140.387 51.2621C137.697 50.0312 134.542 49.8955 132.056 48.2914C130.219 47.1041 128.906 45.2093 127.002 44.1334C123.294 42.0399 118.652 43.6488 114.818 45.4904" fill="#263238"/>
<path d="M98.2352 73.0699C97.8523 72.813 95.3275 74.7369 97.8184 76.2732C102.214 78.9579 105.989 69.8763 105.829 66.8571C108.068 65.8879 110.331 64.9526 112.304 63.4648C114.276 61.977 117.222 57.0776 117.751 54.5867C119.432 55.27 127.559 55.333 126.852 54.8435C125.248 53.7337 122.006 51.3543 121.574 49.5127C120.639 45.4662 117.765 41.9431 113.966 40.8866C111.985 40.3861 109.895 40.5404 108.009 41.3267C106.123 42.1129 104.542 43.4886 103.503 45.2481C98.9815 43.7555 93.6216 45.0979 90.0161 48.6404C88.2162 50.4545 86.8845 52.679 86.1357 55.1222C85.3868 57.5655 85.2433 60.1542 85.7176 62.6652C85.9793 63.9543 86.4154 65.3015 86.0035 66.5809C85.4898 68.1607 83.9003 69.004 82.6354 70.041C79.1898 72.8373 77.7069 77.7949 78.1285 82.2388C78.5501 86.6827 79.3158 88.4709 81.5208 90.0847C85.8387 93.2347 76.8637 101.289 84.9131 104.013" fill="#263238"/>
<path d="M158.265 103.867C158.265 103.838 158.551 103.668 159.021 103.227C159.714 102.589 160.267 101.814 160.644 100.95C161.255 99.5946 161.413 98.0789 161.095 96.627C160.717 94.9357 159.442 93.3268 157.736 91.9553C156.031 90.5839 153.903 89.2609 152.362 87.0171C150.821 84.7733 150.545 81.6863 151.039 78.7787C151.533 75.871 152.755 72.9633 153.54 69.9054C153.962 68.3651 154.163 66.7725 154.136 65.1755C154.121 63.5519 153.683 61.9601 152.866 60.5571C151.985 59.1946 150.734 58.1106 149.261 57.4314C147.816 56.7551 146.282 56.2884 144.705 56.0454C143.135 55.8605 141.58 55.5625 140.053 55.1537C139.287 54.9498 138.57 54.5914 137.948 54.1005C137.325 53.6097 136.81 52.9967 136.433 52.2993C135.73 50.9133 135.575 49.4449 135.27 48.1122C135.032 46.8199 134.494 45.6015 133.7 44.5552C132.214 42.6822 130.09 41.4227 127.734 41.0175C125.792 40.6874 123.796 40.9264 121.986 41.7056C120.617 42.2953 119.358 43.1148 118.265 44.1287C117.352 45.0247 116.527 46.0065 115.803 47.0606C115.803 47.0606 115.827 46.9734 115.909 46.828C116.023 46.6069 116.147 46.3918 116.282 46.1835C116.796 45.3711 117.403 44.6214 118.09 43.9494C119.182 42.8805 120.454 42.0112 121.846 41.3809C123.714 40.538 125.787 40.2568 127.811 40.5716C130.286 40.9779 132.522 42.2866 134.087 44.245C134.938 45.3491 135.519 46.637 135.783 48.0056C136.103 49.3674 136.268 50.8018 136.922 52.0473C137.268 52.6718 137.738 53.2191 138.303 53.6558C138.868 54.0924 139.516 54.4092 140.208 54.5867C141.708 54.9831 143.236 55.2698 144.778 55.4445C146.417 55.7014 148.011 56.191 149.513 56.8983C151.097 57.628 152.441 58.7926 153.389 60.2567C154.263 61.755 154.731 63.4555 154.746 65.1901C154.775 66.8461 154.566 68.4977 154.126 70.0944C153.307 73.2104 152.076 76.0551 151.596 78.9095C151.117 81.7639 151.344 84.6376 152.779 86.7457C154.213 88.8538 156.336 90.1671 158.008 91.6306C159.68 93.0942 161.056 94.7612 161.4 96.5689C161.705 98.0923 161.502 99.6735 160.823 101.071C160.413 101.95 159.812 102.726 159.064 103.344C158.824 103.556 158.555 103.732 158.265 103.867Z" fill="#455A64"/>
<path d="M143.381 74.6062C143.434 74.6304 143.144 75.2992 142.848 76.5689C142.443 78.3618 142.385 80.2159 142.678 82.0305C142.874 83.2758 143.243 84.4877 143.774 85.6312C144.416 86.9342 145.213 88.1546 146.148 89.2658C146.658 89.907 147.092 90.6046 147.442 91.3448C147.813 92.1472 147.97 93.0321 147.898 93.9132C147.757 95.716 146.87 97.3056 146.211 98.9484C145.552 100.591 145.131 102.287 145.765 103.795C146.4 105.302 147.554 106.431 148.644 107.516C149.763 108.519 150.724 109.686 151.494 110.977C152.141 112.169 152.314 113.563 151.978 114.878C151.756 115.809 151.329 116.68 150.729 117.427C150.129 118.174 149.37 118.778 148.508 119.196C148.04 119.407 147.541 119.546 147.03 119.608C146.854 119.633 146.674 119.633 146.497 119.608C147.152 119.463 147.79 119.252 148.402 118.978C149.193 118.54 149.882 117.939 150.423 117.215C150.963 116.49 151.343 115.659 151.537 114.776C151.819 113.573 151.647 112.307 151.053 111.224C150.292 109.995 149.351 108.887 148.261 107.938C147.166 106.857 145.891 105.694 145.213 104.017C144.877 103.165 144.765 102.241 144.888 101.333C145.028 100.429 145.285 99.5476 145.654 98.7109C146.337 97.039 147.181 95.4834 147.307 93.8648C147.433 92.2462 146.623 90.8263 145.707 89.6099C144.759 88.4573 143.958 87.1907 143.323 85.8396C142.023 82.8993 141.781 79.5993 142.64 76.501C142.773 76.0032 142.946 75.517 143.158 75.0472C143.21 74.8897 143.285 74.741 143.381 74.6062Z" fill="#455A64"/>
<path d="M70.6705 89.8181C70.6705 89.8181 70.5639 89.76 70.3942 89.6146C70.1367 89.3997 69.8998 89.1612 69.6867 88.9022C68.8679 87.908 68.3144 86.7226 68.0778 85.4566C67.8729 84.4675 67.8725 83.4469 68.0767 82.4576C68.2809 81.4684 68.6853 80.5314 69.2651 79.7042C70.0359 78.6262 71.0626 77.7567 72.2528 77.1739C73.443 76.591 74.7594 76.3132 76.0836 76.3652L75.8171 76.7238C75.1933 75.1183 74.9142 73.3994 74.9981 71.679C75.048 70.7304 75.3061 69.8045 75.7542 68.9669C76.2023 68.1294 76.8293 67.4008 77.5908 66.8329C78.4097 66.2184 79.4021 65.8791 80.4258 65.8636C81.4513 65.9256 82.4514 66.2083 83.3577 66.6923C84.2091 67.1549 85.1163 67.5067 86.057 67.7391C86.514 67.8266 86.9853 67.8032 87.4314 67.6709C87.8775 67.5385 88.2853 67.3009 88.6206 66.9782C89.6113 65.9521 90.1789 64.5903 90.2101 63.1643C90.3216 61.7395 90.1859 60.2906 90.3361 58.8416C90.639 56.0536 91.8995 53.4571 93.9029 51.4948C95.689 49.7528 97.9909 48.6359 100.465 48.3109C102.55 48.0179 104.675 48.2838 106.624 49.0814L106.353 49.1929C107.051 47.7974 108.237 46.7074 109.687 46.1301C110.749 45.694 111.903 45.5275 113.045 45.6455C113.756 45.7168 114.447 45.9172 115.085 46.2367C115.307 46.3455 115.514 46.4823 115.701 46.6438C114.866 46.2206 113.958 45.9607 113.026 45.8781C111.926 45.8108 110.825 46.0086 109.818 46.4548C108.469 47.0246 107.375 48.0672 106.74 49.3867L106.653 49.566L106.464 49.4933C104.58 48.7607 102.537 48.5318 100.537 48.8294C98.1849 49.1697 96.003 50.253 94.31 51.9213C92.4183 53.7957 91.232 56.266 90.9516 58.9142C90.8111 60.2857 90.9516 61.7299 90.8401 63.2322C90.7993 64.8161 90.1604 66.3259 89.0519 67.458C88.6444 67.844 88.1516 68.1286 87.6136 68.2885C87.0756 68.4485 86.5074 68.4794 85.9552 68.3788C84.9536 68.1382 83.9876 67.7684 83.0814 67.2787C82.2592 66.8304 81.3502 66.5643 80.4161 66.4985C79.5226 66.5128 78.6563 66.8078 77.9397 67.3417C77.2416 67.8568 76.6665 68.5205 76.2558 69.2847C75.8452 70.049 75.6093 70.8949 75.5651 71.7614C75.4766 73.4011 75.7291 75.0413 76.3065 76.5785L76.4422 76.9565H76.04C74.7993 76.8979 73.5632 77.1463 72.4414 77.6797C71.3197 78.2131 70.3468 79.015 69.6092 80.0144C69.0461 80.7918 68.6463 81.6753 68.4339 82.6115C68.2215 83.5476 68.201 84.5171 68.3734 85.4614C68.5779 86.6927 69.0767 87.8565 69.8272 88.8537C70.3361 89.4886 70.6947 89.789 70.6705 89.8181Z" fill="#455A64"/>
<path d="M115.886 48.563C115.915 48.6745 114.916 48.5145 113.7 49.4111C112.484 50.3076 111.388 52.406 111.073 55.1005L111.049 55.3282H110.817C109.478 55.2411 108.138 55.4648 106.9 55.9819C105.663 56.4989 104.562 57.2953 103.683 58.3086C103.194 58.8855 102.806 59.5409 102.534 60.2471C102.302 61.0126 102.14 61.7977 102.05 62.5926C101.948 63.4477 101.786 64.2947 101.565 65.1271C101.325 66.0395 100.788 66.8459 100.039 67.4194C98.4298 68.6745 96.4526 68.8732 94.708 69.164C93.0341 69.3105 91.3963 69.7346 89.8618 70.4191C87.2942 71.6498 85.29 73.8099 84.2548 76.4623C83.5733 78.2628 83.3453 80.2034 83.5909 82.1129C83.7654 83.4698 84.0755 84.187 83.9932 84.2064C83.888 84.0502 83.8079 83.8785 83.7557 83.6976C83.5791 83.1939 83.443 82.677 83.3486 82.1517C82.9981 80.1946 83.1651 78.1798 83.8332 76.3072C84.8506 73.4928 86.9195 71.1824 89.605 69.8618C91.1868 69.1373 92.879 68.6835 94.611 68.5194C96.3363 68.2432 98.2117 68.0009 99.6171 66.8911C101.003 65.9219 101.153 64.0804 101.42 62.4666C101.525 61.633 101.705 60.8107 101.958 60.0096C102.262 59.2416 102.691 58.5292 103.227 57.9015C104.172 56.8296 105.354 55.9938 106.679 55.461C108.005 54.9283 109.437 54.7136 110.86 54.8339L110.603 55.0472C110.991 52.2412 112.173 50.0702 113.55 49.1882C114.056 48.8397 114.64 48.6217 115.251 48.5533C115.462 48.5246 115.676 48.5278 115.886 48.563Z" fill="#455A64"/>
<path d="M99.171 74.4606C100.552 71.7565 98.6864 68.3497 95.6575 68.3545C93.9856 68.3545 92.1925 69.2656 90.6999 72.1248C86.7212 79.7526 95.202 82.1757 95.328 81.9625C95.4055 81.8316 97.5524 77.6349 99.171 74.4606Z" fill="#EF9D78"/>
<path d="M94.5038 77.8579C94.5038 77.8143 94.3245 77.8821 94.0192 77.8579C93.6348 77.8319 93.2753 77.6582 93.016 77.3733C92.3667 76.6561 92.3521 75.0229 93.016 73.6321C93.3337 72.9655 93.7995 72.3804 94.3778 71.9214C94.5749 71.7228 94.8171 71.575 95.0839 71.4906C95.3506 71.4062 95.6338 71.3877 95.9092 71.4368C96.0834 71.4762 96.2383 71.5753 96.3472 71.7169C96.456 71.8585 96.5119 72.0337 96.5053 72.2121C96.5053 72.4787 96.3696 72.6047 96.3986 72.6386C96.4277 72.6725 96.6313 72.595 96.733 72.2509C96.7996 72.0437 96.7945 71.82 96.7185 71.6161C96.6558 71.4829 96.5674 71.3635 96.4585 71.2645C96.3496 71.1656 96.2222 71.0891 96.0837 71.0394C95.7382 70.9371 95.3723 70.9253 95.021 71.0051C94.6697 71.0849 94.3448 71.2535 94.0773 71.4949C93.4097 71.9875 92.871 72.6343 92.5072 73.3801C91.756 74.9454 91.7948 76.7724 92.7301 77.6883C92.9041 77.8534 93.1127 77.9777 93.3407 78.0523C93.5686 78.1269 93.8103 78.1499 94.0483 78.1196C94.3972 78.0324 94.5232 77.887 94.5038 77.8579Z" fill="#D37A57"/>
<path d="M91.5727 180.407C90.8942 179.157 89.1496 178.386 89.1496 178.386L87.6958 174.824C88.0436 173.925 88.0436 172.928 87.6958 172.028C87.1191 170.487 82.8787 161.536 82.9756 161.246L81.8804 161.183C81.8804 161.183 85.7864 170.657 86.1693 171.141C86.5521 171.626 87.1385 174.442 86.1693 174.824C85.2 175.207 83.1598 174.17 82.2923 173.303C81.4249 172.435 78.6674 165.917 78.1877 164.58C77.7079 163.242 78.5608 161.357 78.5608 161.357L79.3313 159.53H78.304C77.8818 160.76 77.5275 162.012 77.2427 163.281C76.8598 165.113 81.1923 173.104 81.8659 173.972C82.5395 174.839 84.8511 175.513 86.1014 176.395C87.3517 177.277 87.1627 179.961 87.1627 179.961C86.5109 180.903 86.1121 181.996 86.0045 183.136C85.9076 184.871 89.7602 193.056 92.3578 194.766C94.9553 196.477 98.0423 195.251 98.3282 195.348C98.6142 195.445 99.2975 193.996 99.2975 193.996C99.2975 193.996 92.2463 181.658 91.5727 180.407ZM95.1201 194.708C93.7017 194.517 92.4163 193.773 91.5436 192.639C91.2286 192.222 87.8557 186.339 87.4196 185.263C86.6636 183.359 87.1869 182.302 87.4632 181.187C87.8654 179.564 90.3709 180.514 90.3709 180.514C90.3709 180.514 97.7467 193.259 97.5771 193.647C97.4075 194.035 96.5061 194.829 95.1201 194.708Z" fill="#263238"/>
<path d="M99.2728 193.981C99.2728 193.981 120.746 185.811 121.749 184.885C122.752 183.96 126.377 178.638 126.377 178.638C126.377 178.638 128.151 178.944 127.918 179.409C127.686 179.874 124.293 185.195 120.649 186.736C117.005 188.277 98.2891 195.333 98.2891 195.333L99.2728 193.981Z" fill="#263238"/>
<path d="M31.3198 126.644L22.4755 177.655C22.4755 177.655 19.2189 187.579 19.6842 189.77C20.1494 191.96 21.7922 201.304 26.7547 204.25C31.7171 207.197 41.5451 205.273 43.5611 203.281C45.5771 201.289 49.5509 197.572 50.0162 195.866C50.4814 194.161 53.7429 168.243 53.7429 168.243L55.0368 160.974C55.0368 160.974 50.2294 162.525 47.283 160.49C44.3365 158.454 40.4596 149.789 40.4596 149.789L36.1417 156.424L31.3198 126.644Z" fill="#ED1C24"/>
<path d="M40.4587 149.741C40.4153 149.842 40.36 149.938 40.294 150.027L39.7657 150.826C39.3102 151.514 38.6511 152.518 37.8612 153.768C36.2717 156.268 34.1491 159.763 31.8277 163.644C29.5064 167.526 27.4178 171.04 25.8525 173.564C25.0771 174.824 24.4374 175.837 23.9867 176.535C23.7686 176.86 23.5893 177.126 23.4585 177.33C23.3992 177.424 23.3328 177.513 23.2598 177.596C23.2985 177.492 23.3506 177.392 23.4148 177.301L23.8995 176.482L25.7022 173.472L31.6097 163.513C33.931 159.637 36.0827 156.147 37.711 153.671C38.5251 152.43 39.2036 151.442 39.6882 150.763L40.2504 149.993C40.3121 149.903 40.3819 149.818 40.4587 149.741Z" fill="#263238"/>
<path d="M53.9269 167.163C53.8729 167.238 53.8112 167.308 53.7428 167.371C53.6119 167.502 53.4374 167.71 53.1757 167.938C52.4476 168.609 51.6226 169.166 50.7284 169.591C50.1124 169.881 49.4605 170.088 48.79 170.206C48.0132 170.353 47.2178 170.372 46.4348 170.264C45.5711 170.153 44.7265 169.925 43.9245 169.586C43.0734 169.218 42.2616 168.765 41.5014 168.234C40.7522 167.679 40.0649 167.046 39.4515 166.344C37.9344 164.553 36.9178 162.393 36.505 160.083C36.3246 159.113 36.2579 158.126 36.3063 157.141C36.3063 156.792 36.3645 156.526 36.379 156.341C36.3875 156.248 36.4037 156.156 36.4275 156.065C36.4457 156.425 36.4457 156.786 36.4275 157.146C36.419 158.122 36.5116 159.096 36.7037 160.054C36.9865 161.472 37.4902 162.838 38.1963 164.1C38.617 164.837 39.1036 165.535 39.6502 166.184C40.2561 166.869 40.9317 167.49 41.6662 168.035C42.4146 168.556 43.2134 169.001 44.0505 169.363C44.8247 169.695 45.6395 169.923 46.4735 170.041C47.2275 170.142 47.9925 170.126 48.7415 169.993C49.4095 169.886 50.0609 169.694 50.68 169.421C51.5667 169.017 52.3922 168.49 53.1321 167.856C53.6361 167.415 53.9124 167.143 53.9269 167.163Z" fill="#263238"/>
<path d="M40.459 149.741L47.0788 145.486C47.0788 145.486 64.7188 138.318 66.5119 137.906C68.3049 137.495 70.3888 136.666 71.358 137.906C72.3272 139.147 82.383 146.45 82.383 146.45C82.383 146.45 88.3098 157.596 88.3098 159.133C88.3098 160.669 89.9623 162.588 88.3098 163.136L86.6379 163.693C86.6379 163.693 86.0854 166.397 84.0161 166.697C81.9468 166.998 81.2587 166.697 81.2587 166.697C81.2587 166.697 81.123 169.402 79.4704 169.237C77.8179 169.072 75.0605 166.697 75.0605 166.697C75.0605 166.697 73.8198 168.103 72.8555 168.103C71.8911 168.103 68.8574 166.038 68.8574 166.038L62.9936 160.935L57.8276 159.147L55.041 160.906C55.041 160.906 49.0803 161.415 48.1837 160.906C47.2872 160.397 40.459 149.741 40.459 149.741Z" fill="#EF9D78"/>
<path d="M74.3391 167.163C74.2151 166.91 74.1129 166.648 74.0338 166.378C73.9466 166.126 73.8351 165.816 73.6849 165.462C73.5346 165.108 73.3892 164.701 73.176 164.27C72.9628 163.838 72.7544 163.354 72.483 162.864C72.2116 162.375 71.9063 161.847 71.5816 161.299C70.8464 160.136 70.0251 159.03 69.1246 157.989C68.2081 156.963 67.2185 156.004 66.1636 155.12C65.679 154.728 65.1944 154.34 64.7098 154.025C64.2252 153.71 63.8133 153.405 63.4062 153.153C62.9991 152.901 62.6163 152.668 62.2867 152.494C61.9572 152.319 61.6664 152.145 61.4241 152.009C61.1689 151.893 60.9227 151.759 60.6875 151.607C60.9565 151.688 61.2176 151.794 61.4677 151.922C61.7706 152.048 62.0667 152.19 62.3546 152.348C62.6938 152.527 63.0863 152.721 63.4983 152.978C63.9102 153.235 64.3657 153.502 64.831 153.836C65.2962 154.17 65.8002 154.529 66.2848 154.921C68.453 156.671 70.3038 158.781 71.7561 161.158C72.0808 161.711 72.3958 162.229 72.6429 162.748C72.8901 163.267 73.1276 163.717 73.3166 164.202C73.5056 164.686 73.6606 165.06 73.8012 165.418C73.9417 165.777 74.0338 166.092 74.1065 166.354C74.2051 166.617 74.2829 166.887 74.3391 167.163Z" fill="#D37A57"/>
<path d="M81.2488 166.993C81.2488 166.993 81.1907 166.925 81.0986 166.78C81.0065 166.635 80.8708 166.426 80.7206 166.14C80.2993 165.332 79.9396 164.493 79.6447 163.63C79.2619 162.544 78.8887 161.207 78.4526 159.753C78.017 158.173 77.3921 156.652 76.5917 155.222C75.743 153.821 74.6146 152.61 73.2769 151.665C72.0557 150.778 70.8781 150.061 69.9815 149.324C69.2534 148.769 68.6215 148.097 68.1109 147.337C67.9779 147.127 67.8612 146.906 67.762 146.678C67.7198 146.602 67.6888 146.521 67.6699 146.436C67.6942 146.436 67.8298 146.756 68.1933 147.284C68.7264 148.01 69.367 148.65 70.093 149.184C70.9944 149.891 72.172 150.589 73.4126 151.481C74.7856 152.431 75.9418 153.662 76.8049 155.091C77.6173 156.539 78.2457 158.082 78.6755 159.685C79.102 161.139 79.4557 162.467 79.8144 163.562C80.0851 164.421 80.4088 165.263 80.7836 166.082C80.9554 166.377 81.1107 166.681 81.2488 166.993Z" fill="#D37A57"/>
<path d="M86.222 163.795C86.1854 163.719 86.1593 163.64 86.1444 163.557C86.1008 163.368 86.0475 163.14 85.9796 162.859C85.9118 162.578 85.8294 162.186 85.7083 161.764C85.5871 161.343 85.4708 160.848 85.2818 160.31C85.0928 159.772 84.9232 159.21 84.676 158.604C84.4289 157.999 84.1575 157.359 83.8619 156.69C82.5116 153.809 80.7123 151.161 78.5311 148.844C78.0174 148.321 77.5377 147.812 77.0482 147.391C76.5587 146.969 76.1129 146.552 75.6816 146.198C75.2503 145.845 74.8529 145.549 74.504 145.278C74.1551 145.006 73.8449 144.793 73.5881 144.619L72.9968 144.211C72.866 144.115 72.7981 144.061 72.803 144.052C72.8814 144.082 72.9562 144.121 73.0259 144.168L73.6414 144.541C73.9079 144.701 74.2277 144.904 74.5864 145.166C74.945 145.428 75.3666 145.704 75.7979 146.063C76.2292 146.421 76.709 146.79 77.1887 147.24C77.6685 147.691 78.158 148.171 78.6959 148.694C79.7963 149.86 80.8072 151.108 81.7199 152.426C82.6106 153.756 83.3979 155.152 84.0751 156.603C84.3707 157.281 84.6615 157.921 84.8747 158.541C85.088 159.162 85.2963 159.734 85.4563 160.272C85.6162 160.809 85.7373 161.294 85.8488 161.725C85.9449 162.091 86.0226 162.462 86.0814 162.835C86.1299 163.116 86.1686 163.354 86.2026 163.543C86.2213 163.625 86.2278 163.71 86.222 163.795Z" fill="#D37A57"/>
<path d="M60.2561 144.982C60.2561 145.021 59.9121 145.074 59.4032 145.297C58.7393 145.575 58.1606 146.023 57.7257 146.597C57.2909 147.171 57.0153 147.849 56.9268 148.563C56.8542 149.116 56.8978 149.465 56.859 149.469C56.742 149.178 56.7052 148.86 56.7524 148.549C56.7947 147.786 57.0635 147.053 57.5245 146.443C57.9854 145.834 58.6176 145.376 59.3402 145.127C59.6281 145.001 59.9434 144.951 60.2561 144.982Z" fill="#D37A57"/>
<path d="M65.1701 140.31C65.2089 140.378 64.356 140.916 63.5127 141.817C62.6695 142.719 62.1655 143.591 62.0977 143.557C62.677 142.127 63.7741 140.968 65.1701 140.31Z" fill="#D37A57"/>
<path d="M134.33 82.7622C133.492 83.1112 133.322 84.1143 133.337 85.0205C133.337 86.1545 133.637 86.3387 134.563 88.2384C136.08 91.3448 137.892 97.2377 137.892 97.2377C137.892 97.2377 136.404 112.115 137.408 115.609C137.681 116.536 138.178 117.381 138.853 118.071C139.529 118.762 140.364 119.276 141.284 119.569L139.928 131.059H156.157C156.157 131.059 155.581 119.913 155.232 116.521C154.863 112.934 155.106 91.2478 155.106 91.2478L153.511 79.6704L149.756 73.1669C149.186 73.5394 148.763 74.0986 148.561 74.7485C148.358 75.3984 148.388 76.0986 148.646 76.7288C149.494 79.1082 150.051 83.6782 150.051 83.6782L140.654 69.5371C140.654 69.5371 138.808 69.9781 138.716 73.414C138.716 73.414 135.983 75.1926 137.747 78.0809C139.646 81.3084 141.692 91.0007 140.974 91.0007L135.159 82.4375L134.33 82.7622Z" fill="#EF9D78"/>
<path d="M139.887 131.059C139.887 131.059 139.887 130.802 139.96 130.298C140.033 129.794 140.1 129.043 140.207 128.074C140.43 126.111 140.759 123.228 141.176 119.559L141.22 119.627C140.464 119.383 139.763 118.994 139.155 118.483C138.486 117.929 137.956 117.228 137.605 116.433C137.256 115.571 137.062 114.654 137.033 113.724C136.978 112.755 136.955 111.77 136.965 110.768C137.009 106.707 137.324 102.161 137.784 97.228V97.2668C137.023 94.8728 136.18 92.3479 135.123 89.7892C134.857 89.1495 134.576 88.5146 134.256 87.8846C133.901 87.261 133.59 86.6133 133.325 85.9462C133.236 85.5833 133.197 85.2099 133.209 84.8364C133.209 84.4588 133.265 84.0833 133.374 83.7218C133.481 83.3387 133.721 83.0068 134.052 82.7865C134.218 82.6909 134.391 82.6098 134.571 82.5442L135.085 82.331L135.172 82.297L135.225 82.3746L141.302 91.2866L141.079 91.3351C141.159 90.5887 141.149 89.8354 141.05 89.0913C140.966 88.3283 140.837 87.571 140.663 86.8233C140.311 85.2941 139.858 83.79 139.306 82.3213C138.773 80.8238 138.099 79.37 137.445 77.8725C137.097 77.0991 137.005 76.2349 137.183 75.4058C137.382 74.5657 137.873 73.8236 138.569 73.3123L138.516 73.4044C138.595 72.6572 138.767 71.923 139.029 71.2187C139.174 70.8511 139.366 70.504 139.601 70.1865C139.84 69.8431 140.178 69.581 140.57 69.4354L140.648 69.4111L140.701 69.4887L140.813 69.6534L150.098 83.6346L149.87 83.717C149.644 81.8534 149.312 80.004 148.877 78.1778C148.765 77.7271 148.639 77.2861 148.494 76.8548C148.329 76.4084 148.25 75.9349 148.261 75.4591C148.288 74.9843 148.426 74.5224 148.664 74.1107C148.903 73.6991 149.234 73.3492 149.633 73.0894L149.734 73.0215L149.797 73.133L153.553 79.6365C154.106 83.6879 154.634 87.5486 155.138 91.2188C155.07 97.2183 155.036 102.709 155.046 107.565C155.046 109.988 155.046 112.266 155.119 114.349C155.148 115.396 155.206 116.395 155.303 117.354C155.4 118.314 155.443 119.23 155.501 120.097C155.729 123.567 155.865 126.29 155.962 128.146C156.005 129.072 156.039 129.78 156.059 130.264C156.078 130.749 156.083 130.991 156.083 130.991C156.083 130.991 156.059 130.744 156.03 130.264C156.001 129.784 155.952 129.072 155.899 128.151C155.782 126.295 155.623 123.572 155.38 120.102C155.317 119.234 155.254 118.323 155.172 117.364C155.089 116.404 155.002 115.401 154.973 114.354C154.905 112.251 154.886 109.993 154.871 107.57C154.847 102.724 154.871 97.2232 154.93 91.2236C154.422 87.56 153.888 83.7008 153.325 79.6462V79.685L149.56 73.1911L149.725 73.2347C149.362 73.4753 149.06 73.7965 148.843 74.1731C148.625 74.5497 148.497 74.9716 148.47 75.4058C148.465 75.8518 148.54 76.295 148.693 76.7143C148.844 77.1537 148.975 77.5995 149.085 78.0518C149.523 79.8894 149.858 81.75 150.088 83.6249L150.156 84.1531L149.86 83.7073L140.57 69.731L140.464 69.5662L140.595 69.6195C140.262 69.7544 139.975 69.9835 139.771 70.2786C139.55 70.5761 139.371 70.9022 139.238 71.2478C138.989 71.9325 138.826 72.6455 138.753 73.3704V73.4237L138.705 73.4625C138.062 73.9372 137.607 74.6237 137.42 75.401C137.258 76.1804 137.347 76.9911 137.672 77.7174C138.317 79.1955 139 80.6687 139.533 82.171C140.089 83.6509 140.546 85.1663 140.9 86.707C141.082 87.4832 141.216 88.2697 141.302 89.0623C141.404 89.8289 141.414 90.6049 141.331 91.3739L141.288 91.684L141.108 91.4223C139.01 88.3305 136.965 85.3259 135.036 82.4909L135.177 82.5297C134.842 82.6799 134.459 82.8059 134.174 82.9658C133.887 83.1573 133.68 83.4468 133.592 83.78C133.489 84.1194 133.437 84.4721 133.437 84.8267C133.425 85.1773 133.461 85.5278 133.544 85.8687C133.803 86.5349 134.107 87.1825 134.455 87.8071C134.774 88.442 135.06 89.0865 135.327 89.7456C136.383 92.3189 137.222 94.8437 137.978 97.2474V97.2862C137.493 102.215 137.183 106.756 137.125 110.812C137.125 111.823 137.144 112.804 137.183 113.753C137.206 114.666 137.391 115.567 137.731 116.414C138.066 117.152 138.551 117.811 139.157 118.35C139.762 118.89 140.473 119.296 141.244 119.545H141.297V119.593C140.847 123.271 140.498 126.14 140.26 128.098L139.984 130.322C139.931 130.802 139.887 131.059 139.887 131.059Z" fill="#D37A57"/>
<path d="M147.059 92.2363C146.979 91.9752 146.92 91.7077 146.885 91.4367C146.793 90.9181 146.638 90.1718 146.429 89.2511C145.863 86.8667 145.06 84.5451 144.031 82.3211C142.979 80.103 141.756 77.9707 140.372 75.9435C139.848 75.1633 139.403 74.5382 139.107 74.1069C138.941 73.8878 138.791 73.6579 138.656 73.4187C138.85 73.6132 139.027 73.8239 139.184 74.0487C139.514 74.4606 139.974 75.0712 140.522 75.8418C141.957 77.8492 143.207 79.982 144.258 82.2145C145.299 84.4522 146.086 86.7994 146.604 89.2123C146.788 90.1379 146.924 90.8939 146.982 91.4221C147.032 91.6907 147.058 91.9631 147.059 92.2363Z" fill="#D37A57"/>
<path d="M152.1 88.626C151.629 87.8236 151.231 86.9802 150.913 86.106C150.508 85.2676 150.184 84.393 149.943 83.4939C150.411 84.2956 150.807 85.1373 151.126 86.009C151.528 86.8505 151.854 87.7263 152.1 88.626Z" fill="#D37A57"/>
<path d="M138.595 126.3C135.745 151.442 132.038 178.202 127.773 206H160.81C167.022 192.246 163.233 180.247 161.566 163.145L156.119 124.313L138.595 126.3Z" fill="#ED1C24"/>
<path d="M127.772 206C127.766 205.947 127.766 205.893 127.772 205.84L127.83 205.355C127.893 204.924 127.975 204.309 128.082 203.528C128.314 201.924 128.649 199.651 129.051 196.802C129.885 191.113 131.038 183.281 132.308 174.626C133.577 165.971 134.61 158.11 135.303 152.416C135.656 149.566 135.923 147.265 136.102 145.67C136.194 144.885 136.267 144.27 136.32 143.833L136.378 143.349C136.385 143.295 136.396 143.241 136.412 143.189C136.412 143.189 136.412 143.242 136.412 143.349L136.374 143.833C136.335 144.27 136.277 144.89 136.204 145.675C136.054 147.269 135.816 149.581 135.482 152.431C134.837 158.13 133.81 166 132.574 174.66C131.338 183.32 130.122 191.137 129.24 196.826C128.799 199.647 128.436 201.934 128.184 203.538C128.058 204.313 127.956 204.924 127.888 205.36C127.854 205.554 127.825 205.714 127.806 205.845C127.799 205.897 127.787 205.949 127.772 206Z" fill="#263238"/>
<path d="M199.349 205.782H105.145L117.299 139.666C117.508 138.532 118.107 137.507 118.992 136.768C119.877 136.029 120.992 135.623 122.145 135.619H206.807C207.534 135.621 208.251 135.782 208.908 136.093C209.566 136.403 210.146 136.855 210.609 137.415C211.072 137.975 211.405 138.631 211.586 139.335C211.766 140.039 211.789 140.774 211.653 141.488L199.349 205.782Z" fill="#455A64"/>
<path d="M105.146 205.782H69.4102L69.5555 205.675C72.7428 203.281 76.591 201.927 80.5757 201.799L106.125 201.047L105.146 205.782Z" fill="#455A64"/>
<path d="M127.773 135.707C127.773 135.731 127.511 135.658 127.012 135.653C126.283 135.664 125.566 135.843 124.918 136.177C123.892 136.698 123.024 137.487 122.408 138.459C121.629 139.774 121.106 141.224 120.867 142.734C120.562 144.405 120.29 146.262 119.956 148.244C119.621 150.226 119.253 152.339 118.836 154.544C118.017 158.987 117.043 163.863 115.987 168.966C113.859 179.177 111.887 188.408 110.603 195.135C109.953 198.488 109.454 201.207 109.115 203.087C108.945 204.008 108.815 204.73 108.722 205.249C108.674 205.481 108.64 205.666 108.611 205.811C108.601 205.875 108.585 205.939 108.562 206C108.562 206 108.562 205.937 108.562 205.806C108.562 205.675 108.611 205.472 108.64 205.239C108.722 204.716 108.829 203.989 108.97 203.063C109.265 201.178 109.73 198.45 110.346 195.086C111.572 188.365 113.506 179.118 115.633 168.917C116.689 163.814 117.668 158.949 118.507 154.51C118.933 152.295 119.306 150.182 119.66 148.21C120.014 146.237 120.29 144.386 120.629 142.7C120.886 141.165 121.436 139.694 122.248 138.367C122.894 137.376 123.799 136.58 124.865 136.065C125.531 135.729 126.27 135.563 127.017 135.581C127.273 135.586 127.528 135.629 127.773 135.707Z" fill="#263238"/>
<path d="M167.558 169.213C167.558 170.114 167.291 170.995 166.79 171.744C166.29 172.493 165.578 173.077 164.746 173.421C163.914 173.766 162.998 173.856 162.114 173.681C161.23 173.505 160.419 173.071 159.782 172.434C159.144 171.797 158.711 170.985 158.535 170.102C158.359 169.218 158.449 168.302 158.794 167.47C159.139 166.637 159.723 165.926 160.472 165.425C161.221 164.925 162.102 164.657 163.003 164.657C164.211 164.657 165.369 165.137 166.224 165.992C167.078 166.846 167.558 168.005 167.558 169.213Z" fill="#F5F5F5"/>
<path d="M222.534 205.855C222.534 205.922 172.924 205.981 111.747 205.981C50.5689 205.981 0.949219 205.927 0.949219 205.855C0.949219 205.782 50.5447 205.729 111.747 205.729C172.949 205.729 222.534 205.787 222.534 205.855Z" fill="#263238"/>
<path d="M91.184 32.2706L89.8901 20.1019L83.6822 21.5025L78.332 12.0525L81.6662 24.8269L87.9613 23.3828L91.184 32.2706Z" fill="#ED1C24"/>
<path d="M88.654 34.5676L82.887 28.6311L80.1684 31.9701L73.3789 29.1739L80.4834 34.5822L83.2311 31.185L88.654 34.5676Z" fill="#ED1C24"/>
<path d="M150.994 39.8159L156.238 30.2787L160.846 33.5595L168.479 27.6472L161.36 36.9809L156.688 33.6371L150.994 39.8159Z" fill="#ED1C24"/>
<path d="M160.615 45.2584L166.038 42.9468L166.906 45.8835L172.135 45.9175L165.98 47.5118L165.108 44.5266L160.615 45.2584Z" fill="#ED1C24"/>
<path d="M123 8.20455C123 8.20455 123.218 8.06401 123.654 7.80232C124.305 7.42205 124.98 7.08375 125.675 6.78948C128.379 5.63092 131.309 5.09593 134.248 5.22417C134.742 5.23904 135.235 5.27947 135.726 5.34533C136.246 5.39558 136.762 5.4896 137.267 5.6264C137.801 5.76545 138.314 5.974 138.793 6.24671C139.305 6.53155 139.734 6.94392 140.039 7.44371C140.346 7.98057 140.453 8.60925 140.339 9.2174C140.197 9.84274 139.887 10.4175 139.443 10.8796C138.497 11.8323 137.332 12.5394 136.05 12.9392C133.252 13.9684 130.268 14.3961 127.293 14.1944C123.927 13.9877 120.657 12.9916 117.746 11.2867L117.679 11.2431L117.722 11.1752C118.965 9.21988 120.7 7.62553 122.753 6.55202C124.925 5.40243 127.313 4.71908 129.765 4.54571C132.348 4.38297 134.942 4.59352 137.465 5.17086C138.764 5.44709 140.063 5.79117 141.342 6.1934C142.677 6.55504 143.976 7.04181 145.219 7.64725C146.506 8.278 147.584 9.26546 148.326 10.4919C148.693 11.1231 148.923 11.8251 148.999 12.5515C149.066 13.2908 148.942 14.0347 148.641 14.7129C147.96 16.0487 146.853 17.1196 145.495 17.7563C144.15 18.4326 142.723 18.9326 141.25 19.2441C135.13 20.7302 128.763 20.8954 122.573 19.7287C122.171 19.6608 121.778 19.5639 121.376 19.4815C120.974 19.3992 120.581 19.3071 120.184 19.2053C119.38 19.0253 118.591 18.7839 117.824 18.4832C117.043 18.1772 116.316 17.7504 115.667 17.2184C114.994 16.6744 114.532 15.9112 114.364 15.0619C114.221 14.1973 114.415 13.311 114.907 12.5855C115.39 11.8744 116.003 11.2611 116.714 10.7779C117.42 10.2919 118.169 9.87333 118.953 9.52755C119.331 9.3337 119.729 9.16409 120.121 8.99932C120.514 8.83455 120.911 8.66494 121.318 8.51471C124.59 7.28632 128.049 6.63058 131.543 6.57625C133.318 6.5467 135.092 6.66992 136.845 6.94455C137.286 7.0124 137.727 7.08509 138.168 7.18686C138.609 7.28863 139.045 7.36132 139.477 7.48248C140.357 7.68321 141.219 7.96216 142.05 8.31601C142.896 8.6656 143.682 9.14822 144.376 9.74563C145.088 10.3513 145.596 11.162 145.83 12.0669L145.903 12.411L145.932 12.7648C145.949 12.9987 145.949 13.2335 145.932 13.4675C145.87 13.9326 145.733 14.3845 145.525 14.805C145.098 15.6381 144.5 16.3714 143.77 16.9567C143.056 17.5532 142.276 18.0654 141.444 18.4832C141.032 18.7013 140.606 18.8855 140.179 19.0648C139.753 19.2441 139.326 19.4282 138.89 19.593C137.152 20.264 135.367 20.8066 133.55 21.2165C129.862 22.0702 126.07 22.3837 122.292 22.1469C120.361 22.0755 118.47 21.5791 116.753 20.6931C115.884 20.2333 115.14 19.5678 114.587 18.7546C114.057 17.9105 113.812 16.9183 113.889 15.9245C113.961 15.1193 114.222 14.3424 114.65 13.6565C115.08 12.982 115.606 12.3732 116.21 11.8489C117.413 10.8239 118.777 10.0051 120.247 9.42578C123.121 8.20659 126.176 7.46978 129.29 7.24501C130.826 7.13268 132.369 7.14403 133.904 7.27894C134.669 7.34679 135.43 7.44371 136.186 7.57455C136.946 7.69061 137.694 7.87718 138.42 8.13186C139.152 8.37165 139.844 8.71782 140.475 9.15924C141.126 9.59328 141.64 10.2033 141.958 10.9184C142.265 11.6455 142.291 12.4607 142.031 13.2058C141.772 13.9342 141.329 14.5835 140.746 15.0909C139.583 16.1183 138.081 16.5448 136.651 16.8985C135.222 17.2523 133.778 17.5818 132.343 17.8968C129.508 18.5561 126.631 19.0176 123.731 19.278C120.88 19.5371 118.006 19.4001 115.193 18.8709C112.431 18.3509 109.804 17.2777 107.468 15.7161L107.342 15.6337L107.453 15.5319C111.395 12.1305 116.238 9.94253 121.396 9.23194C126.289 8.47591 131.295 9.10198 135.852 11.0395C136.395 11.2974 136.903 11.6231 137.364 12.0088C137.834 12.3942 138.196 12.8952 138.415 13.4626C138.608 14.0507 138.577 14.6891 138.328 15.2557C138.066 15.7974 137.673 16.2654 137.184 16.6175C136.224 17.2699 135.163 17.7609 134.044 18.0713C132.963 18.4179 131.856 18.6804 130.734 18.8564C128.541 19.198 126.308 19.198 124.114 18.8564C123.566 18.8061 123.039 18.6177 122.583 18.3088C122.363 18.1267 122.195 17.8893 122.097 17.621C121.999 17.3528 121.975 17.0632 122.026 16.7822C122.169 16.2461 122.469 15.7651 122.888 15.4011C123.279 15.0357 123.72 14.7273 124.197 14.4852C127.888 12.8338 131.952 12.19 135.973 12.6194C136.93 12.7072 137.87 12.9241 138.769 13.2639C139.663 13.5916 140.448 14.1643 141.032 14.9165C141.604 15.6647 141.874 16.6004 141.788 17.5382C141.643 18.4413 141.157 19.2546 140.431 19.8111C139.757 20.3468 139.033 20.8174 138.27 21.2165C137.527 21.625 136.76 21.9875 135.973 22.302C134.474 22.8999 132.914 23.3306 131.321 23.5862C128.418 24.058 125.449 23.9293 122.597 23.2082H122.505L122.559 23.1355C123.783 21.4786 125.469 20.2195 127.405 19.5155C129.093 18.8811 130.917 18.7007 132.697 18.9921C133.497 19.1026 134.262 19.3908 134.936 19.8353C135.248 20.0505 135.516 20.3236 135.726 20.6398C135.921 20.9492 136.043 21.2988 136.084 21.6623C136.136 22.3416 135.947 23.0173 135.551 23.5717C135.211 24.0707 134.788 24.5083 134.301 24.8656C133.473 25.4223 132.571 25.8596 131.621 26.1644C130.951 26.4055 130.3 26.6955 129.673 27.0318C129.292 27.2428 128.937 27.4982 128.616 27.7927C128.51 27.8896 128.437 27.972 128.384 28.0253L128.306 28.1028C128.401 27.9895 128.501 27.8811 128.607 27.7781C128.923 27.4781 129.274 27.2177 129.653 27.0028C130.276 26.657 130.924 26.3589 131.592 26.1111C132.534 25.7978 133.429 25.3576 134.252 24.8026C134.732 24.4483 135.147 24.0138 135.479 23.5184C135.864 22.98 136.046 22.3223 135.992 21.6623C135.952 21.3166 135.833 20.9848 135.643 20.6931C135.441 20.3839 135.179 20.1185 134.873 19.9128C134.21 19.4783 133.458 19.1984 132.673 19.0938C130.91 18.8089 129.104 18.9911 127.434 19.6221C125.52 20.3233 123.855 21.5722 122.646 23.2131L122.612 23.1161C125.446 23.8247 128.394 23.9467 131.277 23.4748C132.87 23.2165 134.43 22.7842 135.929 22.1857C136.705 21.875 137.463 21.519 138.197 21.1195C138.956 20.7208 139.675 20.2502 140.344 19.7142C141.036 19.181 141.5 18.4051 141.643 17.5431C141.713 16.6488 141.446 15.7607 140.897 15.0522C140.336 14.3238 139.582 13.7679 138.721 13.4481C137.839 13.1059 136.914 12.8874 135.973 12.7987C131.977 12.3642 127.937 13.0015 124.269 14.6451C123.809 14.877 123.385 15.1741 123.009 15.5271C122.626 15.8682 122.351 16.3149 122.219 16.8113C122.174 17.0572 122.195 17.3108 122.28 17.5459C122.365 17.781 122.512 17.9892 122.704 18.1488C123.131 18.4631 123.632 18.6617 124.158 18.7255C126.329 19.0623 128.539 19.0623 130.71 18.7255C131.822 18.5471 132.919 18.2846 133.991 17.9405C135.09 17.6285 136.129 17.1372 137.068 16.4866C137.527 16.1555 137.896 15.716 138.144 15.2072C138.37 14.6894 138.398 14.1062 138.221 13.5692C138.026 13.0342 137.691 12.5609 137.252 12.1978C136.812 11.8124 136.323 11.4865 135.798 11.2285C131.273 9.29651 126.298 8.6687 121.434 9.41609C116.317 10.1374 111.518 12.3256 107.618 15.7161V15.5271C109.931 17.0665 112.53 18.1245 115.26 18.6383C118.052 19.1651 120.903 19.3021 123.731 19.0454C126.62 18.779 129.486 18.3127 132.309 17.6497C133.763 17.3347 135.178 16.9955 136.613 16.6514C138.047 16.3073 139.52 15.8808 140.601 14.9019C141.145 14.4148 141.554 13.7955 141.788 13.104C142.024 12.413 141.998 11.6594 141.716 10.9862C141.416 10.3159 140.932 9.74452 140.32 9.33855C139.707 8.91333 139.036 8.57873 138.328 8.34509C137.615 8.10032 136.879 7.92346 136.133 7.81686C135.386 7.68601 134.63 7.58909 133.874 7.52125C132.351 7.39038 130.82 7.38065 129.295 7.49217C126.211 7.71569 123.185 8.44594 120.339 9.65355C118.891 10.2219 117.548 11.0277 116.365 12.0379C115.222 13.0555 114.233 14.3979 114.107 15.9487C114.035 16.8864 114.266 17.8224 114.766 18.6189C115.297 19.3964 116.009 20.0333 116.84 20.475C118.525 21.3427 120.379 21.8291 122.273 21.8998C126.028 22.1349 129.797 21.8247 133.463 20.979C135.277 20.5643 137.058 20.0185 138.793 19.3458C139.223 19.1811 139.649 19.0066 140.073 18.8225C140.499 18.6432 140.916 18.459 141.323 18.2458C142.136 17.8358 142.9 17.3351 143.601 16.7532C144.303 16.1892 144.879 15.4843 145.292 14.6838C145.486 14.2871 145.615 13.8616 145.675 13.4239C145.692 13.2045 145.692 12.9841 145.675 12.7648L145.646 12.4352L145.578 12.1105C145.359 11.2556 144.882 10.489 144.211 9.91524C143.535 9.33635 142.771 8.86853 141.948 8.52924C141.129 8.18009 140.281 7.90439 139.414 7.7054C138.982 7.58909 138.546 7.50186 138.11 7.40978C137.674 7.31771 137.243 7.24017 136.802 7.17232C131.618 6.35441 126.312 6.88857 121.396 8.72309C120.993 8.86363 120.601 9.02355 120.208 9.20771C119.816 9.39186 119.428 9.53724 119.05 9.73109C118.278 10.072 117.54 10.4841 116.845 10.962C116.159 11.4263 115.567 12.0167 115.1 12.7018C114.64 13.3782 114.456 14.2055 114.587 15.0134C114.749 15.8088 115.182 16.5232 115.813 17.0342C116.441 17.5511 117.148 17.965 117.906 18.2603C118.663 18.5589 119.443 18.7971 120.237 18.9727C120.63 19.0745 121.022 19.1714 121.42 19.2489C121.817 19.3265 122.21 19.4282 122.607 19.4961C128.766 20.6555 135.102 20.4903 141.192 19.0115C142.648 18.7106 144.059 18.2219 145.389 17.5576C146.673 16.8792 147.87 15.9293 148.452 14.616C148.737 13.9708 148.853 13.2638 148.791 12.5612C148.718 11.8529 148.493 11.1685 148.132 10.5549C147.407 9.364 146.358 8.40415 145.108 7.78778C143.882 7.18728 142.604 6.70062 141.289 6.33394C139.995 5.93171 138.701 5.58763 137.412 5.3114C134.905 4.73495 132.328 4.52277 129.76 4.6814C127.333 4.85568 124.969 5.53578 122.82 6.67802C120.791 7.7336 119.074 9.30464 117.843 11.2334L117.814 11.1219C120.533 12.7262 123.573 13.7101 126.716 14.0033C129.859 14.2965 133.028 13.8918 135.997 12.8181C137.269 12.4265 138.425 11.7293 139.365 10.7876C139.795 10.3406 140.098 9.78679 140.242 9.18347C140.353 8.60052 140.252 7.99718 139.956 7.48248C139.662 6.99643 139.246 6.59554 138.75 6.3194C138.279 6.04819 137.773 5.8412 137.247 5.70394C136.747 5.56708 136.237 5.47145 135.721 5.41802C135.236 5.35017 134.752 5.31625 134.267 5.29202C131.337 5.16213 128.415 5.68693 125.714 6.82825C125.02 7.11201 124.344 7.43562 123.688 7.79748C123.227 8.07855 123 8.20455 123 8.20455Z" fill="#263238"/>
</svg>
