<svg width="21" height="17" viewBox="0 0 21 17" fill="none" xmlns="http://www.w3.org/2000/svg">
<path d="M15.3384 16C15.3384 14.3431 13.0998 13 10.3384 13C7.57695 13 5.33838 14.3431 5.33838 16M19.3384 13.0004C19.3384 11.7702 18.1043 10.7129 16.3384 10.25M1.33838 13.0004C1.33838 11.7702 2.57247 10.7129 4.33838 10.25M16.3384 6.23611C16.9521 5.68679 17.3384 4.8885 17.3384 4C17.3384 2.34315 15.9952 1 14.3384 1C13.57 1 12.8691 1.28885 12.3384 1.76389M4.33838 6.23611C3.72463 5.68679 3.33838 4.8885 3.33838 4C3.33838 2.34315 4.68152 1 6.33838 1C7.10673 1 7.80762 1.28885 8.33838 1.76389M10.3384 10C8.68152 10 7.33838 8.65685 7.33838 7C7.33838 5.34315 8.68152 4 10.3384 4C11.9952 4 13.3384 5.34315 13.3384 7C13.3384 8.65685 11.9952 10 10.3384 10Z" stroke="#192BC2" stroke-width="2" stroke-linecap="round" stroke-linejoin="round"/>
</svg>
