<svg width="17" height="20" viewBox="0 0 17 20" fill="none" xmlns="http://www.w3.org/2000/svg">
<path d="M5.27783 15H11.2778M5.27783 12H11.2778M9.27821 1.00087C9.18267 1 9.07521 1 8.95255 1H4.47803C3.35792 1 2.79745 1 2.36963 1.21799C1.9933 1.40973 1.68757 1.71547 1.49582 2.0918C1.27783 2.51962 1.27783 3.08009 1.27783 4.2002V15.8002C1.27783 16.9203 1.27783 17.4801 1.49582 17.9079C1.68757 18.2842 1.9933 18.5905 2.36963 18.7822C2.79704 19 3.35684 19 4.47477 19L12.0809 19C13.1988 19 13.7578 19 14.1852 18.7822C14.5616 18.5905 14.8683 18.2842 15.0601 17.9079C15.2778 17.4805 15.2778 16.9215 15.2778 15.8036V7.32568C15.2778 7.20302 15.2777 7.09553 15.2769 7M9.27821 1.00087C9.56367 1.00348 9.74355 1.01407 9.91601 1.05547C10.1201 1.10446 10.3157 1.18526 10.4946 1.29492C10.6964 1.41857 10.8696 1.59181 11.2153 1.9375L14.3408 5.06298C14.6867 5.40889 14.8587 5.58136 14.9824 5.78319C15.092 5.96214 15.1732 6.15726 15.2222 6.36133C15.2636 6.53379 15.2743 6.71454 15.2769 7M9.27821 1.00087L9.27783 3.80021C9.27783 4.92031 9.27783 5.48015 9.49582 5.90797C9.68757 6.2843 9.9933 6.59048 10.3696 6.78223C10.797 7 11.3568 7 12.4747 7H15.2769" stroke="#192BC2" stroke-width="2" stroke-linecap="round" stroke-linejoin="round"/>
</svg>
