<svg width="400" height="240" viewBox="0 0 400 240" fill="none" xmlns="http://www.w3.org/2000/svg">
<g clip-path="url(#clip0_164_12512)">
<rect width="400" height="240" fill="url(#paint0_radial_164_12512)"/>
<path d="M449.885 243.536C504.569 243.536 548.899 199.206 548.899 144.523C548.899 89.8391 504.569 45.5093 449.885 45.5093C395.202 45.5093 350.872 89.8391 350.872 144.523C350.872 199.206 395.202 243.536 449.885 243.536Z" fill="url(#paint1_linear_164_12512)"/>
<path d="M247.459 368.811C302.142 368.811 346.472 324.481 346.472 269.797C346.472 215.114 302.142 170.784 247.459 170.784C192.775 170.784 148.445 215.114 148.445 269.797C148.445 324.481 192.775 368.811 247.459 368.811Z" stroke="#F8F0E4" stroke-width="0.555556" stroke-miterlimit="10"/>
<path d="M456.131 108.341C510.814 108.341 555.144 64.0116 555.144 9.32802C555.144 -45.3555 510.814 -89.6853 456.131 -89.6853C401.447 -89.6853 357.117 -45.3555 357.117 9.32802C357.117 64.0116 401.447 108.341 456.131 108.341Z" stroke="#F8F0E4" stroke-width="0.555556" stroke-miterlimit="10"/>
<path d="M272.429 70.1974C286.061 70.1974 297.112 59.1466 297.112 45.5147C297.112 31.8828 286.061 20.832 272.429 20.832C258.797 20.832 247.747 31.8828 247.747 45.5147C247.747 59.1466 258.797 70.1974 272.429 70.1974Z" fill="url(#paint2_linear_164_12512)"/>
<path d="M114.445 198.987C119.182 198.987 123.021 195.147 123.021 190.411C123.021 185.674 119.182 181.835 114.445 181.835C109.709 181.835 105.869 185.674 105.869 190.411C105.869 195.147 109.709 198.987 114.445 198.987Z" fill="url(#paint3_linear_164_12512)"/>
<path d="M357.117 304.571C394.06 304.571 424.008 274.623 424.008 237.68C424.008 200.737 394.06 170.789 357.117 170.789C320.175 170.789 290.227 200.737 290.227 237.68C290.227 274.623 320.175 304.571 357.117 304.571Z" fill="url(#paint4_linear_164_12512)"/>
<path d="M24.0133 190.411C78.6969 190.411 123.027 146.081 123.027 91.3974C123.027 36.7138 78.6969 -7.61597 24.0133 -7.61597C-30.6702 -7.61597 -75 36.7138 -75 91.3974C-75 146.081 -30.6702 190.411 24.0133 190.411Z" fill="url(#paint5_linear_164_12512)"/>
<path d="M24.0132 37.904C60.9559 37.904 90.9039 7.95605 90.9039 -28.9866C90.9039 -65.9293 60.9559 -95.8773 24.0132 -95.8773C-12.9295 -95.8773 -42.8774 -65.9293 -42.8774 -28.9866C-42.8774 7.95605 -12.9295 37.904 24.0132 37.904Z" fill="url(#paint6_linear_164_12512)"/>
<path d="M85.2807 69.1731C85.3105 61.1347 78.8183 54.5942 70.78 54.5645C62.7416 54.5347 56.2011 61.0269 56.1714 69.0652C56.1416 77.1035 62.6338 83.644 70.6721 83.6738C78.7104 83.7036 85.2509 77.2114 85.2807 69.1731Z" stroke="#F8F0E4" stroke-width="0.555556" stroke-miterlimit="10"/>
<path d="M415.379 1.64258L400.008 17.0132" stroke="#F8F0E4" stroke-width="0.555556" stroke-miterlimit="10"/>
<path d="M415.379 17.0132L400.008 1.64258" stroke="#F8F0E4" stroke-width="0.555556" stroke-miterlimit="10"/>
<path d="M415.379 22.5333L400.008 37.904" stroke="#F8F0E4" stroke-width="0.555556" stroke-miterlimit="10"/>
<path d="M415.379 37.904L400.008 22.5333" stroke="#F8F0E4" stroke-width="0.555556" stroke-miterlimit="10"/>
<path d="M33.752 213.051L49.1173 228.421" stroke="#F8F0E4" stroke-width="0.555556" stroke-miterlimit="10"/>
<path d="M49.1173 213.051L33.752 228.421" stroke="#F8F0E4" stroke-width="0.555556" stroke-miterlimit="10"/>
<path d="M54.6426 213.051L70.0132 228.421" stroke="#F8F0E4" stroke-width="0.555556" stroke-miterlimit="10"/>
<path d="M70.0132 213.051L54.6426 228.421" stroke="#F8F0E4" stroke-width="0.555556" stroke-miterlimit="10"/>
<path d="M75.5332 213.051L90.9039 228.421" stroke="#F8F0E4" stroke-width="0.555556" stroke-miterlimit="10"/>
<path d="M90.9039 213.051L75.5332 228.421" stroke="#F8F0E4" stroke-width="0.555556" stroke-miterlimit="10"/>
<g filter="url(#filter0_d_164_12512)">
<rect width="157" height="34.6667" transform="translate(121.5 60)" fill="#FAFAFF"/>
<path d="M145.746 75.0777C145.765 74.6042 145.627 74.2387 145.331 73.9811C145.039 73.7235 144.598 73.5947 144.007 73.5947C143.606 73.5947 143.257 73.6516 142.962 73.7652C142.666 73.875 142.43 74.0284 142.252 74.2254C142.077 74.4186 141.969 74.6421 141.928 74.8959C141.886 75.1042 141.899 75.286 141.967 75.4413C142.039 75.5966 142.151 75.7311 142.303 75.8447C142.458 75.9546 142.642 76.0512 142.854 76.1345C143.066 76.2141 143.291 76.2822 143.53 76.3391L144.53 76.5891C145.019 76.7027 145.458 76.8542 145.848 77.0436C146.242 77.233 146.572 77.4659 146.837 77.7425C147.106 78.019 147.295 78.3447 147.405 78.7197C147.515 79.0947 147.53 79.5247 147.45 80.0095C147.329 80.7216 147.047 81.3391 146.604 81.8618C146.161 82.3807 145.579 82.7841 144.859 83.072C144.14 83.3561 143.306 83.4981 142.359 83.4981C141.42 83.4981 140.627 83.3542 139.979 83.0663C139.331 82.7784 138.859 82.3523 138.564 81.7879C138.272 81.2197 138.185 80.5171 138.303 79.68H140.683C140.642 80.0701 140.699 80.3959 140.854 80.6572C141.013 80.9148 141.25 81.1099 141.564 81.2425C141.878 81.3713 142.248 81.4356 142.672 81.4356C143.092 81.4356 143.466 81.375 143.791 81.2538C144.121 81.1326 144.388 80.9641 144.592 80.7481C144.797 80.5322 144.922 80.2841 144.967 80.0038C145.013 79.7425 144.973 79.5228 144.848 79.3447C144.723 79.1667 144.522 79.0152 144.246 78.8902C143.973 78.7614 143.634 78.6478 143.229 78.5493L142.013 78.2311C141.074 77.9925 140.363 77.6194 139.882 77.1118C139.401 76.6042 139.229 75.9205 139.365 75.0606C139.486 74.3561 139.78 73.7406 140.246 73.2141C140.716 72.6838 141.306 72.2728 142.019 71.9811C142.734 71.6856 143.517 71.5379 144.365 71.5379C145.229 71.5379 145.958 71.6875 146.553 71.9868C147.147 72.2822 147.581 72.6951 147.854 73.2254C148.127 73.7557 148.21 74.3731 148.104 75.0777H145.746ZM148.634 83.3334L150.566 71.697H155.157C156.036 71.697 156.757 71.8656 157.322 72.2027C157.89 72.536 158.288 73 158.515 73.5947C158.746 74.1856 158.799 74.8675 158.674 75.6402C158.545 76.4167 158.265 77.1004 157.833 77.6913C157.405 78.2784 156.848 78.7368 156.163 79.0663C155.477 79.3959 154.685 79.5606 153.788 79.5606H150.861L151.185 77.5891H153.714C154.191 77.5891 154.598 77.5076 154.935 77.3447C155.276 77.1781 155.547 76.9489 155.748 76.6572C155.948 76.3618 156.079 76.0228 156.14 75.6402C156.204 75.25 156.183 74.911 156.077 74.6231C155.971 74.3353 155.776 74.1118 155.492 73.9527C155.212 73.7898 154.835 73.7084 154.361 73.7084H152.702L151.094 83.3334H148.634ZM159.073 83.3334L161.005 71.697H168.846L168.505 73.7254H163.125L162.67 76.4981H167.647L167.306 78.5266H162.329L161.875 81.305H167.278L166.937 83.3334H159.073ZM180.462 75.7709H178.007C178.015 75.4451 177.973 75.1572 177.882 74.9072C177.791 74.6534 177.655 74.4375 177.473 74.2595C177.295 74.0815 177.077 73.947 176.82 73.8561C176.562 73.7614 176.272 73.7141 175.95 73.7141C175.329 73.7141 174.759 73.8694 174.24 74.18C173.721 74.4906 173.284 74.9413 172.928 75.5322C172.572 76.1194 172.325 76.8296 172.189 77.6629C172.056 78.4659 172.064 79.1383 172.212 79.68C172.359 80.2216 172.621 80.6307 172.996 80.9072C173.375 81.18 173.846 81.3163 174.411 81.3163C174.759 81.3163 175.09 81.2728 175.405 81.1856C175.719 81.0947 176.005 80.9659 176.263 80.7993C176.524 80.6288 176.751 80.4224 176.945 80.18C177.142 79.9375 177.295 79.6629 177.405 79.3561H179.876C179.721 79.8902 179.479 80.4053 179.149 80.9016C178.823 81.3978 178.42 81.8409 177.939 82.2311C177.458 82.6175 176.911 82.9243 176.297 83.1516C175.683 83.3788 175.011 83.4925 174.28 83.4925C173.223 83.4925 172.316 83.25 171.558 82.7652C170.805 82.2803 170.261 81.5815 169.928 80.6686C169.594 79.7557 169.532 78.6553 169.74 77.3675C169.948 76.1213 170.356 75.0644 170.962 74.197C171.572 73.3258 172.312 72.6648 173.183 72.2141C174.058 71.7633 174.994 71.5379 175.99 71.5379C176.683 71.5379 177.31 71.6326 177.871 71.822C178.431 72.0114 178.909 72.2879 179.303 72.6516C179.7 73.0114 180 73.4527 180.2 73.9754C180.401 74.4981 180.488 75.0966 180.462 75.7709ZM185.454 71.697L183.522 83.3334H181.062L182.993 71.697H185.454ZM187.632 83.3334H184.995L190.944 71.697H194.115L196.194 83.3334H193.558L192.143 74.3561H192.052L187.632 83.3334ZM188.234 78.7595H194.461L194.132 80.68H187.904L188.234 78.7595ZM197.675 83.3334L199.607 71.697H202.067L200.476 81.305H205.464L205.124 83.3334H197.675ZM222.583 77.6061C222.379 78.8182 221.987 79.8656 221.407 80.7481C220.828 81.6269 220.119 82.305 219.282 82.7822C218.445 83.2557 217.538 83.4925 216.561 83.4925C215.553 83.4925 214.695 83.2463 213.987 82.7538C213.282 82.2576 212.778 81.5569 212.475 80.6516C212.176 79.7425 212.129 78.6667 212.333 77.4243C212.538 76.2122 212.93 75.1667 213.509 74.2879C214.089 73.4053 214.799 72.7273 215.64 72.2538C216.481 71.7766 217.394 71.5379 218.379 71.5379C219.379 71.5379 220.229 71.786 220.93 72.2822C221.634 72.7747 222.136 73.4754 222.436 74.3845C222.739 75.2898 222.788 76.3637 222.583 77.6061ZM221.242 77.4243C221.409 76.4319 221.384 75.5966 221.169 74.9186C220.953 74.2406 220.595 73.7273 220.095 73.3788C219.595 73.0303 219 72.8561 218.311 72.8561C217.591 72.8561 216.909 73.0398 216.265 73.4072C215.621 73.7709 215.07 74.3069 214.612 75.0152C214.153 75.7197 213.841 76.5834 213.674 77.6061C213.508 78.5985 213.532 79.4338 213.748 80.1118C213.964 80.7898 214.322 81.3031 214.822 81.6516C215.322 82 215.917 82.1743 216.606 82.1743C217.326 82.1743 218.008 81.9925 218.651 81.6288C219.295 81.2614 219.847 80.7254 220.305 80.0209C220.763 79.3125 221.076 78.447 221.242 77.4243ZM224.078 83.3334L226.01 71.697H232.987L232.783 72.947H227.214L226.555 76.8788H231.601L231.396 78.1288H226.351L225.487 83.3334H224.078ZM233.549 83.3334L235.481 71.697H242.458L242.253 72.947H236.685L236.026 76.8788H241.071L240.867 78.1288H235.821L234.958 83.3334H233.549ZM243.019 83.3334L244.951 71.697H251.974L251.769 72.947H246.156L245.497 76.8788H250.747L250.542 78.1288H245.292L244.633 82.0834H250.337L250.133 83.3334H243.019ZM252.662 83.3334L254.594 71.697H258.525C259.435 71.697 260.154 71.8504 260.685 72.1572C261.219 72.4641 261.58 72.8864 261.77 73.4243C261.963 73.9622 262.003 74.5758 261.889 75.2652C261.775 75.947 261.533 76.5531 261.162 77.0834C260.794 77.6137 260.294 78.0303 259.662 78.3334C259.033 78.6364 258.268 78.7879 257.366 78.7879H254.185L254.412 77.5152H257.548C258.169 77.5152 258.685 77.4243 259.094 77.2425C259.503 77.0606 259.821 76.8012 260.048 76.4641C260.275 76.1269 260.427 75.7273 260.503 75.2652C260.578 74.7955 260.558 74.3883 260.44 74.0436C260.327 73.6951 260.094 73.4262 259.741 73.2368C259.393 73.0436 258.904 72.947 258.275 72.947H255.798L254.071 83.3334H252.662ZM259.003 78.1061L261.003 83.3334H259.366L257.412 78.1061H259.003Z" fill="#192BC2"/>
<rect width="240" height="51" transform="translate(80 94.6666)" fill="#192BC2"/>
<path d="M181.083 136.091C178.821 136.091 176.805 135.702 175.038 134.924C173.28 134.136 171.891 133.056 170.871 131.682C169.861 130.298 169.341 128.702 169.31 126.894H175.917C175.957 127.651 176.204 128.318 176.659 128.894C177.124 129.46 177.74 129.899 178.507 130.212C179.275 130.525 180.139 130.682 181.098 130.682C182.098 130.682 182.982 130.505 183.75 130.151C184.518 129.798 185.119 129.308 185.553 128.682C185.987 128.056 186.204 127.333 186.204 126.515C186.204 125.687 185.972 124.955 185.507 124.318C185.053 123.672 184.396 123.167 183.538 122.803C182.689 122.439 181.679 122.258 180.507 122.258H177.613V117.439H180.507C181.497 117.439 182.371 117.268 183.129 116.924C183.896 116.581 184.492 116.106 184.917 115.5C185.341 114.884 185.553 114.167 185.553 113.348C185.553 112.571 185.366 111.889 184.992 111.303C184.629 110.707 184.113 110.242 183.447 109.909C182.79 109.576 182.023 109.409 181.144 109.409C180.255 109.409 179.442 109.571 178.704 109.894C177.967 110.207 177.376 110.657 176.932 111.242C176.487 111.828 176.25 112.515 176.22 113.303H169.932C169.962 111.515 170.472 109.939 171.462 108.576C172.452 107.212 173.785 106.146 175.462 105.379C177.149 104.601 179.053 104.212 181.174 104.212C183.316 104.212 185.189 104.601 186.795 105.379C188.401 106.157 189.649 107.207 190.538 108.53C191.437 109.843 191.881 111.318 191.871 112.955C191.881 114.692 191.341 116.141 190.25 117.303C189.169 118.465 187.76 119.202 186.023 119.515V119.758C188.305 120.05 190.043 120.843 191.235 122.136C192.437 123.419 193.033 125.025 193.023 126.955C193.033 128.722 192.523 130.293 191.492 131.667C190.472 133.04 189.063 134.121 187.265 134.909C185.467 135.697 183.406 136.091 181.083 136.091ZM200.057 136.061C199.057 136.061 198.198 135.707 197.481 135C196.774 134.283 196.42 133.424 196.42 132.424C196.42 131.434 196.774 130.586 197.481 129.879C198.198 129.172 199.057 128.818 200.057 128.818C201.027 128.818 201.875 129.172 202.602 129.879C203.33 130.586 203.693 131.434 203.693 132.424C203.693 133.091 203.521 133.702 203.178 134.258C202.845 134.803 202.405 135.242 201.86 135.576C201.314 135.899 200.713 136.061 200.057 136.061ZM218.762 136.091C216.499 136.091 214.484 135.702 212.716 134.924C210.958 134.136 209.57 133.056 208.549 131.682C207.539 130.298 207.019 128.702 206.989 126.894H213.595C213.635 127.651 213.883 128.318 214.337 128.894C214.802 129.46 215.418 129.899 216.186 130.212C216.953 130.525 217.817 130.682 218.777 130.682C219.777 130.682 220.661 130.505 221.428 130.151C222.196 129.798 222.797 129.308 223.231 128.682C223.666 128.056 223.883 127.333 223.883 126.515C223.883 125.687 223.65 124.955 223.186 124.318C222.731 123.672 222.075 123.167 221.216 122.803C220.368 122.439 219.357 122.258 218.186 122.258H215.292V117.439H218.186C219.176 117.439 220.049 117.268 220.807 116.924C221.575 116.581 222.171 116.106 222.595 115.5C223.019 114.884 223.231 114.167 223.231 113.348C223.231 112.571 223.044 111.889 222.671 111.303C222.307 110.707 221.792 110.242 221.125 109.909C220.469 109.576 219.701 109.409 218.822 109.409C217.933 109.409 217.12 109.571 216.383 109.894C215.645 110.207 215.054 110.657 214.61 111.242C214.166 111.828 213.928 112.515 213.898 113.303H207.61C207.64 111.515 208.15 109.939 209.14 108.576C210.13 107.212 211.464 106.146 213.14 105.379C214.827 104.601 216.731 104.212 218.852 104.212C220.994 104.212 222.868 104.601 224.474 105.379C226.08 106.157 227.327 107.207 228.216 108.53C229.115 109.843 229.559 111.318 229.549 112.955C229.559 114.692 229.019 116.141 227.928 117.303C226.847 118.465 225.438 119.202 223.701 119.515V119.758C225.984 120.05 227.721 120.843 228.913 122.136C230.115 123.419 230.711 125.025 230.701 126.955C230.711 128.722 230.201 130.293 229.171 131.667C228.15 133.04 226.741 134.121 224.943 134.909C223.145 135.697 221.085 136.091 218.762 136.091Z" fill="#FAFAFF"/>
<rect width="105" height="34.6667" transform="translate(147.5 145.667)" fill="#FAFAFF"/>
<path d="M164.004 169L165.936 157.364H170.595C171.451 157.364 172.144 157.491 172.675 157.744C173.209 157.998 173.582 158.35 173.794 158.801C174.006 159.248 174.063 159.763 173.964 160.347C173.885 160.801 173.724 161.199 173.481 161.54C173.243 161.881 172.947 162.161 172.595 162.381C172.243 162.6 171.86 162.756 171.447 162.847L171.425 162.96C171.864 162.979 172.26 163.104 172.612 163.335C172.964 163.562 173.228 163.884 173.402 164.301C173.576 164.718 173.616 165.212 173.521 165.784C173.419 166.402 173.175 166.953 172.788 167.438C172.402 167.919 171.887 168.299 171.243 168.58C170.603 168.86 169.847 169 168.976 169H164.004ZM166.805 166.989H168.811C169.493 166.989 170.014 166.856 170.373 166.591C170.733 166.326 170.949 165.975 171.021 165.54C171.07 165.218 171.038 164.934 170.925 164.688C170.815 164.441 170.627 164.248 170.362 164.108C170.101 163.968 169.769 163.898 169.368 163.898H167.311L166.805 166.989ZM167.595 162.233H169.419C169.752 162.233 170.061 162.174 170.345 162.057C170.633 161.936 170.87 161.765 171.055 161.545C171.245 161.322 171.364 161.059 171.413 160.756C171.481 160.331 171.387 159.992 171.129 159.739C170.875 159.481 170.478 159.352 169.936 159.352H168.072L167.595 162.233ZM179.054 157.364L177.122 169H174.662L176.594 157.364H179.054ZM188.249 161.125C188.219 160.848 188.155 160.604 188.056 160.392C187.961 160.176 187.831 159.994 187.664 159.847C187.497 159.695 187.295 159.58 187.056 159.5C186.818 159.42 186.541 159.381 186.227 159.381C185.632 159.381 185.075 159.528 184.556 159.824C184.041 160.119 183.602 160.549 183.238 161.114C182.874 161.674 182.626 162.36 182.494 163.17C182.357 163.981 182.357 164.67 182.494 165.239C182.634 165.807 182.897 166.241 183.283 166.54C183.674 166.835 184.175 166.983 184.789 166.983C185.346 166.983 185.846 166.884 186.289 166.688C186.732 166.487 187.094 166.205 187.374 165.841C187.658 165.477 187.84 165.047 187.92 164.551L188.408 164.625H185.414L185.721 162.773H190.59L190.34 164.239C190.177 165.261 189.819 166.14 189.266 166.875C188.713 167.61 188.024 168.174 187.198 168.568C186.376 168.962 185.475 169.159 184.494 169.159C183.403 169.159 182.484 168.919 181.738 168.438C180.996 167.953 180.467 167.265 180.153 166.375C179.842 165.481 179.787 164.42 179.988 163.193C180.143 162.25 180.42 161.409 180.818 160.67C181.219 159.928 181.71 159.299 182.289 158.784C182.869 158.269 183.511 157.877 184.215 157.608C184.924 157.339 185.66 157.205 186.425 157.205C187.085 157.205 187.681 157.301 188.215 157.494C188.753 157.684 189.213 157.953 189.596 158.301C189.982 158.65 190.274 159.064 190.471 159.545C190.672 160.023 190.764 160.549 190.749 161.125H188.249ZM202.938 160.744C202.957 160.271 202.818 159.905 202.523 159.648C202.231 159.39 201.79 159.261 201.199 159.261C200.798 159.261 200.449 159.318 200.154 159.432C199.858 159.542 199.621 159.695 199.443 159.892C199.269 160.085 199.161 160.309 199.12 160.562C199.078 160.771 199.091 160.953 199.159 161.108C199.231 161.263 199.343 161.398 199.495 161.511C199.65 161.621 199.834 161.718 200.046 161.801C200.258 161.881 200.483 161.949 200.722 162.006L201.722 162.256C202.21 162.369 202.65 162.521 203.04 162.71C203.434 162.9 203.763 163.133 204.029 163.409C204.298 163.686 204.487 164.011 204.597 164.386C204.707 164.761 204.722 165.191 204.642 165.676C204.521 166.388 204.239 167.006 203.796 167.528C203.353 168.047 202.771 168.451 202.051 168.739C201.332 169.023 200.498 169.165 199.551 169.165C198.612 169.165 197.818 169.021 197.171 168.733C196.523 168.445 196.051 168.019 195.756 167.455C195.464 166.886 195.377 166.184 195.495 165.347H197.875C197.834 165.737 197.89 166.062 198.046 166.324C198.205 166.581 198.442 166.777 198.756 166.909C199.07 167.038 199.44 167.102 199.864 167.102C200.284 167.102 200.657 167.042 200.983 166.92C201.313 166.799 201.58 166.631 201.784 166.415C201.989 166.199 202.114 165.951 202.159 165.67C202.205 165.409 202.165 165.189 202.04 165.011C201.915 164.833 201.714 164.682 201.438 164.557C201.165 164.428 200.826 164.314 200.421 164.216L199.205 163.898C198.265 163.659 197.555 163.286 197.074 162.778C196.593 162.271 196.421 161.587 196.557 160.727C196.678 160.023 196.972 159.407 197.438 158.881C197.907 158.35 198.498 157.939 199.21 157.648C199.926 157.352 200.709 157.205 201.557 157.205C202.421 157.205 203.15 157.354 203.745 157.653C204.339 157.949 204.773 158.362 205.046 158.892C205.318 159.422 205.402 160.04 205.296 160.744H202.938ZM207.566 169H204.93L210.879 157.364H214.049L216.129 169H213.492L212.077 160.023H211.986L207.566 169ZM208.168 164.426H214.396L214.066 166.347H207.839L208.168 164.426ZM217.609 169L219.541 157.364H222.001L220.41 166.972H225.399L225.058 169H217.609ZM226.767 169L228.699 157.364H236.54L236.199 159.392H230.818L230.364 162.165H235.341L235 164.193H230.023L229.568 166.972H234.972L234.631 169H226.767Z" fill="#192BC2"/>
</g>
</g>
<defs>
<filter id="filter0_d_164_12512" x="48" y="38.6667" width="304" height="184.333" filterUnits="userSpaceOnUse" color-interpolation-filters="sRGB">
<feFlood flood-opacity="0" result="BackgroundImageFix"/>
<feColorMatrix in="SourceAlpha" type="matrix" values="0 0 0 0 0 0 0 0 0 0 0 0 0 0 0 0 0 0 127 0" result="hardAlpha"/>
<feOffset dy="10.6667"/>
<feGaussianBlur stdDeviation="16"/>
<feComposite in2="hardAlpha" operator="out"/>
<feColorMatrix type="matrix" values="0 0 0 0 0.0313726 0 0 0 0 0.054902 0 0 0 0 0.254902 0 0 0 0.15 0"/>
<feBlend mode="normal" in2="BackgroundImageFix" result="effect1_dropShadow_164_12512"/>
<feBlend mode="normal" in="SourceGraphic" in2="effect1_dropShadow_164_12512" result="shape"/>
</filter>
<radialGradient id="paint0_radial_164_12512" cx="0" cy="0" r="1" gradientUnits="userSpaceOnUse" gradientTransform="translate(200 120) rotate(90) scale(120 200)">
<stop stop-color="#A9B1F4"/>
<stop offset="1" stop-color="#192BC2"/>
</radialGradient>
<linearGradient id="paint1_linear_164_12512" x1="449.885" y1="243.536" x2="449.885" y2="45.5143" gradientUnits="userSpaceOnUse">
<stop stop-color="#40A4FF"/>
<stop offset="1" stop-color="#311996"/>
</linearGradient>
<linearGradient id="paint2_linear_164_12512" x1="272.429" y1="70.1966" x2="272.429" y2="20.8322" gradientUnits="userSpaceOnUse">
<stop stop-color="#40A4FF"/>
<stop offset="1" stop-color="#311996"/>
</linearGradient>
<linearGradient id="paint3_linear_164_12512" x1="123.022" y1="190.408" x2="105.871" y2="190.408" gradientUnits="userSpaceOnUse">
<stop stop-color="#40A4FF"/>
<stop offset="1" stop-color="#311996"/>
</linearGradient>
<linearGradient id="paint4_linear_164_12512" x1="290.227" y1="237.677" x2="424.011" y2="237.677" gradientUnits="userSpaceOnUse">
<stop stop-color="#192BC2"/>
<stop offset="1" stop-color="#111D81"/>
</linearGradient>
<linearGradient id="paint5_linear_164_12512" x1="24.0108" y1="190.408" x2="24.0108" y2="-7.61342" gradientUnits="userSpaceOnUse">
<stop stop-color="#111D81"/>
<stop offset="1" stop-color="#192BC2"/>
</linearGradient>
<linearGradient id="paint6_linear_164_12512" x1="24.0107" y1="37.9028" x2="24.0107" y2="-95.8811" gradientUnits="userSpaceOnUse">
<stop stop-color="#111D81"/>
<stop offset="1" stop-color="#5363E9"/>
</linearGradient>
<clipPath id="clip0_164_12512">
<rect width="400" height="240" fill="white"/>
</clipPath>
</defs>
</svg>
