<svg width="32" height="32" viewBox="0 0 32 32" fill="none" xmlns="http://www.w3.org/2000/svg">
<path d="M25.333 26.6667H26.6663M21.333 26.6667H18.6663V22.6667M22.6663 22.6667H26.6663V18.6667H25.333M18.6663 18.6667H21.333M5.33301 22.6663C5.33301 21.4238 5.33301 20.8026 5.536 20.3125C5.80665 19.6591 6.32543 19.1403 6.97884 18.8697C7.4689 18.6667 8.09015 18.6667 9.33266 18.6667C10.5752 18.6667 11.1971 18.6667 11.6872 18.8697C12.3406 19.1403 12.8592 19.6591 13.1299 20.3125C13.3329 20.8026 13.3329 21.4242 13.3329 22.6667C13.3329 23.9092 13.3329 24.5304 13.1299 25.0205C12.8592 25.6739 12.3406 26.1929 11.6872 26.4636C11.1971 26.6665 10.5752 26.6665 9.33266 26.6665C8.09016 26.6665 7.4689 26.6665 6.97884 26.4636C6.32543 26.1929 5.80665 25.6743 5.536 25.0208C5.33301 24.5308 5.33301 23.9088 5.33301 22.6663ZM18.6663 9.333C18.6663 8.09049 18.6663 7.46923 18.8693 6.97918C19.14 6.32577 19.6588 5.80698 20.3122 5.53633C20.8022 5.33334 21.4235 5.33334 22.666 5.33334C23.9085 5.33334 24.5305 5.33334 25.0205 5.53633C25.6739 5.80698 26.1926 6.32577 26.4632 6.97918C26.6662 7.46923 26.6662 8.09084 26.6662 9.33334C26.6662 10.5759 26.6662 11.1971 26.4632 11.6872C26.1926 12.3406 25.6739 12.8596 25.0205 13.1302C24.5305 13.3332 23.9085 13.3332 22.666 13.3332C21.4235 13.3332 20.8022 13.3332 20.3122 13.1302C19.6588 12.8596 19.14 12.3409 18.8693 11.6875C18.6663 11.1975 18.6663 10.5755 18.6663 9.333ZM5.33301 9.333C5.33301 8.09049 5.33301 7.46923 5.536 6.97918C5.80665 6.32577 6.32543 5.80698 6.97884 5.53633C7.4689 5.33334 8.09015 5.33334 9.33266 5.33334C10.5752 5.33334 11.1971 5.33334 11.6872 5.53633C12.3406 5.80698 12.8592 6.32577 13.1299 6.97918C13.3329 7.46923 13.3329 8.09084 13.3329 9.33334C13.3329 10.5759 13.3329 11.1971 13.1299 11.6872C12.8592 12.3406 12.3406 12.8596 11.6872 13.1302C11.1971 13.3332 10.5752 13.3332 9.33266 13.3332C8.09016 13.3332 7.4689 13.3332 6.97884 13.1302C6.32543 12.8596 5.80665 12.3409 5.536 11.6875C5.33301 11.1975 5.33301 10.5755 5.33301 9.333Z" stroke="#121216" stroke-width="2.66667" stroke-linecap="round" stroke-linejoin="round"/>
</svg>
