<svg width="32" height="32" viewBox="0 0 32 32" fill="none" xmlns="http://www.w3.org/2000/svg">
<path d="M27.6551 13C27.2027 12.5357 26.7384 12.0476 26.5599 11.631C26.3813 11.2143 26.3932 10.5953 26.3813 9.96431C26.3694 8.80954 26.3456 7.48812 25.4289 6.57145C24.5122 5.65478 23.1908 5.63097 22.036 5.61907C21.4051 5.60716 20.7622 5.59526 20.3694 5.4405C19.9765 5.28573 19.4646 4.79764 19.0003 4.34526C18.1789 3.55954 17.2384 2.66669 16.0003 2.66669C14.7622 2.66669 13.8218 3.55954 13.0003 4.34526C12.536 4.79764 12.0479 5.26193 11.6313 5.4405C11.2146 5.61907 10.5956 5.60716 9.96461 5.61907C8.80985 5.63097 7.48842 5.65478 6.57175 6.57145C5.65509 7.48812 5.63128 8.80954 5.61937 9.96431C5.60747 10.5953 5.59556 11.2381 5.4408 11.631C5.28604 12.0238 4.79794 12.5357 4.34556 13C3.55985 13.8215 2.66699 14.7619 2.66699 16C2.66699 17.2381 3.55985 18.1786 4.34556 19C4.79794 19.4643 5.26223 19.9524 5.4408 20.3691C5.61937 20.7857 5.60747 21.4048 5.61937 22.0357C5.63128 23.1905 5.65509 24.5119 6.57175 25.4286C7.48842 26.3453 8.80985 26.3691 9.96461 26.381C10.5956 26.3929 11.2384 26.4048 11.6313 26.5595C12.0241 26.7143 12.536 27.2024 13.0003 27.6548C13.8218 28.4405 14.7622 29.3334 16.0003 29.3334C17.2384 29.3334 18.1789 28.4405 19.0003 27.6548C19.4646 27.2024 19.9527 26.7381 20.3694 26.5595C20.786 26.381 21.4051 26.3929 22.036 26.381C23.1908 26.3691 24.5122 26.3453 25.4289 25.4286C26.3456 24.5119 26.3694 23.1905 26.3813 22.0357C26.3932 21.4048 26.4051 20.7619 26.5599 20.3691C26.7146 19.9762 27.2027 19.4643 27.6551 19C28.4408 18.1786 29.3337 17.2381 29.3337 16C29.3337 14.7619 28.4408 13.8215 27.6551 13ZM26.2741 17.6786C25.7027 18.2738 25.1194 18.8929 24.7979 19.6429C24.4765 20.3929 24.4884 21.2024 24.4765 22C24.4646 22.7976 24.4527 23.7143 24.0837 24.0834C23.7146 24.4524 22.8456 24.4643 22.0003 24.4762C21.1551 24.4881 20.3694 24.5 19.6432 24.7976C18.917 25.0953 18.2741 25.7024 17.6789 26.2738C17.0837 26.8453 16.4765 27.4286 16.0003 27.4286C15.5241 27.4286 14.917 26.8453 14.3218 26.2738C13.7265 25.7024 13.1075 25.1191 12.3575 24.7976C11.6075 24.4762 10.7979 24.4881 10.0003 24.4762C9.20271 24.4643 8.28604 24.4524 7.91699 24.0834C7.54794 23.7143 7.53604 22.8453 7.52414 22C7.51223 21.1548 7.50033 20.3691 7.20271 19.6429C6.90509 18.9167 6.29794 18.2738 5.72652 17.6786C5.15509 17.0834 4.57175 16.4762 4.57175 16C4.57175 15.5238 5.15509 14.9167 5.72652 14.3214C6.29794 13.7262 6.88128 13.1072 7.20271 12.3572C7.52414 11.6072 7.51223 10.7976 7.52414 10C7.53604 9.2024 7.54794 8.28573 7.91699 7.91669C8.28604 7.54764 9.15509 7.53573 10.0003 7.52383C10.8456 7.51193 11.6313 7.50002 12.3575 7.2024C13.0837 6.90478 13.7265 6.29764 14.3218 5.72621C14.917 5.15478 15.5241 4.57145 16.0003 4.57145C16.4765 4.57145 17.0837 5.15478 17.6789 5.72621C18.2741 6.29764 18.8932 6.88097 19.6432 7.2024C20.3932 7.52383 21.2027 7.51193 22.0003 7.52383C22.7979 7.53573 23.7146 7.54764 24.0837 7.91669C24.4527 8.28573 24.4646 9.15478 24.4765 10C24.4884 10.8453 24.5003 11.631 24.7979 12.3572C25.0956 13.0834 25.7027 13.7262 26.2741 14.3214C26.8456 14.9167 27.4289 15.5238 27.4289 16C27.4289 16.4762 26.8456 17.0834 26.2741 17.6786ZM17.4289 22.1905C17.4289 22.473 17.3451 22.7492 17.1881 22.9842C17.0312 23.2191 16.8081 23.4022 16.547 23.5103C16.286 23.6185 15.9987 23.6467 15.7216 23.5916C15.4445 23.5365 15.19 23.4004 14.9902 23.2006C14.7904 23.0009 14.6543 22.7463 14.5992 22.4692C14.5441 22.1921 14.5724 21.9048 14.6805 21.6438C14.7886 21.3828 14.9717 21.1597 15.2067 21.0027C15.4416 20.8457 15.7178 20.7619 16.0003 20.7619C16.3792 20.7619 16.7426 20.9124 17.0105 21.1803C17.2784 21.4483 17.4289 21.8116 17.4289 22.1905ZM20.286 13.6191C20.286 14.5902 19.9562 15.5325 19.3506 16.2917C18.745 17.0509 17.8995 17.5818 16.9527 17.7976V17.9048C16.9527 18.1574 16.8524 18.3996 16.6738 18.5782C16.4952 18.7568 16.2529 18.8572 16.0003 18.8572C15.7477 18.8572 15.5055 18.7568 15.3269 18.5782C15.1483 18.3996 15.0479 18.1574 15.0479 17.9048V16.9524C15.0479 16.6998 15.1483 16.4576 15.3269 16.279C15.5055 16.1004 15.7477 16 16.0003 16C16.4712 16 16.9316 15.8604 17.3231 15.5988C17.7147 15.3371 18.0198 14.9653 18.2 14.5302C18.3802 14.0952 18.4274 13.6164 18.3355 13.1546C18.2437 12.6927 18.0169 12.2685 17.6839 11.9355C17.3509 11.6025 16.9267 11.3757 16.4648 11.2839C16.003 11.192 15.5242 11.2391 15.0892 11.4194C14.6541 11.5996 14.2823 11.9047 14.0206 12.2963C13.759 12.6878 13.6194 13.1482 13.6194 13.6191C13.6194 13.8717 13.519 14.1139 13.3404 14.2925C13.1618 14.4711 12.9196 14.5714 12.667 14.5714C12.4144 14.5714 12.1722 14.4711 11.9936 14.2925C11.815 14.1139 11.7146 13.8717 11.7146 13.6191C11.7146 12.4824 12.1661 11.3923 12.9699 10.5886C13.7736 9.78488 14.8637 9.33335 16.0003 9.33335C17.137 9.33335 18.2271 9.78488 19.0308 10.5886C19.8345 11.3923 20.286 12.4824 20.286 13.6191Z" fill="#FAFAFF"/>
</svg>
