<svg width="74" height="54" viewBox="0 0 74 54" fill="none" xmlns="http://www.w3.org/2000/svg">
<path d="M33.6673 53.6667H18.6673C13.6118 53.6667 9.29176 51.9167 5.70732 48.4167C2.12288 44.9167 0.331764 40.6389 0.333986 35.5834C0.333986 31.25 1.63954 27.3889 4.25065 24C6.86176 20.6112 10.2784 18.4445 14.5007 17.5C15.8895 12.3889 18.6673 8.25004 22.834 5.08337C27.0007 1.91671 31.7229 0.333374 37.0007 0.333374C43.5007 0.333374 49.0151 2.59782 53.544 7.12671C58.0729 11.6556 60.3362 17.1689 60.334 23.6667C64.1673 24.1112 67.3484 25.7645 69.8773 28.6267C72.4062 31.4889 73.6695 34.8356 73.6673 38.6667C73.6673 42.8334 72.2084 46.3756 69.2907 49.2934C66.3729 52.2112 62.8318 53.6689 58.6673 53.6667H40.334V29.8334L45.6673 35L50.334 30.3334L37.0007 17L23.6673 30.3334L28.334 35L33.6673 29.8334V53.6667Z" fill="#192BC2"/>
</svg>
