<svg width="40" height="31" viewBox="0 0 40 31" fill="none" xmlns="http://www.w3.org/2000/svg">
<path d="M11.7642 30.6392C9.32102 30.6297 7.21875 30.0284 5.45739 28.8352C3.70549 27.642 2.35606 25.9138 1.40909 23.6506C0.471591 21.3873 0.00757578 18.6648 0.0170455 15.483C0.0170455 12.3106 0.485796 9.60701 1.4233 7.37216C2.37027 5.13731 3.7197 3.4375 5.47159 2.27273C7.23295 1.09848 9.33049 0.511363 11.7642 0.511363C14.1979 0.511363 16.2907 1.09848 18.0426 2.27273C19.804 3.44697 21.1581 5.15151 22.1051 7.38636C23.0521 9.61174 23.5208 12.3106 23.5114 15.483C23.5114 18.6742 23.0379 21.4015 22.0909 23.6648C21.1534 25.928 19.8087 27.6562 18.0568 28.8494C16.3049 30.0426 14.2074 30.6392 11.7642 30.6392ZM11.7642 25.5398C13.4309 25.5398 14.7614 24.7017 15.7557 23.0256C16.75 21.3494 17.2424 18.8352 17.233 15.483C17.233 13.2765 17.0057 11.4394 16.5511 9.97159C16.1061 8.50379 15.4716 7.40057 14.6477 6.66193C13.8333 5.9233 12.8722 5.55398 11.7642 5.55398C10.107 5.55398 8.78125 6.38258 7.78693 8.03977C6.79261 9.69697 6.29072 12.178 6.28125 15.483C6.28125 17.7178 6.50379 19.5833 6.94886 21.0795C7.40341 22.5663 8.04261 23.6837 8.86648 24.4318C9.69034 25.1705 10.6562 25.5398 11.7642 25.5398ZM39.9533 0.90909V30H33.8027V6.74716H33.6322L26.9703 10.9233V5.46875L34.172 0.90909H39.9533Z" fill="#A9B1F4"/>
</svg>
