<svg width="50" height="31" viewBox="0 0 50 31" fill="none" xmlns="http://www.w3.org/2000/svg">
<path d="M11.7642 30.6392C9.32102 30.6297 7.21875 30.0284 5.45739 28.8352C3.70549 27.642 2.35606 25.9138 1.40909 23.6506C0.471591 21.3873 0.00757578 18.6648 0.0170455 15.483C0.0170455 12.3106 0.485796 9.60701 1.4233 7.37216C2.37027 5.13731 3.7197 3.4375 5.47159 2.27273C7.23295 1.09848 9.33049 0.511363 11.7642 0.511363C14.1979 0.511363 16.2907 1.09848 18.0426 2.27273C19.804 3.44697 21.1581 5.15151 22.1051 7.38636C23.0521 9.61174 23.5208 12.3106 23.5114 15.483C23.5114 18.6742 23.0379 21.4015 22.0909 23.6648C21.1534 25.928 19.8087 27.6562 18.0568 28.8494C16.3049 30.0426 14.2074 30.6392 11.7642 30.6392ZM11.7642 25.5398C13.4309 25.5398 14.7614 24.7017 15.7557 23.0256C16.75 21.3494 17.2424 18.8352 17.233 15.483C17.233 13.2765 17.0057 11.4394 16.5511 9.97159C16.1061 8.50379 15.4716 7.40057 14.6477 6.66193C13.8333 5.9233 12.8722 5.55398 11.7642 5.55398C10.107 5.55398 8.78125 6.38258 7.78693 8.03977C6.79261 9.69697 6.29072 12.178 6.28125 15.483C6.28125 17.7178 6.50379 19.5833 6.94886 21.0795C7.40341 22.5663 8.04261 23.6837 8.86648 24.4318C9.69034 25.1705 10.6562 25.5398 11.7642 25.5398ZM38.0499 30.3977C35.9286 30.3977 34.0394 30.0331 32.3822 29.304C30.7345 28.5653 29.4324 27.5521 28.476 26.2642C27.529 24.9669 27.0413 23.4706 27.0129 21.7756H33.2061C33.244 22.4858 33.476 23.1108 33.9021 23.6506C34.3377 24.1809 34.9154 24.5928 35.6351 24.8864C36.3548 25.1799 37.1644 25.3267 38.0641 25.3267C39.0016 25.3267 39.8302 25.161 40.5499 24.8295C41.2696 24.4981 41.833 24.0388 42.2402 23.4517C42.6474 22.8646 42.851 22.1875 42.851 21.4205C42.851 20.6439 42.6332 19.9574 42.1976 19.3608C41.7714 18.7547 41.1559 18.2812 40.351 17.9403C39.5555 17.5994 38.6086 17.429 37.5101 17.429H34.797V12.9119H37.5101C38.4381 12.9119 39.2572 12.7509 39.9675 12.429C40.6872 12.107 41.2459 11.6619 41.6436 11.0938C42.0413 10.5161 42.2402 9.84375 42.2402 9.0767C42.2402 8.34754 42.065 7.70833 41.7146 7.15909C41.3737 6.60038 40.8908 6.16477 40.2658 5.85227C39.6502 5.53977 38.9305 5.38352 38.1067 5.38352C37.2733 5.38352 36.511 5.53504 35.8197 5.83807C35.1285 6.13163 34.5745 6.55303 34.1578 7.10227C33.7411 7.65151 33.5186 8.29545 33.4902 9.03409H27.5953C27.6237 7.35795 28.1019 5.88068 29.03 4.60227C29.958 3.32386 31.208 2.32481 32.78 1.60511C34.3614 0.875946 36.1464 0.511363 38.1351 0.511363C40.1427 0.511363 41.8993 0.875946 43.405 1.60511C44.9107 2.33428 46.0802 3.31913 46.9135 4.55966C47.7563 5.79072 48.173 7.1733 48.1635 8.70739C48.173 10.3362 47.6663 11.6951 46.6436 12.7841C45.6304 13.8731 44.3093 14.5644 42.6805 14.858V15.0852C44.8207 15.3598 46.4495 16.1032 47.5669 17.3153C48.6938 18.518 49.2525 20.0237 49.243 21.8324C49.2525 23.4896 48.7743 24.9621 47.8084 26.25C46.8519 27.5379 45.5309 28.5511 43.8453 29.2898C42.1597 30.0284 40.2279 30.3977 38.0499 30.3977Z" fill="#A9B1F4"/>
</svg>
