<svg width="214" height="206" viewBox="0 0 214 206" fill="none" xmlns="http://www.w3.org/2000/svg">
<path d="M101 0.271484H0.457031V90.2257H101V0.271484Z" fill="#FAFAFA"/>
<path d="M101 90.2207C101 90.2207 101 89.644 100.976 88.5536C100.951 87.4633 100.976 85.835 100.976 83.7317C100.976 79.5107 100.942 73.3367 100.913 65.4714C100.888 49.7554 100.845 27.2983 100.796 0.271383L101.024 0.499153L0.456932 0.537923L0.723469 0.271383C0.723469 32.9974 0.72347 63.7898 0.694394 90.2207L0.456932 89.9881L73.1782 90.1044L93.6871 90.1674L99.1196 90.1965H100.52H101.005C101.005 90.1965 100.854 90.1965 100.549 90.1965H99.1777L93.7937 90.2256L73.3333 90.2886L0.456932 90.4582H0.21947V90.2207C0.21947 63.7898 0.21947 32.9974 0.185547 0.271383V0H0.456932L100.99 0.0387682H101.218V0.271383C101.17 27.3565 101.131 49.8668 101.102 65.6168C101.102 73.4579 101.058 79.6173 101.044 83.8286C101.044 85.9076 101.043 87.5069 101.019 88.6021C100.995 89.6973 101 90.2207 101 90.2207Z" fill="#E0E0E0"/>
<path d="M39.0086 16.2541C39.0086 16.3994 33.7166 16.5206 27.1889 16.5206C20.6611 16.5206 15.3691 16.3994 15.3691 16.2541C15.3691 16.1087 20.6611 15.9827 27.1889 15.9827C33.7166 15.9827 39.0086 16.1038 39.0086 16.2541Z" fill="#E0E0E0"/>
<path d="M81.6102 23.0046C81.6102 23.1548 67.0718 23.276 49.141 23.276C31.2103 23.276 16.6719 23.1548 16.6719 23.0046C16.6719 22.8543 31.2103 22.738 49.141 22.738C67.0718 22.738 81.6102 22.8592 81.6102 23.0046Z" fill="#E0E0E0"/>
<path d="M19.7785 34.4463H15.543V38.6818H19.7785V34.4463Z" fill="#E0E0E0"/>
<path d="M30.2023 34.4463H25.9668V38.6818H30.2023V34.4463Z" fill="#E0E0E0"/>
<path d="M40.8254 34.2524H36.5898V38.488H40.8254V34.2524Z" fill="#E0E0E0"/>
<path d="M51.0598 34.4463H46.8242V38.6818H51.0598V34.4463Z" fill="#E0E0E0"/>
<path d="M61.4836 34.4463H57.248V38.6818H61.4836V34.4463Z" fill="#E0E0E0"/>
<path d="M71.9133 34.4463H67.6777V38.6818H71.9133V34.4463Z" fill="#E0E0E0"/>
<path d="M82.3371 34.4463H78.1016V38.6818H82.3371V34.4463Z" fill="#EBEBEB"/>
<path d="M19.7785 43.4504H15.543V47.686H19.7785V43.4504Z" fill="#EBEBEB"/>
<path d="M30.2023 43.4504H25.9668V47.686H30.2023V43.4504Z" fill="#E0E0E0"/>
<path d="M40.632 43.4504H36.3965V47.686H40.632V43.4504Z" fill="#EBEBEB"/>
<path d="M51.0598 43.4504H46.8242V47.686H51.0598V43.4504Z" fill="#E0E0E0"/>
<path d="M61.4836 43.4504H57.248V47.686H61.4836V43.4504Z" fill="#E0E0E0"/>
<path d="M72.1066 43.2615H67.8711V47.497H72.1066V43.2615Z" fill="#E0E0E0"/>
<path d="M82.3371 43.4504H78.1016V47.686H82.3371V43.4504Z" fill="#E0E0E0"/>
<path d="M19.7785 52.4595H15.543V56.695H19.7785V52.4595Z" fill="#E0E0E0"/>
<path d="M30.3957 52.2656H26.1602V56.5012H30.3957V52.2656Z" fill="#E0E0E0"/>
<path d="M40.632 52.4595H36.3965V56.695H40.632V52.4595Z" fill="#E0E0E0"/>
<path d="M51.0598 52.4595H46.8242V56.695H51.0598V52.4595Z" fill="#EBEBEB"/>
<path d="M61.4836 52.4595H57.248V56.695H61.4836V52.4595Z" fill="#E0E0E0"/>
<path d="M71.9133 52.4595H67.6777V56.695H71.9133V52.4595Z" fill="#E0E0E0"/>
<path d="M82.3371 52.4595H78.1016V56.695H82.3371V52.4595Z" fill="#E0E0E0"/>
<path d="M19.7785 61.4636H15.543V65.6992H19.7785V61.4636Z" fill="#E0E0E0"/>
<path d="M30.2023 61.4636H25.9668V65.6992H30.2023V61.4636Z" fill="#E0E0E0"/>
<path d="M40.632 61.4636H36.3965V65.6992H40.632V61.4636Z" fill="#E0E0E0"/>
<path d="M51.2492 61.2698H47.0137V65.5053H51.2492V61.2698Z" fill="#E0E0E0"/>
<path d="M61.4836 61.4636H57.248V65.6992H61.4836V61.4636Z" fill="#E0E0E0"/>
<path d="M71.9133 61.4636H67.6777V65.6992H71.9133V61.4636Z" fill="#EBEBEB"/>
<path d="M82.3371 61.4636H78.1016V65.6992H82.3371V61.4636Z" fill="#E0E0E0"/>
<path d="M19.7785 70.4678H15.543V74.7033H19.7785V70.4678Z" fill="#E0E0E0"/>
<path d="M30.2023 70.4678H25.9668V74.7033H30.2023V70.4678Z" fill="#EBEBEB"/>
<path d="M40.632 70.4678H36.3965V74.7033H40.632V70.4678Z" fill="#E0E0E0"/>
<path d="M51.0598 70.4678H46.8242V74.7033H51.0598V70.4678Z" fill="#E0E0E0"/>
<path d="M61.4836 70.4678H57.248V74.7033H61.4836V70.4678Z" fill="#E0E0E0"/>
<path d="M72.1066 70.2739H67.8711V74.5095H72.1066V70.2739Z" fill="#E0E0E0"/>
<path d="M82.3371 70.4678H78.1016V74.7033H82.3371V70.4678Z" fill="#E0E0E0"/>
<path d="M189.544 121.183C194.027 118.871 199.299 118.571 204.276 119.395C206.947 119.836 209.733 120.635 211.546 122.641C213.358 124.648 213.707 128.181 211.623 129.911C210.378 130.938 208.643 131.093 207.034 131.074C203.157 131.03 198.82 130.342 195.708 132.688C193.935 134.02 192.752 136.245 190.63 136.904C188.507 137.563 186.21 136.322 185.11 134.447C184.01 132.571 183.976 130.231 184.485 128.118C184.739 126.651 185.327 125.262 186.205 124.06C187.082 122.857 188.225 121.873 189.544 121.183Z" fill="#EBEBEB"/>
<path d="M179.279 101.367C182.017 105.283 187.343 103.984 189.815 101.599C192.286 99.2152 193.323 95.7453 194.273 92.4451C196.444 84.9045 198.635 76.9907 197.021 69.3144C196.536 67.0174 195.679 64.7251 194.065 63.0144C192.451 61.3038 189.97 60.2958 187.702 60.8967C185.017 61.6042 183.34 64.2357 182.143 66.7121C178.59 74.0966 176.727 82.1807 176.691 90.3758C176.691 94.1897 177.128 98.1878 179.279 101.333" fill="#EBEBEB"/>
<path d="M171.759 106.993C174.734 103.46 175.296 98.3139 173.973 93.9087C172.65 89.5036 169.66 85.7236 166.22 82.656C162.165 79.0433 157.444 76.2579 152.321 74.4563C150.315 73.7487 148.192 73.1914 146.074 73.395C143.956 73.5985 141.819 74.6792 140.831 76.5644C139.377 79.3557 140.768 82.7383 142.284 85.4958C144.956 90.3612 148.008 95.0086 151.41 99.3946C154.148 102.923 157.278 106.402 161.451 107.996C165.623 109.591 169.951 109.402 172.161 106.509" fill="#EBEBEB"/>
<path d="M179.095 160.393C179.238 159.81 179.32 159.214 179.342 158.614C179.468 157.32 179.628 155.707 179.826 153.768C180.07 151.38 180.436 149.005 180.922 146.654C181.556 143.79 182.42 140.981 183.505 138.256C184.569 135.531 186.015 132.971 187.798 130.652C189.248 128.765 191.101 127.225 193.221 126.145C194.658 125.433 196.199 124.952 197.786 124.72C198.383 124.696 198.975 124.611 199.555 124.468C198.957 124.389 198.352 124.38 197.752 124.439C196.104 124.565 194.493 124.985 192.993 125.68C190.759 126.732 188.8 128.288 187.27 130.226C185.413 132.576 183.916 135.189 182.826 137.979C181.724 140.746 180.864 143.603 180.258 146.518C179.786 148.895 179.459 151.298 179.279 153.715C179.124 155.775 179.065 157.442 179.036 158.595C178.993 159.195 179.012 159.797 179.095 160.393Z" fill="#E0E0E0"/>
<path d="M179.43 156.656C179.476 156.384 179.492 156.108 179.478 155.833C179.478 155.212 179.478 154.432 179.478 153.473C179.478 151.427 179.478 148.462 179.585 144.803C179.764 137.485 180.394 129.61 181.615 118.508C182.764 108.069 184.315 95.9197 185.943 88.0205C186.297 86.2226 186.646 84.6282 186.98 83.1743C187.314 81.7205 187.566 80.5332 187.828 79.5397C188.09 78.5463 188.23 77.8484 188.376 77.2475C188.457 76.9831 188.506 76.7096 188.521 76.4333C188.397 76.6802 188.301 76.9403 188.235 77.2087L187.552 79.467C187.247 80.4363 186.936 81.6623 186.583 83.0774C186.229 84.4925 185.827 86.1014 185.444 87.8945C183.42 97.2368 181.9 106.681 180.888 116.186C179.667 127.308 179.12 137.441 179.071 144.779C179.027 148.447 179.105 151.418 179.197 153.468C179.26 154.437 179.304 155.203 179.342 155.823C179.34 156.103 179.369 156.383 179.43 156.656Z" fill="#E0E0E0"/>
<path d="M179.478 137.122C179.543 136.301 179.543 135.476 179.478 134.655C179.34 132.418 179.089 130.189 178.727 127.977C178.186 124.697 177.461 121.45 176.556 118.251C175.496 114.316 174.135 110.468 172.485 106.741C169.093 98.7355 164.528 92.2029 160.54 88.137C159.659 87.2078 158.72 86.3354 157.729 85.5249C157.298 85.1614 156.92 84.798 156.532 84.5121L155.442 83.7609C154.784 83.2634 154.089 82.8178 153.363 82.4282C153.246 82.5881 156.304 84.3909 160.147 88.4956C163.99 92.6003 168.449 99.0941 171.778 107.032C173.4 110.737 174.773 114.547 175.887 118.435C176.821 121.605 177.593 124.821 178.199 128.069C178.708 130.841 179.004 133.109 179.168 134.679C179.21 135.5 179.314 136.317 179.478 137.122Z" fill="#E0E0E0"/>
<path d="M160.594 171.583L162.552 198.406H197.008L198.966 171.583H160.594Z" fill="#E0E0E0"/>
<path d="M203.074 161.013H157.264V171.587H203.074V161.013Z" fill="#E0E0E0"/>
<path d="M157.264 197.379V200.311H159.415H202.323V197.379H157.264Z" fill="#EBEBEB"/>
<path d="M161.529 205.467L159.416 200.311H200.681L198.219 205.467H161.529Z" fill="#E0E0E0"/>
<path d="M198.325 180.349C198.325 180.349 198.282 180.441 198.166 180.596L197.652 181.28L195.646 183.848L195.553 183.964L195.466 183.843L190.538 177.025H190.819L185.973 183.897L185.818 184.115L185.648 183.911L179.891 177.059H180.22L179.905 177.456C178.117 179.695 176.392 181.866 174.754 183.911L174.584 184.129L174.424 183.906C172.68 181.43 171.032 179.118 169.578 177.03H169.859L163.879 183.848L163.772 183.969L163.69 183.829C162.9 182.506 162.275 181.449 161.819 180.684L161.335 179.845C161.274 179.752 161.225 179.651 161.189 179.545C161.267 179.626 161.335 179.715 161.393 179.811C161.529 180.025 161.708 180.296 161.921 180.621L163.889 183.708H163.7L169.588 176.802L169.738 176.632L169.869 176.816L174.773 183.659H174.444L179.581 177.194L179.896 176.797L180.06 176.594L180.23 176.792L185.968 183.659H185.648L190.552 176.821L190.693 176.623L190.833 176.821L195.679 183.717H195.5L197.589 181.212L198.151 180.563C198.202 180.486 198.261 180.415 198.325 180.349Z" fill="#F5F5F5"/>
<path d="M199.445 171.408C199.445 171.525 190.814 171.622 180.162 171.622C169.51 171.622 160.879 171.525 160.879 171.408C160.879 171.292 169.515 171.195 180.162 171.195C190.809 171.195 199.445 171.287 199.445 171.408Z" fill="#F5F5F5"/>
<path d="M201.185 200.601C201.185 200.718 191.803 200.815 180.23 200.815C168.658 200.815 159.275 200.718 159.275 200.601C159.275 200.485 168.658 200.383 180.23 200.383C191.803 200.383 201.185 200.48 201.185 200.601Z" fill="#F5F5F5"/>
</svg>
