<svg width="1440" height="900" viewBox="0 0 1440 900" fill="none" xmlns="http://www.w3.org/2000/svg">
<g clip-path="url(#clip0_438_3868)">
<rect width="1440" height="900" fill="#FAFAFF"/>
<path d="M103.229 466.917C19.4038 472.79 -1.49234 510.148 0.0809627 528.093L0.0809627 900L1439.91 900V528.093C1441.48 510.148 1423.67 472.79 1339.84 466.917C1235.06 459.576 1237.9 433.882 1221.85 413.082C1205.8 392.282 1180.31 371.482 1090.63 388C1000.96 404.517 913.165 410.023 846.143 370.87C792.524 339.548 740.621 336 721.537 336C702.453 336 650.55 339.548 596.932 370.87C529.909 410.023 442.119 404.517 352.44 388C262.762 371.482 237.275 392.282 221.227 413.082C205.179 433.882 208.011 459.576 103.229 466.917Z" fill="#A9B1F4"/>
</g>
<defs>
<clipPath id="clip0_438_3868">
<rect width="1440" height="900" fill="white"/>
</clipPath>
</defs>
</svg>
