<svg width="1920" height="1400" viewBox="0 0 1920 1400" fill="none" xmlns="http://www.w3.org/2000/svg">
<path d="M137.639 1225.44C25.8719 1217.61 -1.98957 1167.8 0.108167 1143.88L0.108167 0L1919.88 0V1143.88C1921.97 1167.8 1898.23 1217.61 1786.46 1225.44C1646.75 1235.23 1650.53 1269.49 1629.13 1297.22C1607.73 1324.96 1573.75 1352.69 1454.18 1330.67C1334.61 1308.64 1217.55 1301.3 1128.19 1353.51C1056.7 1395.27 987.495 1400 962.05 1400C936.604 1400 867.4 1395.27 795.909 1353.51C706.545 1301.3 589.492 1308.64 469.921 1330.67C350.35 1352.69 316.366 1324.96 294.969 1297.22C273.572 1269.49 277.349 1235.23 137.639 1225.44Z" fill="#192BC2"/>
</svg>
