<svg width="65" height="48" viewBox="0 0 65 48" fill="none" xmlns="http://www.w3.org/2000/svg">
<path d="M49.5103 48C57.7582 48 64.4443 41.2206 64.4443 32.857C64.4443 24.4963 57.7582 17.7169 49.5103 17.7169C49.5103 17.7169 49.5826 12.092 54.0906 3.99633C54.5913 2.3742 53.6987 0.64677 52.0975 0.142086C50.9613 -0.220177 49.7658 0.13195 48.9938 0.951633C38.6282 12.4441 34.5707 25.9701 34.5707 32.857C34.5707 41.2206 41.2567 48 49.5103 48Z" fill="#A9B1F4"/>
<path d="M15.3841 48C23.632 48 30.3181 41.2204 30.3181 32.857C30.3181 24.4963 23.632 17.7169 15.3841 17.7169C15.3841 17.7169 15.4564 12.092 19.9644 3.99633C20.4651 2.3742 19.5724 0.64677 17.9712 0.142086C16.8351 -0.220177 15.6396 0.13195 14.8677 0.951633C4.50199 12.4441 0.444366 25.9701 0.444366 32.857C0.444366 41.2206 7.13049 48 15.3841 48Z" fill="#A9B1F4"/>
</svg>
