<svg width="100" height="101" viewBox="0 0 100 101" fill="none" xmlns="http://www.w3.org/2000/svg">
<path d="M89 50.5C89 72.0643 71.5392 89.5442 50 89.5442C28.4608 89.5442 11 72.0643 11 50.5C11 28.9358 28.4608 11.4546 50 11.4546C71.5392 11.4546 89 28.9358 89 50.5Z" fill="#F7F2ED"/>
<path d="M60.3118 80.1745C60.3118 85.8765 55.6949 90.5 49.9995 90.5C44.3042 90.5 39.6873 85.8765 39.6873 80.1745C39.6873 74.4725 44.3042 69.8503 49.9995 69.8503C55.6949 69.8503 60.3118 74.4725 60.3118 80.1745Z" fill="#53CEEA"/>
<path d="M50.0003 75.9931C45.3215 75.9931 41.7854 80.1745 41.7854 80.1745C41.7854 80.1745 45.1128 84.3572 50.0003 84.3572V75.9931Z" fill="#FEFDF4"/>
<path d="M50.0005 75.9931C54.6793 75.9931 58.2142 80.1745 58.2142 80.1745C58.2142 80.1745 54.8867 84.3572 50.0005 84.3572V75.9931Z" fill="#E2E2E2"/>
<path d="M53.0145 80.1745C53.0145 81.842 51.6656 83.1949 50.0001 83.1949C48.3345 83.1949 46.9844 81.842 46.9844 80.1745C46.9844 78.5071 48.3345 77.1564 50.0001 77.1564C51.6656 77.1564 53.0145 78.5071 53.0145 80.1745Z" fill="#4A9B0A"/>
<path d="M51.239 80.1746C51.239 80.8606 50.6847 81.417 50.0005 81.417C49.3163 81.417 48.7607 80.8606 48.7607 80.1746C48.7607 79.4908 49.3163 78.9346 50.0005 78.9346C50.6847 78.9346 51.239 79.4908 51.239 80.1746Z" fill="#211D1A"/>
<path d="M60.3118 20.8243C60.3118 26.5263 55.6949 31.1486 49.9995 31.1486C44.3042 31.1486 39.6873 26.5263 39.6873 20.8243C39.6873 15.1223 44.3042 10.5 49.9995 10.5C55.6949 10.5 60.3118 15.1223 60.3118 20.8243Z" fill="#53CEEA"/>
<path d="M56.9691 25.9676C56.9291 25.9336 50.0037 20.9141 50.0037 20.9141C50.0037 20.9141 43.0698 25.9287 43.031 25.9627C43.0917 26.0101 56.9473 25.9858 56.9691 25.9676Z" fill="#C65517"/>
<path d="M56.9732 25.9628C56.9344 25.9275 50.0005 20.9142 50.0005 20.9142L56.9732 15.8656C57.1479 16.0186 57.2594 16.247 57.2594 16.4983V25.33C57.2594 25.5826 57.1479 25.8085 56.9732 25.9628Z" fill="#F27D2F"/>
<path d="M42.7415 25.33V16.4983C42.7415 16.2469 42.8518 16.0186 43.0265 15.8656L50.0004 20.9142C50.0004 20.9142 43.0678 25.9288 43.0289 25.9628C43.0326 25.964 42.7415 25.6373 42.7415 25.33Z" fill="#F27D2F"/>
<path d="M43.0271 15.8656C43.1751 15.7369 43.368 15.6579 43.579 15.6579H56.4193C56.6316 15.6579 56.8245 15.7369 56.9713 15.8656L49.9998 20.9142L43.0271 15.8656Z" fill="#FF965C"/>
<path d="M48.428 61.9877C48.428 61.9877 59.0544 63.6747 61.9294 57.244L53.2888 47.1942L48.428 61.9877Z" fill="#F8AE76"/>
<path d="M28.7156 54.4701H41.9914V44.617H28.7156V54.4701Z" fill="#EA9053"/>
<path d="M45.7619 51.7158C45.5217 52.2404 45.2002 52.6727 44.8606 52.9691C44.4081 52.6388 44.4663 52.2004 44.4663 52.2004L45.8116 49.1739C46.2519 49.6062 46.2495 50.6653 45.7619 51.7158Z" fill="#FFD19F"/>
<path d="M35.3339 55.6846H28.7214V43.4026H35.3339V55.6846Z" fill="#495359"/>
<path d="M58.7699 56.8044C58.5721 56.4109 55.1489 50.2924 54.0426 48.5545L49.8442 44.979L41.992 44.6171L37.0742 52.8015L45.3146 60.7357L47.4253 61.0466C47.4314 61.0587 47.435 61.0733 47.4423 61.0866L48.9416 62.4663C49.7993 63.1695 50.5393 63.3784 51.1725 62.9946C51.7159 62.6642 51.9367 62.0096 51.7475 61.4303C52.1635 61.9319 52.8926 62.0704 53.4664 61.7218C54.0013 61.3963 54.2233 60.7575 54.0499 60.1842C54.4756 60.5838 55.2193 60.953 56.049 60.3385C57.0413 59.6026 56.6785 59.0803 56.2952 58.416C56.7792 59.1933 57.7982 59.1215 58.4678 58.6783C59.3048 58.1245 59.0816 57.4226 58.7699 56.8044Z" fill="#EA9053"/>
<path d="M66.0502 55.2098L63.6507 56.5068L61.9282 57.244L56.0133 51.3465L54.042 48.5544L50.3192 46.9767C50.3192 46.9767 48.8853 52.2659 46.2978 52.4517C45.2231 52.5258 43.7528 52.323 43.885 51.3271L46.8388 44.6692L51.9544 42.6193C52.2528 42.5027 52.5827 42.4991 52.8824 42.6132L59.6003 45.1758L62.6451 44.4726L66.0502 55.2098Z" fill="#F8AE76"/>
<path d="M40.355 57.1869C39.854 57.6897 39.04 57.6897 38.539 57.1869L38.0235 56.6719C37.5225 56.1704 37.5225 55.3554 38.0235 54.8539L41.175 51.6986C41.6772 51.1959 42.49 51.1959 42.9922 51.6986L43.5065 52.2136C44.0075 52.7164 44.0075 53.5301 43.5065 54.0317L40.355 57.1869Z" fill="#F8AE76"/>
<path d="M42.3996 54.4737C41.9568 54.917 41.2387 54.917 40.7947 54.4725C40.352 54.0292 40.352 53.3101 40.7947 52.8668L41.3612 52.2998C41.804 51.8565 42.5221 51.8565 42.9661 52.2998C43.4089 52.7443 43.4089 53.4619 42.9661 53.9066L42.3996 54.4737Z" fill="#FFD19F"/>
<path d="M42.3835 59.8235C41.8825 60.3251 41.0697 60.3251 40.5675 59.8235L40.0532 59.3086C39.551 58.8057 39.551 57.9921 40.0532 57.4893L43.2047 54.3341C43.7057 53.8325 44.5197 53.8325 45.0207 54.3341L45.5362 54.8502C46.0372 55.3518 46.0372 56.1667 45.5362 56.6683L42.3835 59.8235Z" fill="#F8AE76"/>
<path d="M44.4284 57.1092C43.9856 57.5525 43.2675 57.5525 42.8248 57.1092C42.382 56.6659 42.382 55.9469 42.8248 55.5024L43.3901 54.9365C43.834 54.492 44.5521 54.492 44.9949 54.9365C45.4377 55.3798 45.4377 56.0987 44.9949 56.542L44.4284 57.1092Z" fill="#FFD19F"/>
<path d="M45.2622 61.61C44.76 62.1116 43.9473 62.1116 43.445 61.61L42.9307 61.095C42.4297 60.5923 42.4297 59.7786 42.9307 59.2758L46.0822 56.1206C46.5832 55.619 47.3972 55.619 47.8994 56.1206L48.4137 56.6367C48.9147 57.1383 48.9147 57.9532 48.4137 58.4548L45.2622 61.61Z" fill="#F8AE76"/>
<path d="M47.3071 58.8968C46.8631 59.339 46.145 59.339 45.7022 58.8957C45.2594 58.4524 45.2594 57.7334 45.7022 57.2901L46.2675 56.7229C46.7115 56.2785 47.4296 56.2785 47.8724 56.7229C48.3152 57.1661 48.3164 57.8852 47.8724 58.3297L47.3071 58.8968Z" fill="#FFD19F"/>
<path d="M48.0178 63.518C47.5156 64.0196 46.7029 64.0196 46.2007 63.518L45.6863 63.003C45.1853 62.5015 45.1853 61.6866 45.6863 61.1838L48.8378 58.0298C49.3401 57.527 50.1528 57.527 50.655 58.0298L51.1693 58.5446C51.6703 59.0463 51.6703 59.8612 51.1693 60.3628L48.0178 63.518Z" fill="#F8AE76"/>
<path d="M50.062 60.8036C49.6192 61.2468 48.901 61.2468 48.4583 60.8036C48.0155 60.3603 48.0143 59.6414 48.4583 59.1981L49.0248 58.6309C49.4676 58.1876 50.1857 58.1876 50.6285 58.6309C51.0724 59.0742 51.0724 59.7932 50.6285 60.2377L50.062 60.8036Z" fill="#FFD19F"/>
<path d="M45.012 51.9622C44.9368 52.0946 44.8579 52.2197 44.773 52.3375C44.5631 52.2732 44.4018 52.1881 44.2793 52.0957C43.8268 51.7655 43.885 51.3271 43.885 51.3271L44.8506 49.1532C44.927 49.169 44.9974 49.1957 45.0641 49.2333C45.6877 49.5867 45.6646 50.8085 45.012 51.9622Z" fill="#FFD19F"/>
<path d="M71.2846 54.8624L65.0531 57.0751L60.5332 44.3208L66.7659 42.108L71.2846 54.8624Z" fill="#495359"/>
<path d="M84.8057 29.7154C84.8057 35.4174 80.1888 40.0397 74.4934 40.0397C68.7981 40.0397 64.1812 35.4174 64.1812 29.7154C64.1812 24.0122 68.7981 19.3899 74.4934 19.3899C80.1888 19.3899 84.8057 24.0122 84.8057 29.7154Z" fill="#53CEEA"/>
<path d="M75.4329 34.022V27.1541H73.5526V34.022H70.5928V35.9044H78.3928V34.022H75.4329Z" fill="#333333"/>
<path d="M76.3733 34.9633C76.3733 36.0029 75.5314 36.8457 74.493 36.8457C73.4547 36.8457 72.6128 36.0029 72.6128 34.9633C72.6128 33.9225 73.4547 33.0808 74.493 33.0808C75.5314 33.0808 76.3733 33.9225 76.3733 34.9633Z" fill="#FF965C"/>
<path d="M82.6363 27.6922C82.2287 26.134 80.8726 25.0908 79.3938 25.0434C78.4549 23.0905 76.3721 22.2064 74.4931 22.7335C73.9993 22.8731 73.5189 23.1087 73.0774 23.4476C70.3358 22.0461 66.9648 24.0439 66.841 27.0897C64.8322 28.3929 65.651 29.9839 66.7998 29.9839H82.1717C83.4479 29.9839 83.853 28.2253 82.6363 27.6922Z" fill="#008FC1"/>
<path d="M36.5513 29.7154C36.5513 35.4174 31.9343 40.0397 26.239 40.0397C20.5437 40.0397 15.9268 35.4174 15.9268 29.7154C15.9268 24.0122 20.5437 19.3899 26.239 19.3899C31.9343 19.3899 36.5513 24.0122 36.5513 29.7154Z" fill="#53CEEA"/>
<path d="M30.0941 27.2549V36.0745C30.0941 36.6416 29.6332 37.0995 29.0691 37.0995H28.6166C28.0513 37.0983 27.594 36.6404 27.594 36.0745V34.2272H22.396V27.2549H30.0941Z" fill="#F27D2F"/>
<path d="M27.5941 36.0745V34.2272H19.896V36.0745C19.896 36.6404 20.3557 37.0995 20.921 37.0995H28.6167C28.0526 37.0983 27.5941 36.6404 27.5941 36.0745Z" fill="#C65517"/>
<path d="M28.5385 28.8301H23.9507V28.3394H28.5385V28.8301Z" fill="#333333"/>
<path d="M28.5385 30.2717H23.9507V29.7811H28.5385V30.2717Z" fill="#333333"/>
<path d="M28.5385 31.7145H23.9507V31.2238H28.5385V31.7145Z" fill="#333333"/>
<path d="M28.5385 33.156H23.9507V32.6666H28.5385V33.156Z" fill="#333333"/>
<path d="M30.0941 25.6955V27.2549H22.396V25.6955H30.0941Z" fill="#FF965C"/>
<path d="M28.8681 34.6026L28.7564 35.0374C28.7443 35.0859 28.7734 35.1345 28.822 35.1467C28.8693 35.1588 28.9191 35.1297 28.9313 35.0823L29.0418 34.6463L28.8681 34.6026Z" fill="#565557"/>
<path d="M31.5651 22.3302L31.2751 23.4621L32.2638 23.7147L32.5513 22.5828L31.5651 22.3302Z" fill="#353535"/>
<path d="M32.5433 24.1435L30.4035 32.5367L28.6846 32.0971L30.8256 23.7039C30.8729 23.5193 31.0609 23.4063 31.2453 23.4537L32.2946 23.7221C32.479 23.7694 32.5906 23.9577 32.5433 24.1435Z" fill="#FAFAFF"/>
<path d="M32.2812 25.7454L30.2881 25.2365L30.5901 24.0535L32.582 24.5625L32.2812 25.7454Z" fill="#C4C3C3"/>
<path d="M29.5426 32.3169L28.6838 32.0971C28.5746 32.5282 28.6061 32.946 28.7456 33.2436V33.2448L28.7165 34.6086L29.1714 34.7252L29.7998 33.5144C30.0642 33.3189 30.2923 32.9679 30.4027 32.5367L29.5426 32.3169Z" fill="#7B7B7B"/>
<path d="M84.8057 71.2845C84.8057 76.9866 80.1888 81.6089 74.4934 81.6089C68.7981 81.6089 64.1812 76.9866 64.1812 71.2845C64.1812 65.5814 68.7981 60.9604 74.4934 60.9604C80.1888 60.9604 84.8057 65.5814 84.8057 71.2845Z" fill="#53CEEA"/>
<path d="M68.481 68.4122V77.3618C68.481 77.7699 68.8121 78.1014 69.2197 78.1014H79.4289L80.5048 77.0229V68.4122H68.481Z" fill="#FFC91F"/>
<path d="M69.9645 67.6059C69.6904 67.6059 69.4684 67.3837 69.4684 67.1092C69.4684 66.8334 69.6904 66.6113 69.9645 66.6113C70.2399 66.6113 70.4631 66.8334 70.4631 67.1092C70.4631 67.3837 70.2399 67.6059 69.9645 67.6059ZM79.0201 66.6113C79.2942 66.6113 79.5174 66.8334 79.5174 67.108C79.5174 67.3825 79.2942 67.6047 79.0201 67.6047C78.7459 67.6047 78.5227 67.3825 78.5227 67.108C78.5227 66.8334 78.7459 66.6113 79.0201 66.6113ZM80.5048 68.4122C80.5048 68.4122 80.5036 66.2603 80.5024 66.2409C80.4745 65.8595 80.1567 65.5582 79.7673 65.5582H69.2185C68.8303 65.5582 68.5113 65.8595 68.4834 66.2409C68.4822 66.2603 68.481 68.4122 68.481 68.4122H80.5048Z" fill="#E22500"/>
<path d="M71.1558 71.7145H69.4963V70.0543H71.1558V71.7145Z" fill="#FAFAFF"/>
<path d="M73.2391 71.7145H71.5808V70.0543H73.2391V71.7145Z" fill="#FAFAFF"/>
<path d="M75.3228 71.7145H73.6633V70.0543H75.3228V71.7145Z" fill="#FAFAFF"/>
<path d="M77.4061 71.7145H75.7478V70.0543H77.4061V71.7145Z" fill="#FAFAFF"/>
<path d="M79.4898 71.7145H77.8303V70.0543H79.4898V71.7145Z" fill="#FAFAFF"/>
<path d="M69.4963 72.0241H71.1558V73.6843H69.4963V72.0241Z" fill="#FAFAFF"/>
<path d="M73.2391 73.6843H71.5808V72.0241H73.2391V73.6843Z" fill="#F23509"/>
<path d="M75.3228 73.6843H73.6633V72.0241H75.3228V73.6843Z" fill="#F23509"/>
<path d="M77.4061 73.6843H75.7478V72.0241H77.4061V73.6843Z" fill="#F23509"/>
<path d="M79.4898 73.6843H77.8303V72.0241H79.4898V73.6843Z" fill="#F23509"/>
<path d="M71.1558 75.6543H69.4963V73.9929H71.1558V75.6543Z" fill="#FAFAFF"/>
<path d="M73.2391 75.6543H71.5808V73.9929H73.2391V75.6543Z" fill="#FAFAFF"/>
<path d="M75.3228 75.6543H73.6633V73.9929H75.3228V75.6543Z" fill="#FAFAFF"/>
<path d="M77.4061 75.6543H75.7478V73.9929H77.4061V75.6543Z" fill="#FAFAFF"/>
<path d="M79.4898 75.6543H77.8303V73.9929H79.4898V75.6543Z" fill="#FAFAFF"/>
<path d="M69.6738 64.7567V66.8093C69.6738 67.1955 70.2592 67.1967 70.2592 66.8093V64.7567C70.2592 64.3706 69.6738 64.3706 69.6738 64.7567Z" fill="#FC971F"/>
<path d="M79.3132 64.7566V66.8092C79.3132 67.1942 78.7278 67.1966 78.7278 66.8092V64.7566C78.7278 64.3706 79.3132 64.3706 79.3132 64.7566Z" fill="#FC971F"/>
<path d="M35.8198 71.2845C35.8198 76.9866 31.2029 81.6089 25.5075 81.6089C19.8122 81.6089 15.1953 76.9866 15.1953 71.2845C15.1953 65.5814 19.8122 60.9604 25.5075 60.9604C31.2029 60.9604 35.8198 65.5814 35.8198 71.2845Z" fill="#53CEEA"/>
<path d="M30.4277 73.6055C28.4298 75.6045 25.1909 75.6045 23.193 73.6055C21.1951 71.6052 21.1951 68.3614 23.193 66.3623C25.1909 64.362 28.4298 64.362 30.4277 66.3623C32.4256 68.3614 32.4256 71.6052 30.4277 73.6055Z" fill="#008FC1"/>
<path d="M22.7718 74.9753L21.8232 74.0268L22.619 73.2301L23.5664 74.1799L22.7718 74.9753Z" fill="#222324"/>
<path d="M21.6091 73.8119L18.9319 76.4947C18.0573 77.369 19.4596 78.7184 20.3063 77.8707L22.9847 75.1891L21.6091 73.8119Z" fill="#EA3207"/>
<path d="M23.6201 73.1779C21.8575 71.4133 21.8575 68.5518 23.6201 66.7885C25.3814 65.0239 28.2394 65.0239 30.002 66.7885C31.7646 68.5532 31.7634 71.4133 30.0008 73.1779C28.2455 74.9353 25.3875 74.9486 23.6201 73.1779ZM30.7335 66.0562C28.5669 63.8859 25.0539 63.8859 22.8874 66.055C20.7208 68.2253 20.7208 71.7412 22.8874 73.9114C25.0502 76.0769 28.5633 76.0841 30.7335 73.9102C32.9 71.7412 32.9012 68.2253 30.7335 66.0562Z" fill="#353535"/>
</svg>
