<svg width="195" height="40" viewBox="0 0 195 40" fill="none" xmlns="http://www.w3.org/2000/svg">
<path d="M9.38083 19.492C8.46034 19.098 7.73307 18.5563 7.19902 17.867C6.66496 17.1788 6.36645 16.4016 6.30566 15.5343H10.716C10.7778 15.9522 10.9711 16.2768 11.2967 16.5091C11.6213 16.7414 12.024 16.8575 12.5038 16.8575C12.875 16.8575 13.1692 16.7805 13.3863 16.6252C13.6034 16.4711 13.7108 16.2692 13.7108 16.0217C13.7108 15.6972 13.5328 15.4573 13.1768 15.302C12.8207 15.1479 12.2324 14.9764 11.4129 14.7919C10.4848 14.6062 9.71082 14.3978 9.0921 14.1655C8.47337 13.9332 7.93497 13.5544 7.47907 13.028C7.02208 12.5026 6.79413 11.7905 6.79413 10.8928C6.79413 10.1189 7.00254 9.41873 7.42045 8.79241C7.83836 8.16608 8.45275 7.66677 9.26577 7.29553C10.0777 6.9243 11.0568 6.73868 12.202 6.73868C13.904 6.73868 15.2424 7.15659 16.2183 7.99241C17.193 8.82823 17.7575 9.92673 17.9127 11.2879H13.8042C13.7271 10.87 13.5447 10.5487 13.2593 10.3251C12.9727 10.1015 12.5895 9.98861 12.1108 9.98861C11.7396 9.98861 11.4563 10.0581 11.2641 10.1981C11.0709 10.337 10.9732 10.5313 10.9732 10.7778C10.9732 11.0871 11.1513 11.3227 11.5073 11.4855C11.8633 11.6483 12.4354 11.8144 13.2245 11.9848C14.1678 12.1867 14.9537 12.4103 15.58 12.6578C16.2063 12.9053 16.7556 13.3037 17.2278 13.8529C17.7 14.4022 17.9355 15.149 17.9355 16.0923C17.9355 16.851 17.7152 17.5316 17.2745 18.1351C16.8337 18.7387 16.2063 19.2141 15.3944 19.5626C14.5825 19.911 13.6262 20.0847 12.5276 20.0847C11.3499 20.0836 10.3013 19.886 9.38083 19.492Z" fill="#192BC2"/>
<path d="M20.0223 9.87028C20.5792 8.86512 21.3575 8.09117 22.355 7.54952C23.3537 7.00786 24.4945 6.73758 25.7787 6.73758C27.434 6.73758 28.8267 7.19023 29.9567 8.09552C31.0867 9.00081 31.8139 10.2654 32.1385 11.8904H27.3103C27.0313 11.0393 26.4896 10.6138 25.6853 10.6138C25.1133 10.6138 24.6606 10.8505 24.3274 11.3216C23.9941 11.7937 23.828 12.4863 23.828 13.3992C23.828 14.3121 23.9941 15.0089 24.3274 15.4876C24.6595 15.9674 25.1122 16.2073 25.6853 16.2073C26.5059 16.2073 27.0476 15.7818 27.3103 14.9308H32.1385C31.8139 16.5406 31.0856 17.8008 29.9567 18.7137C28.8267 19.6266 27.434 20.0836 25.7787 20.0836C24.4945 20.0836 23.3537 19.8133 22.355 19.2716C21.3575 18.73 20.5792 17.9571 20.0223 16.9509C19.4655 15.9457 19.1865 14.7615 19.1865 13.4003C19.1865 12.0532 19.4655 10.8765 20.0223 9.87028Z" fill="#192BC2"/>
<path d="M45.8913 8.28113C46.7651 9.27869 47.2026 10.629 47.2026 12.3311V19.9208H42.6533V12.9346C42.6533 12.1921 42.4601 11.6081 42.0737 11.1826C41.6862 10.7571 41.1684 10.5444 40.5182 10.5444C39.8376 10.5444 39.3035 10.7571 38.9171 11.1826C38.5296 11.6081 38.3364 12.1921 38.3364 12.9346V19.9208H33.7871V2.74518H38.3364V8.75658C38.7391 8.16824 39.284 7.69281 39.9722 7.32917C40.6604 6.96554 41.4539 6.78426 42.3516 6.78426C43.8376 6.78426 45.0164 7.28249 45.8913 8.28113Z" fill="#192BC2"/>
<path d="M52.041 19.2716C51.0119 18.73 50.2032 17.9571 49.6149 16.9509C49.0266 15.9457 48.7324 14.7615 48.7324 13.4003C48.7324 12.0543 49.0309 10.8776 49.6269 9.87246C50.2228 8.8673 51.0347 8.09335 52.0638 7.5517C53.0928 7.01004 54.2575 6.73976 55.5568 6.73976C56.8573 6.73976 58.0209 7.01113 59.0499 7.5517C60.079 8.09335 60.892 8.8673 61.4868 9.87246C62.0828 10.8787 62.3813 12.0543 62.3813 13.4003C62.3813 14.7463 62.0828 15.9262 61.4868 16.94C60.8909 17.9539 60.0746 18.7311 59.038 19.2727C58.0013 19.8144 56.8323 20.0847 55.533 20.0847C54.2347 20.0836 53.07 19.8133 52.041 19.2716ZM57.1243 15.4301C57.5498 14.9579 57.7625 14.2817 57.7625 13.3992C57.7625 12.5167 57.5498 11.8437 57.1243 11.3802C56.6988 10.9156 56.1756 10.6844 55.5579 10.6844C54.9392 10.6844 54.4203 10.9167 54.0024 11.3802C53.5845 11.8448 53.3761 12.5178 53.3761 13.3992C53.3761 14.2969 53.5769 14.9775 53.9796 15.4421C54.3813 15.9067 54.9001 16.1379 55.5351 16.1379C56.1691 16.1379 56.6988 15.9023 57.1243 15.4301Z" fill="#192BC2"/>
<path d="M68.5561 2.74518V19.9208H64.0068V2.74518H68.5561Z" fill="#192BC2"/>
<path d="M70.9113 9.87028C71.3987 8.86512 72.063 8.09117 72.9075 7.54952C73.7509 7.00786 74.6909 6.73758 75.7276 6.73758C76.6253 6.73758 77.3992 6.9156 78.0483 7.27163C78.6985 7.62767 79.2011 8.10746 79.5572 8.71098V6.9004H84.1064V19.9218H79.5572V18.1113C79.2011 18.7148 78.6942 19.1946 78.0364 19.5506C77.3786 19.9066 76.609 20.0847 75.7276 20.0847C74.6909 20.0847 73.7509 19.8144 72.9075 19.2727C72.0641 18.7311 71.3987 17.9539 70.9113 16.94C70.4239 15.9262 70.1797 14.7463 70.1797 13.4003C70.1808 12.0532 70.4239 10.8765 70.9113 9.87028ZM78.8733 11.4258C78.4163 10.946 77.8551 10.7061 77.1908 10.7061C76.5102 10.7061 75.9447 10.9427 75.4964 11.4138C75.047 11.886 74.8234 12.5471 74.8234 13.3981C74.8234 14.2339 75.047 14.895 75.4964 15.3824C75.9447 15.8697 76.5102 16.1129 77.1908 16.1129C77.8562 16.1129 78.4174 15.873 78.8733 15.3932C79.3292 14.9134 79.5582 14.248 79.5582 13.397C79.5572 12.5634 79.3292 11.9056 78.8733 11.4258Z" fill="#192BC2"/>
<path d="M92.8801 7.43337C93.6074 7.00027 94.389 6.78317 95.2248 6.78317V11.6342H93.9483C92.9572 11.6342 92.2223 11.8285 91.7426 12.2149C91.2628 12.6024 91.0229 13.2754 91.0229 14.2339V19.9208H86.4736V6.89932H91.0229V9.19728C91.5341 8.45481 92.1529 7.86757 92.8801 7.43337Z" fill="#192BC2"/>
<path d="M33.8261 26.8125L30.5067 39.8339H25.4006L23.5901 31.9425L21.71 39.8339H16.6267L13.3301 26.8125H17.8565L19.3187 35.4475L21.2454 26.8125H26.1192L28.1154 35.4703L29.5548 26.8125H33.8261Z" fill="#192BC2"/>
<path d="M35.2541 24.9444C34.7667 24.5036 34.5225 23.9501 34.5225 23.2847C34.5225 22.6041 34.7656 22.0396 35.2541 21.5902C35.7415 21.1419 36.3873 20.9172 37.1917 20.9172C37.9808 20.9172 38.6191 21.1419 39.1064 21.5902C39.5938 22.0396 39.837 22.6041 39.837 23.2847C39.837 23.9501 39.5938 24.5036 39.1064 24.9444C38.6191 25.3851 37.9808 25.6054 37.1917 25.6054C36.3873 25.6065 35.7415 25.3861 35.2541 24.9444ZM39.444 26.8125V39.8339H34.8948V26.8125H39.444Z" fill="#192BC2"/>
<path d="M49.4933 35.9577V39.8339H47.5199C44.1929 39.8339 42.5299 38.1861 42.5299 34.8895V30.5965H40.9277V26.8136H42.5299L42.6526 19.7004L47.2018 19.6635L47.103 26.8136H49.4705V30.5965H47.103V34.9601C47.103 35.3161 47.1845 35.5712 47.3462 35.7265C47.509 35.8817 47.7826 35.9587 48.1701 35.9587H49.4933V35.9577Z" fill="#192BC2"/>
<path d="M63.4548 28.1943C64.3286 29.1919 64.766 30.5422 64.766 32.2442V39.8339H60.2168V32.8478C60.2168 32.1053 60.0236 31.5213 59.6371 31.0958C59.2496 30.6703 58.7319 30.4575 58.0817 30.4575C57.4011 30.4575 56.867 30.6703 56.4806 31.0958C56.0931 31.5213 55.8998 32.1053 55.8998 32.8478V39.8339H51.3506V22.6583H55.8998V28.6697C56.3025 28.0814 56.8475 27.606 57.5357 27.2423C58.2239 26.8787 59.0173 26.6974 59.915 26.6974C61.4 26.6974 62.5799 27.1957 63.4548 28.1943Z" fill="#192BC2"/>
<path d="M71.4961 23.4714V32.965C71.4961 33.8475 71.7012 34.5281 72.1115 35.0079C72.5219 35.4876 73.1438 35.7275 73.9797 35.7275C74.8155 35.7275 75.4451 35.4844 75.8717 34.997C76.2972 34.5096 76.5099 33.8323 76.5099 32.9661V23.4724H81.0592V32.9661C81.0592 34.4673 80.7422 35.7482 80.1072 36.8076C79.4722 37.8681 78.6103 38.6648 77.5194 39.1989C76.4285 39.733 75.2182 40 73.8874 40C72.5566 40 71.3691 39.733 70.3248 39.1989C69.2806 38.6648 68.46 37.8724 67.8641 36.8195C67.2681 35.7677 66.9707 34.4836 66.9707 32.9672V23.4735H71.4961V23.4714Z" fill="#F18F01"/>
<path d="M85.7364 39.4051C84.8159 39.0111 84.0886 38.4695 83.5546 37.7802C83.0205 37.092 82.722 36.3148 82.6602 35.4475H87.0705C87.1323 35.8654 87.3256 36.1899 87.6512 36.4222C87.9758 36.6545 88.3785 36.7707 88.8583 36.7707C89.2295 36.7707 89.5237 36.6936 89.7407 36.5384C89.9568 36.3842 90.0653 36.1823 90.0653 35.9349C90.0653 35.6103 89.8873 35.3704 89.5313 35.2152C89.1752 35.061 88.5869 34.8895 87.7673 34.705C86.8393 34.5194 86.0653 34.311 85.4466 34.0787C84.8279 33.8464 84.2895 33.4676 83.8336 32.9411C83.3766 32.4157 83.1486 31.7037 83.1486 30.806C83.1486 30.032 83.357 29.3319 83.7749 28.7056C84.1929 28.0792 84.8072 27.5799 85.6203 27.2087C86.4333 26.8374 87.4113 26.6518 88.5565 26.6518C90.2585 26.6518 91.5969 27.0697 92.5717 27.9056C93.5464 28.7414 94.1109 29.8399 94.2661 31.2011H90.1576C90.0805 30.7832 89.8981 30.4619 89.6127 30.2383C89.3261 30.0146 88.944 29.9018 88.4642 29.9018C88.093 29.9018 87.8108 29.9712 87.6175 30.1102C87.4243 30.2491 87.3277 30.4434 87.3277 30.6898C87.3277 30.9992 87.5057 31.2347 87.8618 31.3975C88.2178 31.5604 88.7899 31.7265 89.5801 31.8969C90.5234 32.0988 91.3093 32.3224 91.9356 32.5699C92.5619 32.8174 93.1112 33.2157 93.5834 33.765C94.0555 34.3142 94.2922 35.061 94.2922 36.0043C94.2922 36.7631 94.0718 37.4437 93.6311 38.0472C93.1904 38.6507 92.563 39.1262 91.7511 39.4746C90.9391 39.8231 89.9828 39.9967 88.8843 39.9967C87.7055 39.9967 86.6569 39.7992 85.7364 39.4051Z" fill="#F18F01"/>
<path d="M0 9.1365L5.34165 0L15.8556 0.0835842L12.927 2.98073C12.927 2.98073 9.81927 3.02958 7.48982 5.15821C7.48982 5.15821 9.97666 3.53433 12.8651 3.55495L14.3164 6.36744C7.13813 5.34491 6.108 9.22442 6.27083 11.1826L4.3441 7.93813L0 9.1365Z" fill="#192BC2"/>
<path d="M112.361 26H108.236V14.3636H112.395C113.566 14.3636 114.573 14.5966 115.418 15.0625C116.262 15.5246 116.912 16.1894 117.367 17.0568C117.825 17.9242 118.054 18.9621 118.054 20.1705C118.054 21.3826 117.825 22.4242 117.367 23.2955C116.912 24.1667 116.259 24.8352 115.406 25.3011C114.558 25.767 113.543 26 112.361 26ZM110.696 23.892H112.259C112.986 23.892 113.598 23.7633 114.094 23.5057C114.594 23.2443 114.969 22.8409 115.219 22.2955C115.473 21.7462 115.6 21.0379 115.6 20.1705C115.6 19.3106 115.473 18.608 115.219 18.0625C114.969 17.517 114.596 17.1155 114.1 16.858C113.603 16.6004 112.992 16.4716 112.264 16.4716H110.696V23.892ZM122.4 26.1648C121.843 26.1648 121.347 26.0682 120.911 25.875C120.476 25.678 120.131 25.3883 119.877 25.0057C119.627 24.6193 119.502 24.1383 119.502 23.5625C119.502 23.0777 119.591 22.6705 119.769 22.3409C119.947 22.0114 120.19 21.7462 120.496 21.5455C120.803 21.3447 121.152 21.1932 121.542 21.0909C121.936 20.9886 122.349 20.9167 122.78 20.875C123.288 20.822 123.697 20.7727 124.008 20.7273C124.318 20.678 124.544 20.6061 124.684 20.5114C124.824 20.4167 124.894 20.2765 124.894 20.0909V20.0568C124.894 19.697 124.78 19.4186 124.553 19.2216C124.33 19.0246 124.012 18.9261 123.599 18.9261C123.163 18.9261 122.816 19.0227 122.559 19.2159C122.301 19.4053 122.131 19.6439 122.048 19.9318L119.809 19.75C119.923 19.2197 120.146 18.7614 120.479 18.375C120.813 17.9848 121.243 17.6856 121.769 17.4773C122.299 17.2652 122.913 17.1591 123.61 17.1591C124.095 17.1591 124.559 17.2159 125.002 17.3295C125.449 17.4432 125.845 17.6193 126.19 17.858C126.538 18.0966 126.813 18.4034 127.013 18.7784C127.214 19.1496 127.315 19.5947 127.315 20.1136V26H125.019V24.7898H124.951C124.811 25.0625 124.623 25.303 124.388 25.5114C124.154 25.7159 123.871 25.8769 123.542 25.9943C123.212 26.108 122.832 26.1648 122.4 26.1648ZM123.093 24.4943C123.449 24.4943 123.763 24.4242 124.036 24.2841C124.309 24.1402 124.523 23.947 124.678 23.7045C124.833 23.4621 124.911 23.1875 124.911 22.8807V21.9545C124.835 22.0038 124.731 22.0492 124.599 22.0909C124.47 22.1288 124.324 22.1648 124.161 22.1989C123.998 22.2292 123.835 22.2576 123.673 22.2841C123.51 22.3068 123.362 22.3277 123.229 22.3466C122.945 22.3883 122.697 22.4545 122.485 22.5455C122.273 22.6364 122.108 22.7595 121.991 22.9148C121.873 23.0663 121.815 23.2557 121.815 23.483C121.815 23.8125 121.934 24.0644 122.173 24.2386C122.415 24.4091 122.722 24.4943 123.093 24.4943ZM136.534 19.7614L134.318 19.8977C134.28 19.7083 134.199 19.5379 134.074 19.3864C133.949 19.2311 133.784 19.108 133.579 19.017C133.378 18.9223 133.138 18.875 132.858 18.875C132.483 18.875 132.166 18.9545 131.909 19.1136C131.651 19.2689 131.522 19.4773 131.522 19.7386C131.522 19.947 131.606 20.1231 131.772 20.267C131.939 20.411 132.225 20.5265 132.63 20.6136L134.21 20.9318C135.058 21.1061 135.691 21.3864 136.108 21.7727C136.524 22.1591 136.733 22.6667 136.733 23.2955C136.733 23.8674 136.564 24.3693 136.227 24.8011C135.894 25.233 135.435 25.5701 134.852 25.8125C134.272 26.0511 133.604 26.1705 132.846 26.1705C131.691 26.1705 130.77 25.9299 130.085 25.4489C129.403 24.964 129.003 24.3049 128.886 23.4716L131.267 23.3466C131.339 23.6989 131.513 23.9678 131.789 24.1534C132.066 24.3352 132.42 24.4261 132.852 24.4261C133.276 24.4261 133.617 24.3447 133.875 24.1818C134.136 24.0152 134.269 23.8011 134.272 23.5398C134.269 23.3201 134.176 23.1402 133.994 23C133.812 22.8561 133.532 22.7462 133.153 22.6705L131.642 22.3693C130.789 22.1989 130.155 21.9034 129.738 21.483C129.325 21.0625 129.119 20.5265 129.119 19.875C129.119 19.3144 129.27 18.8314 129.574 18.4261C129.88 18.0208 130.31 17.7083 130.863 17.4886C131.42 17.2689 132.072 17.1591 132.818 17.1591C133.92 17.1591 134.788 17.392 135.42 17.858C136.056 18.3239 136.428 18.9583 136.534 19.7614ZM140.757 20.9545V26H138.337V14.3636H140.689V18.8125H140.791C140.988 18.2973 141.306 17.8939 141.746 17.6023C142.185 17.3068 142.736 17.1591 143.399 17.1591C144.005 17.1591 144.534 17.2917 144.984 17.5568C145.439 17.8182 145.791 18.1951 146.041 18.6875C146.295 19.1761 146.42 19.7614 146.416 20.4432V26H143.996V20.875C144 20.3371 143.863 19.9186 143.587 19.6193C143.314 19.3201 142.931 19.1705 142.439 19.1705C142.109 19.1705 141.818 19.2405 141.564 19.3807C141.314 19.5208 141.117 19.7254 140.973 19.9943C140.833 20.2595 140.761 20.5795 140.757 20.9545ZM148.447 26V14.3636H150.867V18.7386H150.941C151.047 18.5038 151.2 18.2652 151.401 18.0227C151.606 17.7765 151.871 17.572 152.197 17.4091C152.526 17.2424 152.935 17.1591 153.424 17.1591C154.06 17.1591 154.647 17.3258 155.185 17.6591C155.723 17.9886 156.153 18.4867 156.475 19.1534C156.797 19.8163 156.958 20.6477 156.958 21.6477C156.958 22.6212 156.801 23.4432 156.486 24.1136C156.176 24.7803 155.752 25.286 155.214 25.6307C154.68 25.9716 154.081 26.142 153.418 26.142C152.948 26.142 152.549 26.0644 152.219 25.9091C151.894 25.7538 151.627 25.5587 151.418 25.3239C151.21 25.0852 151.051 24.8447 150.941 24.6023H150.833V26H148.447ZM150.816 21.6364C150.816 22.1553 150.888 22.608 151.032 22.9943C151.176 23.3807 151.384 23.6818 151.657 23.8977C151.93 24.1098 152.261 24.2159 152.651 24.2159C153.045 24.2159 153.378 24.108 153.651 23.892C153.924 23.6723 154.13 23.3693 154.27 22.983C154.414 22.5928 154.486 22.1439 154.486 21.6364C154.486 21.1326 154.416 20.6894 154.276 20.3068C154.136 19.9242 153.93 19.625 153.657 19.4091C153.384 19.1932 153.049 19.0852 152.651 19.0852C152.257 19.0852 151.924 19.1894 151.651 19.3977C151.382 19.6061 151.176 19.9015 151.032 20.2841C150.888 20.6667 150.816 21.1174 150.816 21.6364ZM162.596 26.1705C161.714 26.1705 160.95 25.983 160.306 25.608C159.666 25.2292 159.172 24.7027 158.823 24.0284C158.475 23.3504 158.301 22.5644 158.301 21.6705C158.301 20.7689 158.475 19.9811 158.823 19.3068C159.172 18.6288 159.666 18.1023 160.306 17.7273C160.95 17.3485 161.714 17.1591 162.596 17.1591C163.479 17.1591 164.24 17.3485 164.88 17.7273C165.524 18.1023 166.02 18.6288 166.369 19.3068C166.717 19.9811 166.892 20.7689 166.892 21.6705C166.892 22.5644 166.717 23.3504 166.369 24.0284C166.02 24.7027 165.524 25.2292 164.88 25.608C164.24 25.983 163.479 26.1705 162.596 26.1705ZM162.608 24.2955C163.009 24.2955 163.344 24.1818 163.613 23.9545C163.882 23.7235 164.085 23.4091 164.221 23.0114C164.361 22.6136 164.431 22.161 164.431 21.6534C164.431 21.1458 164.361 20.6932 164.221 20.2955C164.085 19.8977 163.882 19.5833 163.613 19.3523C163.344 19.1212 163.009 19.0057 162.608 19.0057C162.202 19.0057 161.861 19.1212 161.585 19.3523C161.312 19.5833 161.106 19.8977 160.966 20.2955C160.829 20.6932 160.761 21.1458 160.761 21.6534C160.761 22.161 160.829 22.6136 160.966 23.0114C161.106 23.4091 161.312 23.7235 161.585 23.9545C161.861 24.1818 162.202 24.2955 162.608 24.2955ZM171.034 26.1648C170.477 26.1648 169.981 26.0682 169.546 25.875C169.11 25.678 168.765 25.3883 168.511 25.0057C168.261 24.6193 168.136 24.1383 168.136 23.5625C168.136 23.0777 168.225 22.6705 168.403 22.3409C168.582 22.0114 168.824 21.7462 169.131 21.5455C169.438 21.3447 169.786 21.1932 170.176 21.0909C170.57 20.9886 170.983 20.9167 171.415 20.875C171.922 20.822 172.332 20.7727 172.642 20.7273C172.953 20.678 173.178 20.6061 173.318 20.5114C173.458 20.4167 173.528 20.2765 173.528 20.0909V20.0568C173.528 19.697 173.415 19.4186 173.188 19.2216C172.964 19.0246 172.646 18.9261 172.233 18.9261C171.797 18.9261 171.451 19.0227 171.193 19.2159C170.936 19.4053 170.765 19.6439 170.682 19.9318L168.443 19.75C168.557 19.2197 168.78 18.7614 169.114 18.375C169.447 17.9848 169.877 17.6856 170.403 17.4773C170.934 17.2652 171.547 17.1591 172.244 17.1591C172.729 17.1591 173.193 17.2159 173.636 17.3295C174.083 17.4432 174.479 17.6193 174.824 17.858C175.172 18.0966 175.447 18.4034 175.648 18.7784C175.849 19.1496 175.949 19.5947 175.949 20.1136V26H173.653V24.7898H173.585C173.445 25.0625 173.258 25.303 173.023 25.5114C172.788 25.7159 172.506 25.8769 172.176 25.9943C171.847 26.108 171.466 26.1648 171.034 26.1648ZM171.727 24.4943C172.083 24.4943 172.398 24.4242 172.671 24.2841C172.943 24.1402 173.157 23.947 173.313 23.7045C173.468 23.4621 173.546 23.1875 173.546 22.8807V21.9545C173.47 22.0038 173.366 22.0492 173.233 22.0909C173.104 22.1288 172.958 22.1648 172.796 22.1989C172.633 22.2292 172.47 22.2576 172.307 22.2841C172.144 22.3068 171.996 22.3277 171.864 22.3466C171.58 22.3883 171.332 22.4545 171.119 22.5455C170.907 22.6364 170.742 22.7595 170.625 22.9148C170.508 23.0663 170.449 23.2557 170.449 23.483C170.449 23.8125 170.568 24.0644 170.807 24.2386C171.049 24.4091 171.356 24.4943 171.727 24.4943ZM177.907 26V17.2727H180.253V18.7955H180.344C180.503 18.2538 180.77 17.8447 181.145 17.5682C181.52 17.2879 181.952 17.1477 182.441 17.1477C182.562 17.1477 182.693 17.1553 182.833 17.1705C182.973 17.1856 183.096 17.2064 183.202 17.233V19.3807C183.089 19.3466 182.931 19.3163 182.731 19.2898C182.53 19.2633 182.346 19.25 182.179 19.25C181.823 19.25 181.505 19.3277 181.225 19.483C180.948 19.6345 180.729 19.8466 180.566 20.1193C180.407 20.392 180.327 20.7064 180.327 21.0625V26H177.907ZM187.343 26.142C186.68 26.142 186.08 25.9716 185.542 25.6307C185.008 25.286 184.584 24.7803 184.269 24.1136C183.959 23.4432 183.804 22.6212 183.804 21.6477C183.804 20.6477 183.965 19.8163 184.286 19.1534C184.608 18.4867 185.036 17.9886 185.571 17.6591C186.108 17.3258 186.697 17.1591 187.338 17.1591C187.826 17.1591 188.233 17.2424 188.559 17.4091C188.889 17.572 189.154 17.7765 189.355 18.0227C189.559 18.2652 189.715 18.5038 189.821 18.7386H189.894V14.3636H192.309V26H189.923V24.6023H189.821C189.707 24.8447 189.546 25.0852 189.338 25.3239C189.133 25.5587 188.866 25.7538 188.536 25.9091C188.211 26.0644 187.813 26.142 187.343 26.142ZM188.11 24.2159C188.5 24.2159 188.83 24.1098 189.099 23.8977C189.372 23.6818 189.58 23.3807 189.724 22.9943C189.872 22.608 189.946 22.1553 189.946 21.6364C189.946 21.1174 189.874 20.6667 189.73 20.2841C189.586 19.9015 189.377 19.6061 189.105 19.3977C188.832 19.1894 188.5 19.0852 188.11 19.0852C187.713 19.0852 187.377 19.1932 187.105 19.4091C186.832 19.625 186.625 19.9242 186.485 20.3068C186.345 20.6894 186.275 21.1326 186.275 21.6364C186.275 22.1439 186.345 22.5928 186.485 22.983C186.629 23.3693 186.836 23.6723 187.105 23.892C187.377 24.108 187.713 24.2159 188.11 24.2159Z" fill="#192BC2"/>
</svg>
