<svg width="32" height="32" viewBox="0 0 32 32" fill="none" xmlns="http://www.w3.org/2000/svg">
<path d="M27.6551 13C27.2027 12.5357 26.7384 12.0476 26.5599 11.6309C26.3813 11.2142 26.3932 10.5952 26.3813 9.96425C26.3694 8.80948 26.3456 7.48805 25.4289 6.57139C24.5122 5.65472 23.1908 5.63091 22.036 5.61901C21.4051 5.6071 20.7622 5.5952 20.3694 5.44044C19.9765 5.28567 19.4646 4.79758 19.0003 4.3452C18.1789 3.55948 17.2384 2.66663 16.0003 2.66663C14.7622 2.66663 13.8218 3.55948 13.0003 4.3452C12.536 4.79758 12.0479 5.26186 11.6313 5.44044C11.2146 5.61901 10.5956 5.6071 9.96461 5.61901C8.80985 5.63091 7.48842 5.65472 6.57175 6.57139C5.65509 7.48805 5.63128 8.80948 5.61937 9.96425C5.60747 10.5952 5.59556 11.2381 5.4408 11.6309C5.28604 12.0238 4.79794 12.5357 4.34556 13C3.55985 13.8214 2.66699 14.7619 2.66699 16C2.66699 17.2381 3.55985 18.1785 4.34556 19C4.79794 19.4642 5.26223 19.9523 5.4408 20.369C5.61937 20.7857 5.60747 21.4047 5.61937 22.0357C5.63128 23.1904 5.65509 24.5119 6.57175 25.4285C7.48842 26.3452 8.80985 26.369 9.96461 26.3809C10.5956 26.3928 11.2384 26.4047 11.6313 26.5595C12.0241 26.7142 12.536 27.2023 13.0003 27.6547C13.8218 28.4404 14.7622 29.3333 16.0003 29.3333C17.2384 29.3333 18.1789 28.4404 19.0003 27.6547C19.4646 27.2023 19.9527 26.7381 20.3694 26.5595C20.786 26.3809 21.4051 26.3928 22.036 26.3809C23.1908 26.369 24.5122 26.3452 25.4289 25.4285C26.3456 24.5119 26.3694 23.1904 26.3813 22.0357C26.3932 21.4047 26.4051 20.7619 26.5599 20.369C26.7146 19.9762 27.2027 19.4642 27.6551 19C28.4408 18.1785 29.3337 17.2381 29.3337 16C29.3337 14.7619 28.4408 13.8214 27.6551 13ZM26.2741 17.6785C25.7027 18.2738 25.1194 18.8928 24.7979 19.6428C24.4765 20.3928 24.4884 21.2023 24.4765 22C24.4646 22.7976 24.4527 23.7142 24.0837 24.0833C23.7146 24.4523 22.8456 24.4642 22.0003 24.4762C21.1551 24.4881 20.3694 24.5 19.6432 24.7976C18.917 25.0952 18.2741 25.7023 17.6789 26.2738C17.0837 26.8452 16.4765 27.4285 16.0003 27.4285C15.5241 27.4285 14.917 26.8452 14.3218 26.2738C13.7265 25.7023 13.1075 25.119 12.3575 24.7976C11.6075 24.4762 10.7979 24.4881 10.0003 24.4762C9.20271 24.4642 8.28604 24.4523 7.91699 24.0833C7.54794 23.7142 7.53604 22.8452 7.52414 22C7.51223 21.1547 7.50033 20.369 7.20271 19.6428C6.90509 18.9166 6.29794 18.2738 5.72652 17.6785C5.15509 17.0833 4.57175 16.4762 4.57175 16C4.57175 15.5238 5.15509 14.9166 5.72652 14.3214C6.29794 13.7262 6.88128 13.1071 7.20271 12.3571C7.52414 11.6071 7.51223 10.7976 7.52414 9.99996C7.53604 9.20234 7.54794 8.28567 7.91699 7.91663C8.28604 7.54758 9.15509 7.53567 10.0003 7.52377C10.8456 7.51186 11.6313 7.49996 12.3575 7.20234C13.0837 6.90472 13.7265 6.29758 14.3218 5.72615C14.917 5.15472 15.5241 4.57139 16.0003 4.57139C16.4765 4.57139 17.0837 5.15472 17.6789 5.72615C18.2741 6.29758 18.8932 6.88091 19.6432 7.20234C20.3932 7.52377 21.2027 7.51186 22.0003 7.52377C22.7979 7.53567 23.7146 7.54758 24.0837 7.91663C24.4527 8.28567 24.4646 9.15472 24.4765 9.99996C24.4884 10.8452 24.5003 11.6309 24.7979 12.3571C25.0956 13.0833 25.7027 13.7262 26.2741 14.3214C26.8456 14.9166 27.4289 15.5238 27.4289 16C27.4289 16.4762 26.8456 17.0833 26.2741 17.6785ZM17.4289 22.1904C17.4289 22.473 17.3451 22.7492 17.1881 22.9841C17.0312 23.219 16.8081 23.4021 16.547 23.5103C16.286 23.6184 15.9987 23.6467 15.7216 23.5916C15.4445 23.5364 15.19 23.4004 14.9902 23.2006C14.7904 23.0008 14.6543 22.7463 14.5992 22.4691C14.5441 22.192 14.5724 21.9048 14.6805 21.6437C14.7886 21.3827 14.9717 21.1596 15.2067 21.0026C15.4416 20.8457 15.7178 20.7619 16.0003 20.7619C16.3792 20.7619 16.7426 20.9124 17.0105 21.1803C17.2784 21.4482 17.4289 21.8116 17.4289 22.1904ZM20.286 13.619C20.286 14.5901 19.9562 15.5325 19.3506 16.2916C18.745 17.0508 17.8995 17.5818 16.9527 17.7976V17.9047C16.9527 18.1573 16.8524 18.3996 16.6738 18.5782C16.4952 18.7568 16.2529 18.8571 16.0003 18.8571C15.7477 18.8571 15.5055 18.7568 15.3269 18.5782C15.1483 18.3996 15.0479 18.1573 15.0479 17.9047V16.9523C15.0479 16.6998 15.1483 16.4575 15.3269 16.2789C15.5055 16.1003 15.7477 16 16.0003 16C16.4712 16 16.9316 15.8603 17.3231 15.5987C17.7147 15.3371 18.0198 14.9652 18.2 14.5302C18.3802 14.0951 18.4274 13.6164 18.3355 13.1545C18.2437 12.6926 18.0169 12.2684 17.6839 11.9354C17.3509 11.6024 16.9267 11.3757 16.4648 11.2838C16.003 11.1919 15.5242 11.2391 15.0892 11.4193C14.6541 11.5995 14.2823 11.9047 14.0206 12.2962C13.759 12.6878 13.6194 13.1481 13.6194 13.619C13.6194 13.8716 13.519 14.1138 13.3404 14.2924C13.1618 14.471 12.9196 14.5714 12.667 14.5714C12.4144 14.5714 12.1722 14.471 11.9936 14.2924C11.815 14.1138 11.7146 13.8716 11.7146 13.619C11.7146 12.4824 12.1661 11.3923 12.9699 10.5886C13.7736 9.78482 14.8637 9.33329 16.0003 9.33329C17.137 9.33329 18.2271 9.78482 19.0308 10.5886C19.8345 11.3923 20.286 12.4824 20.286 13.619Z" fill="#121216"/>
</svg>
