<svg width="32" height="32" viewBox="0 0 32 32" fill="none" xmlns="http://www.w3.org/2000/svg">
<path fill-rule="evenodd" clip-rule="evenodd" d="M15.9997 8.49996C16.4712 8.49996 16.9234 8.32437 17.2568 8.0118C17.5902 7.69924 17.7775 7.27532 17.7775 6.83329C17.7775 6.39127 17.5902 5.96734 17.2568 5.65478C16.9234 5.34222 16.4712 5.16663 15.9997 5.16663C15.5282 5.16663 15.076 5.34222 14.7426 5.65478C14.4092 5.96734 14.2219 6.39127 14.2219 6.83329C14.2219 7.27532 14.4092 7.69924 14.7426 8.0118C15.076 8.32437 15.5282 8.49996 15.9997 8.49996ZM15.9997 2.66663C17.0243 2.66643 18.0174 2.99811 18.8111 3.60554C19.6048 4.21296 20.1503 5.05882 20.3552 5.99996H24.8886C25.3601 5.99996 25.8122 6.17555 26.1456 6.48811C26.479 6.80068 26.6663 7.2246 26.6663 7.66663V27.6666C26.6663 28.1087 26.479 28.5326 26.1456 28.8451C25.8122 29.1577 25.3601 29.3333 24.8886 29.3333H7.11079C6.63929 29.3333 6.1871 29.1577 5.85371 28.8451C5.52031 28.5326 5.33301 28.1087 5.33301 27.6666V7.66663C5.33301 7.2246 5.52031 6.80068 5.85371 6.48811C6.1871 6.17555 6.63929 5.99996 7.11079 5.99996H11.6441C11.849 5.05882 12.3945 4.21296 13.1882 3.60554C13.9819 2.99811 14.9751 2.66643 15.9997 2.66663ZM14.2219 11H20.4441V8.49996H23.9997V26.8333H7.99967V8.49996H11.5552V11H14.2219ZM20.4975 16.4666C20.6285 16.3522 20.7335 16.2142 20.8064 16.0609C20.8793 15.9075 20.9185 15.742 20.9216 15.5742C20.9248 15.4063 20.8918 15.2396 20.8248 15.084C20.7577 14.9283 20.6579 14.7869 20.5313 14.6682C20.4047 14.5495 20.2539 14.456 20.0878 14.3931C19.9218 14.3302 19.744 14.2993 19.565 14.3023C19.3859 14.3053 19.2094 14.342 19.0458 14.4103C18.8823 14.4786 18.7351 14.5771 18.613 14.7L15.1108 17.9833L14.2752 17.2C14.0225 16.9792 13.6882 16.859 13.3427 16.8647C12.9973 16.8704 12.6677 17.0016 12.4235 17.2306C12.1792 17.4596 12.0392 17.7686 12.0331 18.0924C12.027 18.4163 12.1553 18.7297 12.3908 18.9666L14.1686 20.6333C14.4186 20.8674 14.7575 20.9989 15.1108 20.9989C15.4641 20.9989 15.803 20.8674 16.053 20.6333L20.4975 16.4666Z" fill="#121216"/>
</svg>
