<svg width="24" height="24" viewBox="0 0 24 24" fill="none" xmlns="http://www.w3.org/2000/svg">
<path fill-rule="evenodd" clip-rule="evenodd" d="M12 6.375C12.3536 6.375 12.6928 6.2433 12.9428 6.00888C13.1929 5.77446 13.3333 5.45652 13.3333 5.125C13.3333 4.79348 13.1929 4.47554 12.9428 4.24112C12.6928 4.0067 12.3536 3.875 12 3.875C11.6464 3.875 11.3072 4.0067 11.0572 4.24112C10.8071 4.47554 10.6667 4.79348 10.6667 5.125C10.6667 5.45652 10.8071 5.77446 11.0572 6.00888C11.3072 6.2433 11.6464 6.375 12 6.375ZM12 2C12.7684 1.99985 13.5133 2.24861 14.1086 2.70418C14.7039 3.15975 15.113 3.79415 15.2667 4.5H18.6667C19.0203 4.5 19.3594 4.6317 19.6095 4.86612C19.8595 5.10054 20 5.41848 20 5.75V20.75C20 21.0815 19.8595 21.3995 19.6095 21.6339C19.3594 21.8683 19.0203 22 18.6667 22H5.33333C4.97971 22 4.64057 21.8683 4.39052 21.6339C4.14048 21.3995 4 21.0815 4 20.75V5.75C4 5.41848 4.14048 5.10054 4.39052 4.86612C4.64057 4.6317 4.97971 4.5 5.33333 4.5H8.73333C8.88702 3.79415 9.29612 3.15975 9.8914 2.70418C10.4867 2.24861 11.2316 1.99985 12 2ZM10.6667 8.25H15.3333V6.375H18V20.125H6V6.375H8.66667V8.25H10.6667ZM15.3733 12.35C15.4716 12.2642 15.5504 12.1607 15.605 12.0457C15.6597 11.9307 15.6891 11.8065 15.6915 11.6807C15.6938 11.5548 15.6691 11.4297 15.6188 11.313C15.5685 11.1963 15.4937 11.0902 15.3987 11.0012C15.3038 10.9122 15.1906 10.842 15.0661 10.7948C14.9416 10.7477 14.8082 10.7245 14.674 10.7268C14.5397 10.729 14.4073 10.7565 14.2846 10.8078C14.162 10.859 14.0515 10.9329 13.96 11.025L11.3333 13.4875L10.7067 12.9C10.5171 12.7344 10.2664 12.6442 10.0073 12.6485C9.74824 12.6528 9.50105 12.7512 9.31784 12.923C9.13462 13.0947 9.02967 13.3265 9.0251 13.5693C9.02053 13.8122 9.11669 14.0473 9.29333 14.225L10.6267 15.475C10.8142 15.6506 11.0683 15.7492 11.3333 15.7492C11.5983 15.7492 11.8525 15.6506 12.04 15.475L15.3733 12.35Z" fill="#121216"/>
</svg>
