<svg width="32" height="32" viewBox="0 0 32 32" fill="none" xmlns="http://www.w3.org/2000/svg">
<path fill-rule="evenodd" clip-rule="evenodd" d="M15.9997 8.50002C16.4712 8.50002 16.9234 8.32443 17.2568 8.01187C17.5902 7.6993 17.7775 7.27538 17.7775 6.83335C17.7775 6.39133 17.5902 5.9674 17.2568 5.65484C16.9234 5.34228 16.4712 5.16669 15.9997 5.16669C15.5282 5.16669 15.076 5.34228 14.7426 5.65484C14.4092 5.9674 14.2219 6.39133 14.2219 6.83335C14.2219 7.27538 14.4092 7.6993 14.7426 8.01187C15.076 8.32443 15.5282 8.50002 15.9997 8.50002ZM15.9997 2.66669C17.0243 2.66649 18.0174 2.99817 18.8111 3.6056C19.6048 4.21302 20.1503 5.05888 20.3552 6.00002H24.8886C25.3601 6.00002 25.8122 6.17562 26.1456 6.48818C26.479 6.80074 26.6663 7.22466 26.6663 7.66669V27.6667C26.6663 28.1087 26.479 28.5326 26.1456 28.8452C25.8122 29.1578 25.3601 29.3334 24.8886 29.3334H7.11079C6.63929 29.3334 6.1871 29.1578 5.85371 28.8452C5.52031 28.5326 5.33301 28.1087 5.33301 27.6667V7.66669C5.33301 7.22466 5.52031 6.80074 5.85371 6.48818C6.1871 6.17562 6.63929 6.00002 7.11079 6.00002H11.6441C11.849 5.05888 12.3945 4.21302 13.1882 3.6056C13.9819 2.99817 14.9751 2.66649 15.9997 2.66669ZM14.2219 11H20.4441V8.50002H23.9997V26.8334H7.99967V8.50002H11.5552V11H14.2219ZM20.4975 16.4667C20.6285 16.3523 20.7335 16.2143 20.8064 16.0609C20.8793 15.9076 20.9185 15.7421 20.9216 15.5742C20.9248 15.4064 20.8918 15.2397 20.8248 15.084C20.7577 14.9284 20.6579 14.787 20.5313 14.6683C20.4047 14.5496 20.2539 14.456 20.0878 14.3931C19.9218 14.3303 19.744 14.2994 19.565 14.3024C19.3859 14.3053 19.2094 14.3421 19.0458 14.4104C18.8823 14.4787 18.7351 14.5772 18.613 14.7L15.1108 17.9834L14.2752 17.2C14.0225 16.9792 13.6882 16.859 13.3427 16.8647C12.9973 16.8704 12.6677 17.0016 12.4235 17.2307C12.1792 17.4597 12.0392 17.7686 12.0331 18.0925C12.027 18.4163 12.1553 18.7297 12.3908 18.9667L14.1686 20.6334C14.4186 20.8674 14.7575 20.9989 15.1108 20.9989C15.4641 20.9989 15.803 20.8674 16.053 20.6334L20.4975 16.4667Z" fill="#FAFAFF"/>
</svg>
