<svg width="1440" height="88" viewBox="0 0 1440 88" fill="none" xmlns="http://www.w3.org/2000/svg">
<path d="M131 44H117M117 44L123 50M117 44L123 38" stroke="#192BC2" stroke-width="2" stroke-linecap="round" stroke-linejoin="round"/>
<path d="M145.148 50V38.3636H147.256V43.7102H147.398L151.938 38.3636H154.511L150.011 43.5852L154.551 50H152.017L148.545 45.0114L147.256 46.5341V50H145.148ZM159.188 50.1705C158.313 50.1705 157.557 49.9886 156.921 49.625C156.288 49.2576 155.802 48.7386 155.461 48.0682C155.12 47.3939 154.949 46.6004 154.949 45.6875C154.949 44.7898 155.12 44.0019 155.461 43.3239C155.805 42.642 156.286 42.1117 156.904 41.733C157.521 41.3504 158.247 41.1591 159.08 41.1591C159.618 41.1591 160.125 41.2462 160.603 41.4205C161.084 41.5909 161.508 41.8561 161.875 42.2159C162.247 42.5758 162.538 43.0341 162.75 43.5909C162.963 44.1439 163.069 44.803 163.069 45.5682V46.1989H155.915V44.8125H161.097C161.093 44.4186 161.008 44.0682 160.841 43.7614C160.675 43.4508 160.442 43.2064 160.142 43.0284C159.847 42.8504 159.502 42.7614 159.108 42.7614C158.688 42.7614 158.319 42.8636 158 43.0682C157.682 43.2689 157.434 43.5341 157.256 43.8636C157.082 44.1894 156.993 44.5473 156.989 44.9375V46.1477C156.989 46.6553 157.082 47.0909 157.267 47.4545C157.453 47.8144 157.713 48.0909 158.046 48.2841C158.379 48.4735 158.769 48.5682 159.216 48.5682C159.516 48.5682 159.786 48.5265 160.029 48.4432C160.271 48.3561 160.482 48.2292 160.66 48.0625C160.838 47.8958 160.972 47.6894 161.063 47.4432L162.983 47.6591C162.862 48.1667 162.631 48.6098 162.29 48.9886C161.953 49.3636 161.521 49.6553 160.995 49.8636C160.468 50.0682 159.866 50.1705 159.188 50.1705ZM164.889 50V41.2727H166.855V42.7557H166.957C167.139 42.2557 167.44 41.8655 167.86 41.5852C168.281 41.3011 168.783 41.1591 169.366 41.1591C169.957 41.1591 170.455 41.303 170.86 41.5909C171.269 41.875 171.557 42.2633 171.724 42.7557H171.815C172.008 42.2708 172.334 41.8845 172.792 41.5966C173.254 41.3049 173.802 41.1591 174.434 41.1591C175.237 41.1591 175.892 41.4129 176.4 41.9205C176.908 42.428 177.161 43.1686 177.161 44.142V50H175.099V44.4602C175.099 43.9186 174.955 43.5227 174.667 43.2727C174.379 43.0189 174.027 42.892 173.61 42.892C173.114 42.892 172.726 43.0473 172.446 43.358C172.169 43.6648 172.031 44.0644 172.031 44.5568V50H170.014V44.375C170.014 43.9242 169.877 43.5644 169.605 43.2955C169.336 43.0265 168.983 42.892 168.548 42.892C168.252 42.892 167.983 42.9678 167.741 43.1193C167.499 43.267 167.305 43.4773 167.161 43.75C167.017 44.0189 166.946 44.3333 166.946 44.6932V50H164.889ZM179.419 50V38.3636H181.476V42.7159H181.561C181.667 42.5038 181.817 42.2784 182.01 42.0398C182.203 41.7973 182.464 41.5909 182.794 41.4205C183.124 41.2462 183.544 41.1591 184.055 41.1591C184.73 41.1591 185.338 41.3314 185.879 41.6761C186.425 42.017 186.856 42.5227 187.175 43.1932C187.497 43.8598 187.658 44.678 187.658 45.6477C187.658 46.6061 187.5 47.4205 187.186 48.0909C186.872 48.7614 186.444 49.2727 185.902 49.625C185.36 49.9773 184.747 50.1534 184.061 50.1534C183.561 50.1534 183.146 50.0701 182.817 49.9034C182.487 49.7367 182.222 49.536 182.021 49.3011C181.824 49.0625 181.671 48.8371 181.561 48.625H181.442V50H179.419ZM181.436 45.6364C181.436 46.2008 181.516 46.6951 181.675 47.1193C181.838 47.5436 182.07 47.875 182.374 48.1136C182.68 48.3485 183.052 48.4659 183.487 48.4659C183.942 48.4659 184.322 48.3447 184.629 48.1023C184.936 47.8561 185.167 47.5208 185.322 47.0966C185.481 46.6686 185.561 46.1818 185.561 45.6364C185.561 45.0947 185.483 44.6136 185.328 44.1932C185.173 43.7727 184.942 43.4432 184.635 43.2045C184.328 42.9659 183.945 42.8466 183.487 42.8466C183.048 42.8466 182.675 42.9621 182.368 43.1932C182.061 43.4242 181.828 43.7481 181.669 44.1648C181.514 44.5814 181.436 45.072 181.436 45.6364ZM191.998 50.1761C191.445 50.1761 190.946 50.0777 190.503 49.8807C190.064 49.6799 189.715 49.3845 189.458 48.9943C189.204 48.6042 189.077 48.1231 189.077 47.5511C189.077 47.0587 189.168 46.6515 189.35 46.3295C189.532 46.0076 189.78 45.75 190.094 45.5568C190.409 45.3636 190.763 45.2178 191.157 45.1193C191.554 45.017 191.965 44.9432 192.39 44.8977C192.901 44.8447 193.316 44.7973 193.634 44.7557C193.952 44.7102 194.183 44.642 194.327 44.5511C194.475 44.4564 194.549 44.3106 194.549 44.1136V44.0795C194.549 43.6515 194.422 43.3201 194.168 43.0852C193.914 42.8504 193.549 42.733 193.071 42.733C192.568 42.733 192.168 42.8428 191.873 43.0625C191.581 43.2822 191.384 43.5417 191.282 43.8409L189.361 43.5682C189.513 43.0379 189.763 42.5947 190.111 42.2386C190.46 41.8788 190.886 41.6098 191.39 41.4318C191.893 41.25 192.45 41.1591 193.06 41.1591C193.481 41.1591 193.899 41.2083 194.316 41.3068C194.732 41.4053 195.113 41.5682 195.458 41.7955C195.802 42.0189 196.079 42.3239 196.287 42.7102C196.499 43.0966 196.606 43.5795 196.606 44.1591V50H194.628V48.8011H194.56C194.435 49.0436 194.259 49.2708 194.032 49.483C193.808 49.6913 193.526 49.8598 193.185 49.9886C192.848 50.1136 192.452 50.1761 191.998 50.1761ZM192.532 48.6648C192.945 48.6648 193.302 48.5833 193.606 48.4205C193.909 48.2538 194.141 48.0341 194.304 47.7614C194.471 47.4886 194.554 47.1913 194.554 46.8693V45.8409C194.49 45.8939 194.38 45.9432 194.225 45.9886C194.073 46.0341 193.903 46.0739 193.713 46.108C193.524 46.142 193.337 46.1723 193.151 46.1989C192.965 46.2254 192.804 46.2481 192.668 46.267C192.361 46.3087 192.087 46.3769 191.844 46.4716C191.602 46.5663 191.41 46.6989 191.27 46.8693C191.13 47.036 191.06 47.2519 191.06 47.517C191.06 47.8958 191.198 48.1818 191.475 48.375C191.751 48.5682 192.104 48.6648 192.532 48.6648ZM200.811 38.3636V50H198.754V38.3636H200.811ZM203.006 50V41.2727H205.062V50H203.006ZM204.04 40.0341C203.714 40.0341 203.434 39.9261 203.199 39.7102C202.964 39.4905 202.846 39.2273 202.846 38.9205C202.846 38.6098 202.964 38.3466 203.199 38.1307C203.434 37.911 203.714 37.8011 204.04 37.8011C204.369 37.8011 204.65 37.911 204.881 38.1307C205.115 38.3466 205.233 38.6098 205.233 38.9205C205.233 39.2273 205.115 39.4905 204.881 39.7102C204.65 39.9261 204.369 40.0341 204.04 40.0341Z" fill="#192BC2"/>
<rect x="100.5" y="24.5" width="122" height="39" rx="7.5" stroke="#192BC2"/>
<path d="M1251.02 56V32.7273H1255.94V51.9432H1265.92V56H1251.02ZM1289.18 44.3636C1289.18 46.9015 1288.7 49.0606 1287.74 50.8409C1286.78 52.6212 1285.48 53.9811 1283.83 54.9205C1282.18 55.8523 1280.33 56.3182 1278.28 56.3182C1276.21 56.3182 1274.36 55.8485 1272.71 54.9091C1271.07 53.9697 1269.77 52.6098 1268.82 50.8295C1267.86 49.0492 1267.38 46.8939 1267.38 44.3636C1267.38 41.8258 1267.86 39.6667 1268.82 37.8864C1269.77 36.1061 1271.07 34.75 1272.71 33.8182C1274.36 32.8788 1276.21 32.4091 1278.28 32.4091C1280.33 32.4091 1282.18 32.8788 1283.83 33.8182C1285.48 34.75 1286.78 36.1061 1287.74 37.8864C1288.7 39.6667 1289.18 41.8258 1289.18 44.3636ZM1284.19 44.3636C1284.19 42.7197 1283.94 41.3333 1283.45 40.2045C1282.97 39.0758 1282.28 38.2197 1281.4 37.6364C1280.51 37.053 1279.47 36.7614 1278.28 36.7614C1277.09 36.7614 1276.05 37.053 1275.17 37.6364C1274.28 38.2197 1273.59 39.0758 1273.1 40.2045C1272.61 41.3333 1272.37 42.7197 1272.37 44.3636C1272.37 46.0076 1272.61 47.3939 1273.1 48.5227C1273.59 49.6515 1274.28 50.5076 1275.17 51.0909C1276.05 51.6742 1277.09 51.9659 1278.28 51.9659C1279.47 51.9659 1280.51 51.6742 1281.4 51.0909C1282.28 50.5076 1282.97 49.6515 1283.45 48.5227C1283.94 47.3939 1284.19 46.0076 1284.19 44.3636ZM1307.78 40.25C1307.62 39.697 1307.39 39.2083 1307.11 38.7841C1306.82 38.3523 1306.47 37.9886 1306.05 37.6932C1305.64 37.3902 1305.17 37.1591 1304.64 37C1304.12 36.8409 1303.54 36.7614 1302.9 36.7614C1301.71 36.7614 1300.67 37.0568 1299.76 37.6477C1298.87 38.2386 1298.17 39.0985 1297.67 40.2273C1297.17 41.3485 1296.92 42.7197 1296.92 44.3409C1296.92 45.9621 1297.17 47.3409 1297.66 48.4773C1298.15 49.6136 1298.85 50.4811 1299.75 51.0795C1300.65 51.6705 1301.72 51.9659 1302.95 51.9659C1304.06 51.9659 1305.01 51.7689 1305.8 51.375C1306.59 50.9735 1307.2 50.4091 1307.62 49.6818C1308.04 48.9545 1308.25 48.0947 1308.25 47.1023L1309.25 47.25H1303.25V43.5455H1312.99V46.4773C1312.99 48.5227 1312.56 50.2803 1311.7 51.75C1310.83 53.2121 1309.64 54.3409 1308.13 55.1364C1306.61 55.9242 1304.88 56.3182 1302.92 56.3182C1300.74 56.3182 1298.83 55.8371 1297.17 54.875C1295.52 53.9053 1294.23 52.5303 1293.31 50.75C1292.39 48.9621 1291.93 46.8409 1291.93 44.3864C1291.93 42.5 1292.21 40.8182 1292.75 39.3409C1293.31 37.8561 1294.08 36.5985 1295.07 35.5682C1296.06 34.5379 1297.22 33.7538 1298.54 33.2159C1299.86 32.678 1301.28 32.4091 1302.82 32.4091C1304.14 32.4091 1305.37 32.6023 1306.5 32.9886C1307.64 33.3674 1308.65 33.9053 1309.53 34.6023C1310.41 35.2992 1311.14 36.1288 1311.7 37.0909C1312.26 38.0455 1312.62 39.0985 1312.78 40.25H1307.78ZM1337.59 44.3636C1337.59 46.9015 1337.11 49.0606 1336.15 50.8409C1335.2 52.6212 1333.89 53.9811 1332.24 54.9205C1330.6 55.8523 1328.75 56.3182 1326.7 56.3182C1324.63 56.3182 1322.77 55.8485 1321.13 54.9091C1319.48 53.9697 1318.18 52.6098 1317.23 50.8295C1316.28 49.0492 1315.8 46.8939 1315.8 44.3636C1315.8 41.8258 1316.28 39.6667 1317.23 37.8864C1318.18 36.1061 1319.48 34.75 1321.13 33.8182C1322.77 32.8788 1324.63 32.4091 1326.7 32.4091C1328.75 32.4091 1330.6 32.8788 1332.24 33.8182C1333.89 34.75 1335.2 36.1061 1336.15 37.8864C1337.11 39.6667 1337.59 41.8258 1337.59 44.3636ZM1332.61 44.3636C1332.61 42.7197 1332.36 41.3333 1331.87 40.2045C1331.38 39.0758 1330.7 38.2197 1329.81 37.6364C1328.92 37.053 1327.89 36.7614 1326.7 36.7614C1325.51 36.7614 1324.47 37.053 1323.58 37.6364C1322.7 38.2197 1322.01 39.0758 1321.51 40.2045C1321.03 41.3333 1320.79 42.7197 1320.79 44.3636C1320.79 46.0076 1321.03 47.3939 1321.51 48.5227C1322.01 49.6515 1322.7 50.5076 1323.58 51.0909C1324.47 51.6742 1325.51 51.9659 1326.7 51.9659C1327.89 51.9659 1328.92 51.6742 1329.81 51.0909C1330.7 50.5076 1331.38 49.6515 1331.87 48.5227C1332.36 47.3939 1332.61 46.0076 1332.61 44.3636Z" fill="url(#paint0_linear_120_1583)"/>
<defs>
<linearGradient id="paint0_linear_120_1583" x1="1249" y1="25" x2="1343.49" y2="38.3879" gradientUnits="userSpaceOnUse">
<stop stop-color="#192BC2"/>
<stop offset="1" stop-color="#5363E9"/>
</linearGradient>
</defs>
</svg>
