<svg width="767" height="900" viewBox="0 0 767 900" fill="none" xmlns="http://www.w3.org/2000/svg">
<path d="M729.625 -20.2874C771.888 -115.652 721.092 -170.32 690.412 -185.734L241.904 -443.901L-649.088 1094.7L-518.47 1234.02C-489.741 1252.8 -416.855 1269.32 -355.15 1185.15C-278.017 1079.93 -237.242 1107.45 -192.859 1110.08C-148.477 1112.71 161.002 1184.6 247.921 1104.39C332.775 1026.09 321.522 901.279 427.897 866.811C512.997 839.236 551.058 787.034 562.893 766.597C574.728 746.159 601.042 687.196 582.445 599.932C559.198 490.852 622.755 402.084 705.711 321.786C788.667 241.488 770.042 194.375 745.564 157.371C721.085 120.367 676.797 98.9179 729.625 -20.2874Z" fill="#A9B1F4"/>
</svg>
