<svg width="100" height="101" viewBox="0 0 100 101" fill="none" xmlns="http://www.w3.org/2000/svg">
<path d="M79.0719 34.7547V53.4585H75.9424C76.2592 50.242 77.7643 48.0292 77.7643 48.0292V34.7547H79.0719Z" fill="#FADB00"/>
<path d="M82.2 53.4585H79.0713V34.7547H80.3802V48.0292C80.3802 48.0292 81.883 50.242 82.2 53.4585Z" fill="#F8B716"/>
<path d="M73.8439 53.4585H35.0195V37.6316H73.8439V53.4585Z" fill="#303030"/>
<path d="M54.4331 23.5V46.0093L18.8623 34.7534L54.4331 23.5Z" fill="#565555"/>
<path d="M90.0002 34.7534L54.4336 46.0105V23.5L90.0002 34.7534Z" fill="#474646"/>
<path d="M70.4505 57.5579H38.4121V53.4585H70.4505V57.5579Z" fill="#474646"/>
<path d="M41.5217 71.762C41.5217 72.0138 41.3187 72.2175 41.0685 72.2175H10.4531C10.2029 72.2175 10 72.0138 10 71.762V57.2463C10 56.9958 10.2029 56.7921 10.4531 56.7921H41.0685C41.3187 56.7921 41.5217 56.9958 41.5217 57.2463V71.762Z" fill="#18B55F"/>
<path d="M41.5217 69.2963C41.5217 69.547 41.3187 69.7507 41.0685 69.7507H10.4531C10.2029 69.7507 10 69.547 10 69.2963V54.7795C10 54.5289 10.2029 54.3252 10.4531 54.3252H41.0685C41.3187 54.3252 41.5217 54.5289 41.5217 54.7795V69.2963Z" fill="#029340"/>
<path d="M41.5217 66.8308C41.5217 67.0814 41.3187 67.2852 41.0685 67.2852H10.4531C10.2029 67.2852 10 67.0814 10 66.8308V52.314C10 52.0633 10.2029 51.8596 10.4531 51.8596H41.0685C41.3187 51.8596 41.5217 52.0633 41.5217 52.314V66.8308Z" fill="#18B55F"/>
<path d="M41.5217 64.365C41.5217 64.6156 41.3187 64.8193 41.0685 64.8193H10.4531C10.2029 64.8193 10 64.6156 10 64.365V49.8481C10 49.5975 10.2029 49.3938 10.4531 49.3938H41.0685C41.3187 49.3938 41.5217 49.5975 41.5217 49.8481V64.365Z" fill="#029340"/>
<path d="M41.0685 46.9279H10.4531C10.2029 46.9279 10 47.1317 10 47.3823V61.8991C10 62.1498 10.2029 62.3535 10.4531 62.3535H41.0685C41.3187 62.3535 41.5217 62.1498 41.5217 61.8991V47.3823C41.5217 47.1317 41.3187 46.9279 41.0685 46.9279Z" fill="#26C469"/>
<path d="M29.8697 48.9997C30.4384 49.4182 30.9414 49.9196 31.3604 50.4876H37.9735V58.7936H31.3604C30.9414 59.3616 30.4384 59.8642 29.8697 60.2815H39.4562V48.9997H29.8697ZM20.1609 58.7936H13.5486V50.4876H20.1609C20.5809 49.9196 21.0841 49.4182 21.652 48.9997H12.0654V60.2815H21.652C21.0841 59.8642 20.5809 59.3616 20.1609 58.7936Z" fill="#029340"/>
<path d="M25.7607 48.7616C22.5239 48.7616 19.9004 51.394 19.9004 54.6414C19.9004 57.8876 22.5239 60.52 25.7607 60.52C28.997 60.52 31.6206 57.8876 31.6206 54.6414C31.6206 51.394 28.997 48.7616 25.7607 48.7616Z" fill="#029340"/>
<path d="M28.1332 56.4675C28.0761 56.197 27.8744 55.9823 27.6092 55.9082C27.1457 55.7785 26.4662 55.5933 26.4009 55.5896L26.3993 55.0266C27.1879 54.6957 27.5911 54.1042 27.7079 53.4634C27.8383 53.4461 27.939 53.3337 27.939 53.1979V52.93C27.939 52.7966 27.8412 52.6855 27.7132 52.6658C27.3057 50.0913 24.2195 50.0716 23.8088 52.6658C23.6809 52.6855 23.5831 52.7966 23.5831 52.93V53.1979C23.5831 53.3337 23.6838 53.4461 23.8145 53.4634C23.9309 54.1042 24.3344 54.6957 25.1229 55.0266L25.1212 55.5896C25.0561 55.5933 24.3764 55.7785 23.9129 55.9082C23.648 55.9823 23.4459 56.197 23.389 56.4675L23.1699 58.553H28.3521L28.1332 56.4675Z" fill="#26C469"/>
<path d="M41.5234 74.4206V77.5H46.0064C46.3908 77.5 46.6998 77.1888 46.6998 76.8048V74.4638C46.6998 74.449 46.6998 74.4341 46.6973 74.4206H41.5234Z" fill="#FFCE00"/>
<path d="M36.3457 74.4204H46.6968C46.6779 74.0574 46.3754 73.7685 46.0059 73.7685H37.0376C36.6683 73.7685 36.3658 74.0574 36.3457 74.4204Z" fill="#FFF91A"/>
<path d="M36.3438 74.4638V76.8048C36.3438 77.1888 36.6538 77.5 37.0383 77.5H41.5236V74.4206H36.3463C36.3437 74.4341 36.3438 74.449 36.3438 74.4638Z" fill="#FFB000"/>
<path d="M41.5234 70.6891V73.7686H46.0064C46.3908 73.7686 46.6998 73.4574 46.6998 73.0759V70.7323C46.6998 70.7188 46.6998 70.7039 46.6973 70.6891H41.5234Z" fill="#FFCE00"/>
<path d="M36.3457 70.6892H46.6968C46.6779 70.3262 46.3754 70.0384 46.0059 70.0384H37.0376C36.6683 70.0384 36.3658 70.3262 36.3457 70.6892Z" fill="#FFF91A"/>
<path d="M36.3438 70.7323V73.0759C36.3438 73.4574 36.6538 73.7686 37.0383 73.7686H41.5236V70.6891H36.3463C36.3437 70.7039 36.3438 70.7188 36.3438 70.7323Z" fill="#FFB000"/>
<path d="M41.5234 66.959V70.0383H46.0064C46.3908 70.0383 46.6998 69.7273 46.6998 69.3445V67.0022C46.6998 66.9874 46.6998 66.9738 46.6973 66.959H41.5234Z" fill="#FFCE00"/>
<path d="M36.3457 66.959H46.6968C46.6779 66.596 46.3754 66.3083 46.0059 66.3083H37.0376C36.6683 66.3083 36.3658 66.596 36.3457 66.959Z" fill="#FFF91A"/>
<path d="M36.3438 67.0022V69.3445C36.3438 69.7273 36.6538 70.0383 37.0383 70.0383H41.5236V66.959H36.3463C36.3437 66.9738 36.3438 66.9874 36.3438 67.0022Z" fill="#FFB000"/>
<path d="M41.5234 63.2289V66.3083H46.0064C46.3908 66.3083 46.6998 65.996 46.6998 65.6132V63.2709C46.6998 63.2573 46.6998 63.2425 46.6973 63.2289H41.5234Z" fill="#FFCE00"/>
<path d="M36.3457 63.229H46.6968C46.6779 62.866 46.3754 62.5771 46.0059 62.5771H37.0376C36.6683 62.5771 36.3658 62.866 36.3457 63.229Z" fill="#FFF91A"/>
<path d="M36.3438 63.2709V65.6132C36.3438 65.996 36.6538 66.3083 37.0383 66.3083H41.5236V63.2289H36.3463C36.3437 63.2425 36.3438 63.2573 36.3438 63.2709Z" fill="#FFB000"/>
<path d="M53.2598 74.4206V77.5H57.7426C58.1271 77.5 58.4361 77.1888 58.4361 76.8048V74.4638C58.4361 74.449 58.4361 74.4341 58.4334 74.4206H53.2598Z" fill="#FFCE00"/>
<path d="M48.083 74.4204H58.4339C58.4151 74.0574 58.1127 73.7685 57.7431 73.7685H48.7749C48.4057 73.7685 48.1031 74.0574 48.083 74.4204Z" fill="#FFF91A"/>
<path d="M48.0801 74.4638V76.8048C48.0801 77.1888 48.3901 77.5 48.7747 77.5H53.26V74.4206H48.0828C48.0801 74.4341 48.0801 74.449 48.0801 74.4638Z" fill="#FFB000"/>
<path d="M53.2598 70.6891V73.7686H57.7426C58.1271 73.7686 58.4361 73.4574 58.4361 73.0759V70.7323C58.4361 70.7188 58.4361 70.7039 58.4334 70.6891H53.2598Z" fill="#FFCE00"/>
<path d="M48.083 70.6892H58.4339C58.4151 70.3262 58.1127 70.0384 57.7431 70.0384H48.7749C48.4057 70.0384 48.1031 70.3262 48.083 70.6892Z" fill="#FFF91A"/>
<path d="M48.0801 70.7323V73.0759C48.0801 73.4574 48.3901 73.7686 48.7747 73.7686H53.26V70.6891H48.0828C48.0801 70.7039 48.0801 70.7188 48.0801 70.7323Z" fill="#FFB000"/>
<path d="M53.2598 66.959V70.0383H57.7426C58.1271 70.0383 58.4361 69.7273 58.4361 69.3445V67.0022C58.4361 66.9874 58.4361 66.9738 58.4334 66.959H53.2598Z" fill="#FFCE00"/>
<path d="M48.083 66.959H58.4339C58.4151 66.596 58.1127 66.3083 57.7431 66.3083H48.7749C48.4057 66.3083 48.1031 66.596 48.083 66.959Z" fill="#FFF91A"/>
<path d="M48.0801 67.0022V69.3445C48.0801 69.7273 48.3901 70.0383 48.7747 70.0383H53.26V66.959H48.0828C48.0801 66.9738 48.0801 66.9874 48.0801 67.0022Z" fill="#FFB000"/>
</svg>
