<svg width="100" height="101" viewBox="0 0 100 101" fill="none" xmlns="http://www.w3.org/2000/svg">
<path d="M30.7854 59.7418L29.9797 50.7186L21 48.836L39.5865 32.1596L49.3719 43.0654L30.7854 59.7418Z" fill="#E2340C"/>
<path d="M70.0977 59.7418L70.9023 50.7186L79.882 48.836L61.2954 32.1596L51.51 43.0654L70.0977 59.7418Z" fill="#E2340C"/>
<path d="M71.6244 78.2207H65.0344V76.1744H71.6244V78.2207Z" fill="#3DC0CD"/>
<path d="M70.8609 75.3537H65.7977C65.7164 75.9214 65.4051 77.5843 64.8638 78.041C64.905 83.4625 71.8726 83.4396 71.7948 78.041C71.2535 77.5843 70.9422 75.9214 70.8609 75.3537Z" fill="#F49D56"/>
<path d="M68.3305 65.8465L63.835 68.6207L64.7242 74.9337C64.7242 74.9337 66.2224 77.0293 68.3305 77.0293C70.4375 77.0293 71.9357 74.9337 71.9357 74.9337L72.8238 68.6207L68.3305 65.8465Z" fill="#FCB87A"/>
<path d="M70.4145 78.2746L68.3304 78.0366L66.2452 78.2746L63.9871 80.1367C64.7699 82.5333 67.147 85.3167 68.3304 86.4429C69.5127 85.3167 71.8898 82.5333 72.6726 80.1367L70.4145 78.2746Z" fill="#3DC0CD"/>
<path d="M64.3683 71.1536C63.5442 70.4474 62.9388 71.3126 63.9024 72.7936C63.9024 72.7936 63.8292 73.28 64.5182 73.28L64.3683 71.1536Z" fill="#FCB87A"/>
<path d="M72.2916 71.1536C73.1156 70.4474 73.7211 71.3126 72.7574 72.7936C72.7574 72.7936 72.8295 73.28 72.1394 73.28L72.2916 71.1536Z" fill="#FCB87A"/>
<path d="M64.1714 71.4694C64.1714 71.4694 63.9734 71.3801 63.812 71.4694C63.812 71.4694 63.6151 71.5587 63.7433 71.8242L64.018 72.5773C64.018 72.5773 64.2023 72.5017 64.3453 72.5773C64.4266 72.092 63.5007 71.6468 64.1714 71.4694Z" fill="#F49D56"/>
<path d="M72.4884 71.4694C72.4884 71.4694 72.6864 71.3801 72.8478 71.4694C72.8478 71.4694 73.0446 71.5587 72.9164 71.8242L72.6417 72.5773C72.6417 72.5773 72.4563 72.5017 72.3144 72.5773C72.2332 72.092 73.1591 71.6468 72.4884 71.4694Z" fill="#F49D56"/>
<path d="M69.0938 80.3221H67.4687L66.7854 86.9854H69.776L69.0938 80.3221Z" fill="#3C3C99"/>
<path d="M69.3501 78.0365H67.2122L66.6011 78.8926L67.4686 80.322H69.0938L69.9613 78.8926L69.3501 78.0365Z" fill="#3C3C99"/>
<path d="M64.0602 70.9566L64.5192 72.3953H65.0319L64.6245 68.7844C65.318 67.6868 66.5495 67.7189 68.3303 67.9043C70.11 67.7189 71.3415 67.6868 72.0339 68.7844L71.6265 72.3953H72.1392L72.5993 70.9566C75.9698 62.8788 60.6897 62.88 64.0602 70.9566Z" fill="#313C3B"/>
<path d="M79.0453 82.9625C76.6201 86.246 72.7254 88.3748 68.3305 88.3748C63.9334 88.3748 60.0353 86.2437 57.6135 82.9579L57.6719 81.082C58.5406 78.5333 63.0888 77.2743 63.0888 77.2743L66.0107 82.3845L67.3497 85.1805L68.3305 86.4428L69.3549 85.137L70.4959 82.6523L73.5689 77.2743C73.5689 77.2743 78.1171 78.5333 78.9869 81.082L79.0453 82.9625Z" fill="#E2340C"/>
<path d="M71.6244 76.1744L68.3306 78.0365L70.465 80.3759L72.9532 77.6645L71.6244 76.1744Z" fill="#BFE0E2"/>
<path d="M65.0342 76.1744L68.3304 78.0365L66.1936 80.3759L63.7078 77.6645L65.0342 76.1744Z" fill="#BFE0E2"/>
<path d="M72.1795 76.4137C71.6244 78.2746 70.9434 82.8927 68.3306 86.4429C68.3306 86.4429 71.407 85.3316 73.3846 82.5527C72.7884 81.9118 72.2035 81.2835 72.2035 81.2835L75.2719 77.7184L72.1795 76.4137Z" fill="#A54021"/>
<path d="M64.4795 76.4137C65.0345 78.2746 65.7166 82.8927 68.3307 86.4429C68.3307 86.4429 65.252 85.3316 63.2766 82.5527C63.8717 81.9118 64.4554 81.2835 64.4554 81.2835L61.3882 77.7184L64.4795 76.4137Z" fill="#A54021"/>
<path d="M31.1769 79.2588C35.4515 79.2588 38.5863 76.8244 38.5863 76.8244C37.8859 76.3701 37.942 74.9303 37.9649 73.2216C38.1125 62.4382 24.2893 62.5915 24.3832 72.8805C24.4003 74.7369 24.5125 76.3403 23.7651 76.8244C23.7651 76.8244 26.8999 79.2588 31.1757 79.2588H31.1769Z" fill="#A54021"/>
<path d="M34.4707 78.2207H27.8818V76.1744H34.4707V78.2207Z" fill="#3DC0CD"/>
<path d="M33.7073 75.3537H28.6441C28.5628 75.9225 28.2515 77.5843 27.7102 78.041C27.7503 83.4625 34.7191 83.4396 34.6412 78.041C34.0999 77.5843 33.7886 75.9225 33.7073 75.3537Z" fill="#F49D56"/>
<path d="M31.1758 65.8476L26.6814 68.6207L27.5695 74.9349C27.5695 74.9349 29.0688 77.0293 31.1758 77.0293C33.2828 77.0293 34.7821 74.9349 34.7821 74.9349L35.6702 68.6207L31.1758 65.8476Z" fill="#FCB87A"/>
<path d="M27.2134 71.1535C26.3894 70.4474 25.7851 71.3115 26.7487 72.7936C26.7487 72.7936 26.6755 73.2811 27.3656 73.2811L27.2134 71.1535Z" fill="#FCB87A"/>
<path d="M35.1379 71.1535C35.9619 70.4474 36.5674 71.3115 35.6037 72.7936C35.6037 72.7936 35.6758 73.2811 34.9868 73.2811L35.1379 71.1535Z" fill="#FCB87A"/>
<path d="M35.5203 77.7995L31.177 78.0376L26.8336 77.7984L24.4966 79.2587C25.2783 81.6565 29.9913 85.3154 31.1758 86.4427V86.4438C32.3604 85.3177 37.0734 81.6576 37.8574 79.2599L35.5203 77.7995Z" fill="#3DC0CD"/>
<path d="M40.5159 84.5453C38.1148 86.9121 34.8198 88.3748 31.1769 88.3748C27.542 88.3748 24.2401 86.9144 21.8367 84.543L22.2075 81.1278C23.0773 78.5779 26.8335 77.7985 26.8335 77.7985L31.1769 86.4428L35.5202 77.7985C35.5202 77.7985 39.2764 78.579 40.1463 81.129L40.5159 84.5453Z" fill="#E2340C"/>
<path d="M27.8818 76.1744L31.1756 78.0376L29.04 80.3759L26.553 77.6645L27.8818 76.1744Z" fill="#BFE0E2"/>
<path d="M34.4718 76.1744L31.1768 78.0376L33.3124 80.377L35.7994 77.6645L34.4718 76.1744Z" fill="#BFE0E2"/>
<path d="M31.177 65.4585C25.0323 65.8476 26.1596 71.4385 26.1596 71.4385H36.1945C36.1945 71.4385 37.3218 65.8476 31.177 65.4585Z" fill="#A54021"/>
<path d="M72.041 32.1001C72.041 44.0302 62.3701 53.7012 50.4411 53.7012C38.512 53.7012 28.8411 44.0302 28.8411 32.1001C28.8411 20.171 38.512 10.5 50.4411 10.5C62.3701 10.5 72.041 20.171 72.041 32.1001Z" fill="#FF8B00"/>
<path d="M66.3345 32.1011C66.3345 40.8793 59.2192 47.9946 50.4409 47.9946C41.6627 47.9946 34.5474 40.8793 34.5474 32.1011C34.5474 23.3228 41.6627 16.2075 50.4409 16.2075C59.2192 16.2075 66.3345 23.3228 66.3345 32.1011Z" fill="#FFC50B"/>
<path d="M59.6735 23.2966L48.6178 34.3524L41.2083 26.943L37.9316 30.2208L48.6178 40.9058L62.9502 26.5733L59.6735 23.2966Z" fill="#E2340C"/>
<path d="M55.1481 75.9969H45.7358V73.0739H55.1481V75.9969Z" fill="#3DC0CD"/>
<path d="M54.0576 71.902H46.8255C46.7099 72.7135 46.2647 75.0871 45.4922 75.7395C45.5494 83.4843 55.5019 83.4511 55.3909 75.7395C54.6195 75.0871 54.1732 72.7135 54.0576 71.902Z" fill="#F49D56"/>
<path d="M50.4419 58.3237L44.0225 62.2847L45.2917 71.3022C45.2917 71.3022 47.4319 74.295 50.4419 74.295C53.4508 74.295 55.5921 71.3022 55.5921 71.3022L56.8614 62.2847L50.4419 58.3237Z" fill="#FCB87A"/>
<path d="M53.419 76.0738L50.4422 75.7339L47.4642 76.0738L44.239 78.7336C45.3572 82.1567 48.7517 86.1316 50.4422 87.7407C52.1326 86.1316 55.526 82.1567 56.6453 78.7336L53.419 76.0738Z" fill="#3DC0CD"/>
<path d="M44.7827 65.9037C43.6061 64.8931 42.742 66.1291 44.1188 68.2453C44.1188 68.2453 44.0136 68.9412 45.0001 68.9412L44.7827 65.9037Z" fill="#FCB87A"/>
<path d="M56.1015 65.9037C57.278 64.8931 58.141 66.1291 56.7653 68.2453C56.7653 68.2453 56.8706 68.9412 55.884 68.9412L56.1015 65.9037Z" fill="#FCB87A"/>
<path d="M44.5034 66.3534C44.5034 66.3534 44.2207 66.2264 43.9872 66.3534C43.9872 66.3534 43.7091 66.4805 43.89 66.8616L44.2825 67.9363C44.2825 67.9363 44.548 67.8276 44.7506 67.9363C44.8673 67.2427 43.5443 66.6064 44.5034 66.3534Z" fill="#F49D56"/>
<path d="M56.3808 66.3534C56.3808 66.3534 56.6635 66.2264 56.8959 66.3534C56.8959 66.3534 57.1751 66.4805 56.9943 66.8616L56.6006 67.9363C56.6006 67.9363 56.3362 67.8276 56.1325 67.9363C56.0169 67.2427 57.3399 66.6064 56.3808 66.3534Z" fill="#F49D56"/>
<path d="M51.5338 78.9977H49.2117L48.2366 88.5142H52.5089L51.5338 78.9977Z" fill="#E2340C"/>
<path d="M51.899 75.7337H48.8466L47.9734 76.956L49.2117 78.9978H51.5339L52.7722 76.956L51.899 75.7337Z" fill="#E2340C"/>
<path d="M44.343 65.6209L45 67.6753H45.7324L45.1499 62.5194C46.1399 60.9503 47.899 60.9972 50.442 61.2616C52.9851 60.9972 54.743 60.9503 55.733 62.5194L55.1505 67.6753H55.8841L56.5399 65.6209C61.3547 54.0845 39.5293 54.0845 44.343 65.6209Z" fill="#313C3B"/>
<path d="M65.7463 82.769C62.2831 87.4602 56.7197 90.5 50.4433 90.5C44.1623 90.5 38.5955 87.4568 35.1357 82.7621L35.2193 80.084C36.4611 76.4422 42.9572 74.6453 42.9572 74.6453L47.1884 82.0468L49.1054 86.096L50.4433 87.7395L51.8419 85.9987L53.7475 81.9552L57.9249 74.6453C57.9249 74.6453 64.421 76.4422 65.6639 80.084L65.7463 82.769Z" fill="#3C3C99"/>
<path d="M55.1483 73.074L50.4421 75.7338L53.4922 79.0757L57.0447 75.2016L55.1483 73.074Z" fill="#BFE0E2"/>
<path d="M45.736 73.074L50.4421 75.7338L47.392 79.0757L43.8384 75.2016L45.736 73.074Z" fill="#BFE0E2"/>
<path d="M55.9414 73.4151C55.1483 76.0738 54.1755 82.6706 50.4421 87.7407C50.4421 87.7407 54.837 86.1522 57.6604 82.1842C56.8101 81.2686 55.9758 80.3713 55.9758 80.3713L60.3557 75.2795L55.9414 73.4151Z" fill="#201C6F"/>
<path d="M44.9429 73.4151C45.736 76.0738 46.7088 82.6706 50.4421 87.7407C50.4421 87.7407 46.0462 86.1522 43.2238 82.1842C44.0742 81.2686 44.9085 80.3713 44.9085 80.3713L40.5286 75.2795L44.9429 73.4151Z" fill="#201C6F"/>
</svg>
